<svg xmlns="http://www.w3.org/2000/svg" width="36" height="36" fill="none" viewBox="0 0 36 36"><mask id="mask0_44_563" width="36" height="36" x="0" y="0" maskUnits="userSpaceOnUse" style="mask-type:luminance"><path fill="#fff" d="M0 0h36v36H0Z"/></mask><g stroke="#fff" stroke-linecap="round" stroke-linejoin="round" stroke-miterlimit="10" stroke-width="1.5" mask="url(#mask0_44_563)"><path d="M22.498 15.174a5.229 5.229 0 0 0-4.5-7.892"/><path d="M13.497 15.174a5.229 5.229 0 0 1 4.5-7.892"/><path d="M25.27 16.949a8.5 8.5 0 0 0 1.246-4.438c0-3.3-1.878-6.163-4.623-7.577"/><path d="M10.278 8.904a8.52 8.52 0 0 1 7.72-4.912"/><path d="M9.479 12.51a8.51 8.51 0 0 0 4.174 7.329"/><path d="M7.071 8.025a11.8 11.8 0 0 0-.882 4.487 11.77 11.77 0 0 0 3.37 8.26"/><path d="M27.775 5.886A11.8 11.8 0 0 0 17.999.702c-2.66 0-5.114.88-7.088 2.363"/><path d="M28.82 17.242c.634-1.448.986-3.049.986-4.731 0-1.223-.186-2.402-.53-3.512"/><path d="M16.31 25.859V12.54a1.688 1.688 0 0 1 3.375 0v13.078"/><path d="M19.686 25.618v-1.724a1.688 1.688 0 0 1 3.375 0v1.724"/><path d="M23.06 25.618v-1.004a1.688 1.688 0 0 1 3.375 0v1.004"/><path d="M26.436 25.619v-.037a1.688 1.688 0 0 1 3.375 0v1.52"/><path d="M29.81 27.103v3.755c0 1.636-.6 3.216-1.687 4.44"/><path d="M16.31 25.858v4.744c0 1.714.597 3.374 1.688 4.696"/><path d="m16.6 32.673-4.484-7.768a1.775 1.775 0 0 1 3.074-1.775l1.099 1.904"/></g></svg>