<svg xmlns="http://www.w3.org/2000/svg" width="50" height="50" fill="none" viewBox="0 0 50 50"><g fill="#fff" clip-path="url(#clip0_44_201)"><path d="M49.267 35.446a.73.73 0 0 1-.732-.732V6.592c0-2.827-2.3-5.127-5.127-5.127h-28.89A.732.732 0 1 1 14.518 0h28.89A6.6 6.6 0 0 1 50 6.592v28.122a.73.73 0 0 1-.732.732"/><path d="M43.408 50H6.592A6.6 6.6 0 0 1 0 43.408V6.592A6.6 6.6 0 0 1 6.592 0H11.1a.732.732 0 1 1 0 1.465H6.592a5.133 5.133 0 0 0-5.127 5.127v36.816c0 2.827 2.3 5.127 5.127 5.127h36.816c2.827 0 5.127-2.3 5.127-5.127v-5.277a.732.732 0 1 1 1.465 0v5.277A6.6 6.6 0 0 1 43.408 50"/><path d="M49.268 13.184H.885A.732.732 0 1 1 .885 11.719h48.383a.732.732 0 1 1 0 1.465"/><path d="M8.057 9.111A2.2 2.2 0 0 1 5.86 6.914a2.2 2.2 0 0 1 2.197-2.197 2.2 2.2 0 0 1 2.197 2.197 2.2 2.2 0 0 1-2.197 2.197m0-2.93a.733.733 0 1 0 .002 1.466.733.733 0 0 0-.002-1.466"/><path d="M13.916 9.111a2.2 2.2 0 0 1-2.197-2.197 2.2 2.2 0 0 1 2.197-2.197 2.2 2.2 0 0 1 2.197 2.197 2.2 2.2 0 0 1-2.197 2.197m0-2.93a.733.733 0 1 0 .002 1.466.733.733 0 0 0-.002-1.466"/><path d="M19.775 9.111a2.2 2.2 0 0 1-2.197-2.197 2.2 2.2 0 0 1 2.197-2.197 2.2 2.2 0 0 1 2.197 2.197 2.2 2.2 0 0 1-2.197 2.197m0-2.93a.733.733 0 1 0 .002 1.466.733.733 0 0 0-.002-1.466"/><path d="M10.477 16.37h.964v4.733"/><path d="M11.44 21.835a.73.73 0 0 1-.732-.732v-4h-.231a.732.732 0 1 1 0-1.465h.964c.404 0 .732.328.732.732v4.733a.73.73 0 0 1-.732.732"/><path d="M6.38 21.932c-1.122 0-2.036-.943-2.036-2.101v-2.189c0-1.159.914-2.101 2.036-2.101s2.037.942 2.037 2.101v2.189c0 1.158-.914 2.1-2.037 2.1m0-4.926c-.315 0-.57.285-.57.636v2.189c0 .35.255.636.57.636.316 0 .572-.285.572-.636v-2.189c0-.35-.256-.636-.572-.636"/><path d="M14.987 21.678a.73.73 0 0 1-.439-.146 2.13 2.13 0 0 1-.84-1.7v-2.19c0-1.159.913-2.101 2.036-2.101s2.036.942 2.036 2.1v1.49a.732.732 0 1 1-1.465 0v-1.49c0-.35-.256-.635-.57-.635-.316 0-.572.285-.572.636v2.19c0 .21.095.408.254.527a.732.732 0 0 1-.44 1.319"/><path d="M11.133 29.787c-1.123 0-2.036-.942-2.036-2.1v-2.188c0-1.16.913-2.102 2.036-2.102.862 0 1.634.563 1.92 1.402a.732.732 0 1 1-1.386.474c-.084-.246-.299-.412-.534-.412-.315 0-.571.286-.571.637v2.188c0 .351.256.636.57.636q.053 0 .104-.01a.733.733 0 0 1 .294 1.435q-.196.04-.397.04"/><path d="M6.083 24.226h.964v4.733"/><path d="M7.046 29.691a.73.73 0 0 1-.732-.732v-4h-.231a.732.732 0 1 1 0-1.465h.964c.404 0 .732.327.732.732v4.733a.73.73 0 0 1-.732.732"/><path d="M38.499 16.37h.964v4.733"/><path d="M39.463 21.835a.73.73 0 0 1-.732-.732v-4H38.5a.732.732 0 1 1 0-1.465h.964c.403 0 .731.328.731.732v4.733a.73.73 0 0 1-.732.732"/><path d="M35.07 21.738a.732.732 0 0 1-.388-1.354.65.65 0 0 0 .292-.553v-2.19c0-.35-.256-.635-.572-.635-.315 0-.57.285-.57.636v1.597a.732.732 0 0 1-1.465 0v-1.597c0-1.159.913-2.101 2.035-2.101s2.037.942 2.037 2.1v2.19c0 .741-.367 1.413-.982 1.796a.73.73 0 0 1-.387.111"/><path d="M43.214 24.226h.964v4.733"/><path d="M44.178 29.691a.73.73 0 0 1-.732-.732v-4h-.231a.732.732 0 1 1 0-1.465h.964c.403 0 .731.327.731.732v4.733a.73.73 0 0 1-.732.732"/><path d="M43.696 21.932c-1.123 0-2.036-.943-2.036-2.101v-2.189c0-1.159.913-2.101 2.036-2.101s2.036.942 2.036 2.101v2.189c0 1.158-.913 2.1-2.036 2.1m0-4.926c-.315 0-.572.285-.572.636v2.189c0 .35.257.636.572.636s.571-.285.571-.636v-2.189c0-.35-.256-.636-.571-.636"/><path d="M38.98 29.787q-.294 0-.578-.086a.732.732 0 0 1 .425-1.402.5.5 0 0 0 .154.023c.314 0 .57-.285.57-.636v-2.188c0-.351-.256-.637-.57-.637-.264 0-.498.207-.558.492a.733.733 0 0 1-1.434-.301c.203-.96 1.04-1.656 1.991-1.656 1.123 0 2.036.943 2.036 2.102v2.188c0 1.159-.913 2.101-2.036 2.101"/><path d="M5.417 32.082h.964v4.733"/><path d="M6.38 37.547a.73.73 0 0 1-.732-.732v-4h-.231a.732.732 0 1 1 0-1.465h.964c.404-.001.732.327.732.731v4.733a.73.73 0 0 1-.732.732"/><path d="M10.774 37.644c-1.122 0-2.036-.943-2.036-2.102v-2.188c0-1.16.914-2.102 2.036-2.102.39 0 .768.114 1.095.329a.732.732 0 0 1-.806 1.223.52.52 0 0 0-.289-.087c-.315 0-.57.286-.57.637v2.188c0 .351.255.637.57.637.316 0 .572-.286.572-.637v-.816a.732.732 0 1 1 1.465 0v.816c0 1.159-.914 2.102-2.037 2.102"/><path d="M10.477 39.937h.964v4.733"/><path d="M11.44 45.402a.73.73 0 0 1-.732-.732v-4h-.231a.732.732 0 1 1 0-1.465h.964c.404 0 .732.327.732.732v4.733a.73.73 0 0 1-.732.732"/><path d="M6.38 45.5c-1.122 0-2.036-.943-2.036-2.102v-2.189c0-1.158.914-2.1 2.036-2.1s2.037.942 2.037 2.1v2.189c0 1.159-.914 2.101-2.037 2.101m0-4.927c-.315 0-.57.285-.57.636v2.189c0 .35.255.636.57.636.316 0 .572-.285.572-.636V41.21c0-.35-.256-.636-.572-.636"/><path d="M15.744 45.5c-1.123 0-2.036-.944-2.036-2.102V41.21c0-.897.552-1.696 1.373-1.987a.732.732 0 1 1 .49 1.38c-.238.085-.398.328-.398.606v2.188c0 .352.256.637.571.637s.572-.285.572-.636v-2.022a.732.732 0 1 1 1.465 0v2.022c0 1.158-.914 2.101-2.037 2.101"/><path d="M38.499 39.937h.964v4.733"/><path d="M39.463 45.402a.73.73 0 0 1-.732-.732v-4H38.5a.732.732 0 1 1 0-1.465h.964c.403 0 .731.327.731.732v4.733a.73.73 0 0 1-.732.732"/><path d="M34.402 45.5c-1.122 0-2.036-.944-2.036-2.102v-2.13a.732.732 0 1 1 1.465 0v2.13c0 .35.256.636.571.636.316 0 .572-.285.572-.636V41.21c0-.295-.187-.556-.445-.62a.732.732 0 1 1 .359-1.42c.913.23 1.55 1.069 1.55 2.04v2.188c0 1.158-.913 2.101-2.036 2.101"/><path d="M43.696 37.644c-1.123 0-2.036-.943-2.036-2.102v-2.189c0-1.158.913-2.1 2.036-2.1s2.036.942 2.036 2.1v2.189c0 1.159-.913 2.102-2.036 2.102m0-4.927c-.315 0-.572.286-.572.637v2.189c0 .35.257.636.572.636s.571-.286.571-.637v-2.189c0-.35-.256-.636-.571-.636"/><path d="M43.696 45.5c-1.123 0-2.036-.943-2.036-2.102v-2.189c0-1.158.913-2.1 2.036-2.1s2.036.942 2.036 2.1v2.189c0 1.159-.913 2.101-2.036 2.101m0-4.927c-.315 0-.572.285-.572.636v2.189c0 .35.257.636.572.636s.571-.285.571-.636V41.21c0-.35-.256-.636-.571-.636"/><path d="M25 44.657c-7.942 0-14.403-6.462-14.403-14.404S17.058 15.85 25 15.85s14.404 6.461 14.404 14.403S32.942 44.657 25 44.657m0-27.342c-7.134 0-12.939 5.804-12.939 12.938s5.805 12.939 12.94 12.939 12.938-5.804 12.938-12.939S32.135 17.315 25 17.315"/><path d="M30.564 38.066H19.435c-.784 0-1.499-.399-1.912-1.066a2.23 2.23 0 0 1-.098-2.187l5.564-11.13A2.24 2.24 0 0 1 25 22.44c.858.001 1.628.477 2.012 1.244l5.564 11.128c.351.703.314 1.52-.098 2.188a2.23 2.23 0 0 1-1.912 1.066M25 23.906a.77.77 0 0 0-.7.433l-5.565 11.129a.77.77 0 0 0 .034.762.77.77 0 0 0 .666.371h11.129c.278 0 .52-.135.667-.371a.77.77 0 0 0 .034-.762l-5.564-11.13a.77.77 0 0 0-.7-.433"/><path d="M25 32.548a.73.73 0 0 1-.732-.732v-3.562a.732.732 0 1 1 1.465 0v3.562a.73.73 0 0 1-.732.732"/><path d="M25 34.915a.734.734 0 1 1 .28-1.41.75.75 0 0 1 .396.397.8.8 0 0 1 .056.28.734.734 0 0 1-.732.732"/><path d="M43.408 9.111h-8.79a2.2 2.2 0 0 1-2.197-2.197 2.2 2.2 0 0 1 2.197-2.197h8.79a2.2 2.2 0 0 1 2.197 2.197 2.2 2.2 0 0 1-2.197 2.197m-8.789-2.93a.733.733 0 0 0 0 1.465h8.79a.733.733 0 0 0 0-1.465Z"/></g><defs><clipPath id="clip0_44_201"><path fill="#fff" d="M0 0h50v50H0Z"/></clipPath></defs></svg>