<svg xmlns="http://www.w3.org/2000/svg" fill="none" overflow="visible" preserveAspectRatio="none" style="display:block" viewBox="0 0 50 45.338"><g id="Group" fill="var(--fill-0,white)"><path id="Vector" d="M25 42.305A.732.732 0 1 0 25.000017026163988 40.84.732.732 0 0 0 25 42.305"/><path id="Vector_2" d="M25 39.271a.73.73 0 0 0 .732-.732v-1.517a.732.732 0 1 0-1.465 0v1.517c0 .404.329.732.733.732"/><path id="Vector_3" d="M45.624 21.07a2.25 2.25 0 0 0 2.127 1.517c1.24 0 2.249-1.009 2.249-2.249s-1.01-2.25-2.25-2.25c-.983 0-1.821.636-2.126 1.518H40.9v-4.602h3.818c.195 0 .381-.078.518-.215l1.53-1.53A2.252 2.252 0 0 0 50 11.238c0-1.24-1.01-2.25-2.25-2.25a2.252 2.252 0 0 0-2.021 3.235l-1.315 1.316H40.9v-5.86c0-.903-.541-1.704-1.38-2.04l-2.18-.872a.98.98 0 0 0-1.054.216L32.19 9.079a.975.975 0 0 0-.183 1.127l1.135 2.27-4.846 2.907 1.832-3.663a.98.98 0 0 0-.184-1.125L27.498 8.15l3.613-4.515a.98.98 0 0 0 .182-.86.98.98 0 0 0-.582-.657L25.816.158A2.19 2.19 0 0 0 24.184.158l-5.116 2.047a.732.732 0 0 0 .544 1.36l5.116-2.047A.73.73 0 0 1 25.272 1.518l4.284 1.715-1.023 1.279-3.083-1.233a1.22 1.22 0 0 0-.903.001L12.902 7.938a1.22 1.22 0 0 0-.768 1.134v11.545c0 3.493.991 6.836 2.868 9.668a17.24 17.24 0 0 0 6.11 5.607l-.784 1.358c-6.038-3.3-9.763-9.56-9.763-16.484V7.68a.73.73 0 0 1 .46-.68l5.404-2.162a.732.732 0 0 0-.544-1.36l-5.403 2.161A2.19 2.19 0 0 0 9.1 7.68v5.86H5.586L4.27 12.223A2.252 2.252 0 0 0 2.25 8.989 2.25 2.25 0 0 0 0 11.238a2.252 2.252 0 0 0 3.235 2.021l1.53 1.53a.73.73 0 0 0 .518.214H9.1v4.602H4.376a2.25 2.25 0 0 0-2.127-1.517A2.25 2.25 0 0 0 0 20.339c0 1.241 1.009 2.25 2.25 2.25.983 0 1.821-.635 2.126-1.517h4.727c.023 1.56.226 3.103.6 4.602h-4.42a.73.73 0 0 0-.518.215l-1.53 1.53A2.252 2.252 0 0 0 0 29.438c0 1.24 1.009 2.25 2.25 2.25a2.252 2.252 0 0 0 2.021-3.235l1.315-1.316h4.542a20.245 20.245 0 0 0 9.468 11.381l-2.458 4.256a1.69 1.69 0 0 0 0 1.709c.31.535.862.855 1.48.855h2.226a.733.733 0 0 0 0-1.465h-2.226a.24.24 0 0 1-.212-.122.24.24 0 0 1 0-.244l6.383-11.054a.24.24 0 0 1 .211-.122c.052 0 .15.016.211.122l6.382 11.054a.24.24 0 0 1 0 .244.24.24 0 0 1-.212.122h-7.12a.732.732 0 0 0 0 1.465h7.12c.619 0 1.172-.32 1.48-.855a1.69 1.69 0 0 0 0-1.709l-2.456-4.255a20.24 20.24 0 0 0 9.467-11.381h4.542l1.315 1.314a2.252 2.252 0 0 0 2.021 3.235c1.24 0 2.25-1.009 2.25-2.249a2.252 2.252 0 0 0-3.235-2.021l-1.53-1.53a.73.73 0 0 0-.518-.215h-4.42c.374-1.499.577-3.042.6-4.602Zm2.127-10.617a.785.785 0 0 1 0 1.569.785.785 0 0 1 0-1.569m-46.286.785a.785.785 0 0 1 1.569 0 .785.785 0 0 1-1.569 0m.784 18.985a.785.785 0 0 1 0-1.569.785.785 0 0 1 0 1.569m0-9.1a.785.785 0 0 1 0-1.569.785.785 0 0 1 0 1.569m46.286 8.315a.785.785 0 0 1-1.569 0 .785.785 0 0 1 1.569 0m-.784-9.884a.785.785 0 0 1 0 1.569.785.785 0 0 1 0-1.569M29.672 37.25l-.784-1.358a17.23 17.23 0 0 0 6.11-5.607c1.876-2.83 2.868-6.174 2.868-9.668v-2.181a.732.732 0 1 0-1.465 0v2.181c0 3.206-.907 6.269-2.624 8.858a15.77 15.77 0 0 1-5.622 5.148L26.48 31.72a1.69 1.69 0 0 0-1.48-.854c-.618 0-1.171.32-1.48.854l-1.675 2.902a15.77 15.77 0 0 1-5.622-5.148c-1.717-2.59-2.625-5.654-2.625-8.858V9.237L25 4.677l2.577 1.03-1.499 1.872a.98.98 0 0 0 .075 1.297l2.506 2.507-2.423 4.844a.97.97 0 0 0 .21 1.153.97.97 0 0 0 1.167.12l6.673-4.003a.98.98 0 0 0 .368-1.273l-1.18-2.358L34.76 8.58l1.641.657v5.782a.732.732 0 1 0 1.465 0V9.072c0-.503-.3-.948-.767-1.135l-1.212-.484 1.207-1.207 1.88.753a.73.73 0 0 1 .46.68v13.086c0 6.924-3.724 13.183-9.762 16.484"/></g></svg>