<svg xmlns="http://www.w3.org/2000/svg" width="50" height="50" viewBox="0 0 50 50" fill="none">
<g clip-path="url(#clip0_44_201)">
<path d="M49.2673 35.4461C48.8627 35.4461 48.5349 35.1183 48.5349 34.7137V6.59192C48.5349 3.76497 46.2349 1.46497 43.4079 1.46497H14.5176C14.113 1.46497 13.7852 1.13713 13.7852 0.732544C13.7852 0.327954 14.113 0.00012207 14.5176 0.00012207H43.4079C47.0427 0.00012207 49.9997 2.95715 49.9997 6.59192V34.7137C49.9997 35.1182 49.6719 35.4461 49.2673 35.4461Z" fill="white"/>
<path d="M43.4082 50H6.5918C2.95703 50 0 47.043 0 43.4082V6.5918C0 2.95703 2.95703 0 6.5918 0H11.0999C11.5045 0 11.8323 0.327832 11.8323 0.732422C11.8323 1.13701 11.5045 1.46484 11.0999 1.46484H6.5918C3.76484 1.46484 1.46484 3.76484 1.46484 6.5918V43.4082C1.46484 46.2352 3.76484 48.5352 6.5918 48.5352H43.4082C46.2352 48.5352 48.5352 46.2352 48.5352 43.4082V38.1315C48.5352 37.727 48.863 37.3991 49.2676 37.3991C49.6722 37.3991 50 37.727 50 38.1315V43.4082C50 47.043 47.043 50 43.4082 50Z" fill="white"/>
<path d="M49.2677 13.1837H0.884766C0.480176 13.1837 0.152344 12.8559 0.152344 12.4513C0.152344 12.0467 0.480176 11.7189 0.884766 11.7189H49.2677C49.6723 11.7189 50.0001 12.0467 50.0001 12.4513C50.0001 12.8559 49.6723 13.1837 49.2677 13.1837Z" fill="white"/>
<path d="M8.05664 9.11145C6.84512 9.11145 5.85938 8.12571 5.85938 6.91418C5.85938 5.70266 6.84512 4.71692 8.05664 4.71692C9.26816 4.71692 10.2539 5.70266 10.2539 6.91418C10.2539 8.12571 9.26816 9.11145 8.05664 9.11145ZM8.05664 6.18176C7.65273 6.18176 7.32422 6.51028 7.32422 6.91418C7.32422 7.31809 7.65273 7.64661 8.05664 7.64661C8.46055 7.64661 8.78906 7.31809 8.78906 6.91418C8.78906 6.51028 8.46055 6.18176 8.05664 6.18176Z" fill="white"/>
<path d="M13.916 9.11145C12.7045 9.11145 11.7188 8.12571 11.7188 6.91418C11.7188 5.70266 12.7045 4.71692 13.916 4.71692C15.1275 4.71692 16.1133 5.70266 16.1133 6.91418C16.1133 8.12571 15.1275 9.11145 13.916 9.11145ZM13.916 6.18176C13.5121 6.18176 13.1836 6.51028 13.1836 6.91418C13.1836 7.31809 13.5121 7.64661 13.916 7.64661C14.3199 7.64661 14.6484 7.31809 14.6484 6.91418C14.6484 6.51028 14.3199 6.18176 13.916 6.18176Z" fill="white"/>
<path d="M19.7754 9.11145C18.5639 9.11145 17.5781 8.12571 17.5781 6.91418C17.5781 5.70266 18.5639 4.71692 19.7754 4.71692C20.9869 4.71692 21.9727 5.70266 21.9727 6.91418C21.9727 8.12571 20.9869 9.11145 19.7754 9.11145ZM19.7754 6.18176C19.3715 6.18176 19.043 6.51028 19.043 6.91418C19.043 7.31809 19.3715 7.64661 19.7754 7.64661C20.1793 7.64661 20.5078 7.31809 20.5078 6.91418C20.5078 6.51028 20.1793 6.18176 19.7754 6.18176Z" fill="white"/>
<path d="M10.4771 16.3702H11.4407V21.1031" fill="white"/>
<path d="M11.4407 21.8354C11.0361 21.8354 10.7083 21.5076 10.7083 21.103V17.1025H10.4771C10.0725 17.1025 9.74463 16.7747 9.74463 16.3701C9.74463 15.9655 10.0725 15.6377 10.4771 15.6377H11.4407C11.8453 15.6377 12.1731 15.9655 12.1731 16.3701V21.103C12.1731 21.5075 11.8453 21.8354 11.4407 21.8354Z" fill="white"/>
<path d="M6.38047 21.9318C5.25772 21.9318 4.34424 20.9893 4.34424 19.8307V17.642C4.34424 16.4835 5.25772 15.5409 6.38047 15.5409C7.50322 15.5409 8.4167 16.4834 8.4167 17.642V19.8307C8.4167 20.9893 7.50322 21.9318 6.38047 21.9318ZM6.38047 17.0058C6.06543 17.0058 5.80908 17.2913 5.80908 17.6421V19.8308C5.80908 20.1816 6.06543 20.4671 6.38047 20.4671C6.69551 20.4671 6.95186 20.1816 6.95186 19.8308V17.6421C6.95186 17.2913 6.69551 17.0058 6.38047 17.0058Z" fill="white"/>
<path d="M14.9867 21.6777C14.8339 21.6777 14.6798 21.6302 14.5481 21.5314C14.0221 21.1373 13.708 20.5015 13.708 19.831V17.6416C13.708 16.4833 14.6215 15.5409 15.7441 15.5409C16.8669 15.5409 17.7804 16.4832 17.7804 17.6416V19.1318C17.7804 19.5364 17.4525 19.8642 17.0479 19.8642C16.6434 19.8642 16.3155 19.5364 16.3155 19.1318V17.6416C16.3155 17.291 16.0592 17.0057 15.7441 17.0057C15.4291 17.0057 15.1729 17.291 15.1729 17.6416V19.831C15.1729 20.0427 15.2677 20.2401 15.4265 20.3592C15.7502 20.6017 15.8159 21.0608 15.5734 21.3844C15.4295 21.5765 15.2095 21.6777 14.9867 21.6777Z" fill="white"/>
<path d="M11.1328 29.7871C10.0102 29.7871 9.09668 28.8448 9.09668 27.6865V25.498C9.09668 24.3393 10.0102 23.3965 11.1328 23.3965C11.9945 23.3965 12.7665 23.9601 13.0534 24.799C13.1843 25.1818 12.9802 25.5982 12.5975 25.7291C12.2146 25.8597 11.7983 25.656 11.6674 25.2731C11.5832 25.0269 11.3683 24.8612 11.1328 24.8612C10.8178 24.8612 10.5615 25.1469 10.5615 25.4979V27.6864C10.5615 28.037 10.8178 28.3222 11.1328 28.3222C11.1673 28.3222 11.2019 28.3187 11.2357 28.3117C11.6317 28.2307 12.019 28.4859 12.1004 28.8822C12.1815 29.2785 11.9262 29.6655 11.5299 29.7469C11.3993 29.7735 11.2658 29.7871 11.1328 29.7871Z" fill="white"/>
<path d="M6.08252 24.2256H7.04619V28.9585" fill="white"/>
<path d="M7.04619 29.691C6.6416 29.691 6.31377 29.3632 6.31377 28.9586V24.9581H6.08252C5.67793 24.9581 5.3501 24.6303 5.3501 24.2257C5.3501 23.8211 5.67793 23.4933 6.08252 23.4933H7.04619C7.45078 23.4933 7.77861 23.8211 7.77861 24.2257V28.9586C7.77861 29.3632 7.45078 29.691 7.04619 29.691Z" fill="white"/>
<path d="M38.499 16.3702H39.4627V21.1031" fill="white"/>
<path d="M39.4627 21.8354C39.0581 21.8354 38.7303 21.5076 38.7303 21.103V17.1025H38.499C38.0944 17.1025 37.7666 16.7747 37.7666 16.3701C37.7666 15.9655 38.0944 15.6377 38.499 15.6377H39.4627C39.8673 15.6377 40.1951 15.9655 40.1951 16.3701V21.103C40.1951 21.5075 39.8672 21.8354 39.4627 21.8354Z" fill="white"/>
<path d="M35.0701 21.7384C34.8258 21.7384 34.587 21.6162 34.4481 21.3936C34.234 21.0504 34.3386 20.5986 34.6817 20.3845C34.8619 20.2721 34.9737 20.0601 34.9737 19.8311V17.6417C34.9737 17.2911 34.7175 17.0058 34.4024 17.0058C34.0874 17.0058 33.8311 17.2911 33.8311 17.6417V19.2383C33.8311 19.6428 33.5032 19.9707 33.0986 19.9707C32.694 19.9707 32.3662 19.6428 32.3662 19.2383V17.6416C32.3662 16.4833 33.2797 15.5409 34.4024 15.5409C35.5251 15.5409 36.4386 16.4832 36.4386 17.6416V19.831C36.4386 20.5722 36.0717 21.2437 35.4572 21.6271C35.3366 21.7024 35.2026 21.7384 35.0701 21.7384Z" fill="white"/>
<path d="M43.2139 24.2256H44.1775V28.9585" fill="white"/>
<path d="M44.1775 29.691C43.773 29.691 43.4451 29.3632 43.4451 28.9586V24.9581H43.2139C42.8093 24.9581 42.4814 24.6303 42.4814 24.2257C42.4814 23.8211 42.8093 23.4933 43.2139 23.4933H44.1775C44.5821 23.4933 44.91 23.8211 44.91 24.2257V28.9586C44.91 29.3632 44.582 29.691 44.1775 29.691Z" fill="white"/>
<path d="M43.6959 21.9318C42.5731 21.9318 41.6597 20.9893 41.6597 19.8307V17.642C41.6597 16.4835 42.5731 15.5409 43.6959 15.5409C44.8187 15.5409 45.7321 16.4834 45.7321 17.642V19.8307C45.7321 20.9893 44.8187 21.9318 43.6959 21.9318ZM43.6959 17.0058C43.3809 17.0058 43.1245 17.2913 43.1245 17.6421V19.8308C43.1245 20.1816 43.3809 20.4671 43.6959 20.4671C44.0109 20.4671 44.2673 20.1816 44.2673 19.8308V17.6421C44.2673 17.2913 44.0109 17.0058 43.6959 17.0058Z" fill="white"/>
<path d="M38.9801 29.7871C38.7848 29.7871 38.5902 29.7581 38.4015 29.701C38.0144 29.5837 37.7957 29.1748 37.913 28.7876C38.0302 28.4003 38.4389 28.1816 38.8263 28.299C38.8771 28.3144 38.9289 28.3222 38.9801 28.3222C39.2952 28.3222 39.5514 28.037 39.5514 27.6864V25.498C39.5514 25.147 39.2952 24.8613 38.9801 24.8613C38.7174 24.8613 38.4834 25.0681 38.4235 25.3528C38.3401 25.7487 37.9517 26.0017 37.556 25.9189C37.1601 25.8356 36.9068 25.4474 36.9899 25.0515C37.1915 24.0925 38.0286 23.3965 38.9801 23.3965C40.1028 23.3965 41.0163 24.3392 41.0163 25.498V27.6865C41.0163 28.8447 40.1028 29.7871 38.9801 29.7871Z" fill="white"/>
<path d="M5.4165 32.0815H6.38018V36.8144" fill="white"/>
<path d="M6.38018 37.5468C5.97559 37.5468 5.64775 37.2189 5.64775 36.8143V32.8138H5.4165C5.01191 32.8138 4.68408 32.486 4.68408 32.0814C4.68408 31.6768 5.01191 31.349 5.4165 31.349H6.38018C6.78477 31.349 7.1126 31.6768 7.1126 32.0814V36.8143C7.1126 37.2188 6.78477 37.5468 6.38018 37.5468Z" fill="white"/>
<path d="M10.7744 37.6438C9.65176 37.6438 8.73828 36.7011 8.73828 35.5422V33.3537C8.73828 32.1949 9.65176 31.2521 10.7744 31.2521C11.1638 31.2521 11.5422 31.3658 11.8688 31.581C12.2065 31.8035 12.3 32.2578 12.0774 32.5955C11.855 32.9334 11.4007 33.027 11.0629 32.8042C10.9762 32.7471 10.8765 32.7169 10.7744 32.7169C10.4594 32.7169 10.2031 33.0026 10.2031 33.3537V35.5422C10.2031 35.8933 10.4594 36.1789 10.7744 36.1789C11.0895 36.1789 11.3457 35.8933 11.3457 35.5422V34.7258C11.3457 34.3212 11.6735 33.9934 12.0781 33.9934C12.4827 33.9934 12.8105 34.3212 12.8105 34.7258V35.5422C12.8105 36.701 11.8971 37.6438 10.7744 37.6438Z" fill="white"/>
<path d="M10.4771 39.9369H11.4407V44.6698" fill="white"/>
<path d="M11.4407 45.4023C11.0361 45.4023 10.7083 45.0745 10.7083 44.6699V40.6694H10.4771C10.0725 40.6694 9.74463 40.3416 9.74463 39.937C9.74463 39.5324 10.0725 39.2046 10.4771 39.2046H11.4407C11.8453 39.2046 12.1731 39.5324 12.1731 39.937V44.6699C12.1731 45.0745 11.8453 45.4023 11.4407 45.4023Z" fill="white"/>
<path d="M6.38047 45.4991C5.25772 45.4991 4.34424 44.5566 4.34424 43.398V41.2092C4.34424 40.0507 5.25772 39.1082 6.38047 39.1082C7.50322 39.1082 8.4167 40.0506 8.4167 41.2092V43.398C8.4167 44.5566 7.50322 45.4991 6.38047 45.4991ZM6.38047 40.5731C6.06543 40.5731 5.80908 40.8585 5.80908 41.2093V43.3981C5.80908 43.7489 6.06543 44.0343 6.38047 44.0343C6.69551 44.0343 6.95186 43.7489 6.95186 43.3981V41.2093C6.95186 40.8585 6.69551 40.5731 6.38047 40.5731Z" fill="white"/>
<path d="M15.7441 45.4993C14.6215 45.4993 13.708 44.5565 13.708 43.3976V41.2092C13.708 40.3126 14.2599 39.5145 15.0813 39.223C15.4624 39.0875 15.8812 39.287 16.0165 39.6684C16.1518 40.0496 15.9524 40.4683 15.5711 40.6036C15.3329 40.688 15.1729 40.9315 15.1729 41.2092V43.3976C15.1729 43.7488 15.4291 44.0344 15.7441 44.0344C16.0592 44.0344 16.3155 43.7488 16.3155 43.3976V41.3751C16.3155 40.9706 16.6434 40.6427 17.0479 40.6427C17.4525 40.6427 17.7804 40.9706 17.7804 41.3751V43.3976C17.7803 44.5565 16.8669 45.4993 15.7441 45.4993Z" fill="white"/>
<path d="M38.499 39.9369H39.4627V44.6698" fill="white"/>
<path d="M39.4627 45.4023C39.0581 45.4023 38.7303 45.0745 38.7303 44.6699V40.6694H38.499C38.0944 40.6694 37.7666 40.3416 37.7666 39.937C37.7666 39.5324 38.0944 39.2046 38.499 39.2046H39.4627C39.8673 39.2046 40.1951 39.5324 40.1951 39.937V44.6699C40.1951 45.0745 39.8672 45.4023 39.4627 45.4023Z" fill="white"/>
<path d="M34.4024 45.4993C33.2797 45.4993 32.3662 44.5565 32.3662 43.3976V41.2677C32.3662 40.8631 32.694 40.5353 33.0986 40.5353C33.5032 40.5353 33.8311 40.8631 33.8311 41.2677V43.3976C33.8311 43.7488 34.0874 44.0344 34.4024 44.0344C34.7175 44.0344 34.9737 43.7488 34.9737 43.3976V41.2092C34.9737 40.9151 34.7866 40.6543 34.5288 40.5892C34.1365 40.4902 33.8989 40.0919 33.998 39.6998C34.0971 39.3076 34.4957 39.0699 34.8873 39.169C35.8007 39.3995 36.4385 40.2385 36.4385 41.2092V43.3976C36.4386 44.5565 35.5251 45.4993 34.4024 45.4993Z" fill="white"/>
<path d="M43.6959 37.6435C42.5731 37.6435 41.6597 36.701 41.6597 35.5424V33.3536C41.6597 32.1951 42.5731 31.2526 43.6959 31.2526C44.8187 31.2526 45.7321 32.195 45.7321 33.3536V35.5424C45.7321 36.7009 44.8187 37.6435 43.6959 37.6435ZM43.6959 32.7174C43.3809 32.7174 43.1245 33.0029 43.1245 33.3536V35.5424C43.1245 35.8932 43.3809 36.1786 43.6959 36.1786C44.0109 36.1786 44.2673 35.8932 44.2673 35.5424V33.3536C44.2673 33.0029 44.0109 32.7174 43.6959 32.7174Z" fill="white"/>
<path d="M43.6959 45.4991C42.5731 45.4991 41.6597 44.5566 41.6597 43.398V41.2092C41.6597 40.0507 42.5731 39.1082 43.6959 39.1082C44.8187 39.1082 45.7321 40.0506 45.7321 41.2092V43.398C45.7321 44.5566 44.8187 45.4991 43.6959 45.4991ZM43.6959 40.5731C43.3809 40.5731 43.1245 40.8585 43.1245 41.2093V43.3981C43.1245 43.7489 43.3809 44.0343 43.6959 44.0343C44.0109 44.0343 44.2673 43.7489 44.2673 43.3981V41.2093C44.2673 40.8585 44.0109 40.5731 43.6959 40.5731Z" fill="white"/>
<path d="M25.0003 44.6569C17.0581 44.6569 10.5967 38.1954 10.5967 30.2532C10.5967 22.3112 17.0581 15.8497 25.0003 15.8497C32.9425 15.8497 39.4039 22.3112 39.4039 30.2532C39.4039 38.1954 32.9425 44.6569 25.0003 44.6569ZM25.0003 17.3146C17.8658 17.3146 12.0615 23.1189 12.0615 30.2532C12.0615 37.3876 17.8658 43.192 25.0003 43.192C32.1348 43.192 37.9391 37.3876 37.9391 30.2532C37.9391 23.1189 32.1348 17.3146 25.0003 17.3146Z" fill="white"/>
<path d="M30.5644 38.0659H19.4356C18.6509 38.0659 17.936 37.6674 17.5234 36.9997C17.1107 36.3322 17.0739 35.5145 17.4249 34.8125L22.9893 23.6837C23.3726 22.9172 24.143 22.441 25 22.441C25.857 22.441 26.6274 22.9172 27.0107 23.6837L32.5751 34.8124C32.9261 35.5145 32.8893 36.3323 32.4766 36.9997C32.0641 37.6674 31.3492 38.0659 30.5644 38.0659ZM25 23.9059C24.6969 23.9059 24.4351 24.0677 24.2994 24.3389L18.7351 35.4676C18.6109 35.7157 18.6234 35.9936 18.7694 36.2297C18.9153 36.4657 19.1581 36.6012 19.4356 36.6012H30.5645C30.842 36.6012 31.0848 36.4657 31.2307 36.2297C31.3766 35.9936 31.3891 35.7157 31.265 35.4675L25.7007 24.3389C25.5649 24.0677 25.3031 23.9059 25 23.9059Z" fill="white"/>
<path d="M25.0005 32.5475C24.5959 32.5475 24.2681 32.2197 24.2681 31.8151V28.2533C24.2681 27.8487 24.5959 27.5209 25.0005 27.5209C25.4051 27.5209 25.7329 27.8487 25.7329 28.2533V31.8151C25.7329 32.2197 25.4051 32.5475 25.0005 32.5475Z" fill="white"/>
<path d="M25.0005 34.9145C24.8071 34.9145 24.6187 34.8364 24.4829 34.6997C24.3462 34.5639 24.2681 34.3746 24.2681 34.1821C24.2681 34.1342 24.2729 34.0865 24.2826 34.0385C24.2915 33.9917 24.3061 33.9458 24.3236 33.9018C24.3422 33.858 24.3647 33.8149 24.391 33.7749C24.4184 33.7348 24.4486 33.6977 24.4828 33.6635C24.6526 33.4936 24.9057 33.4155 25.143 33.4633C25.1897 33.4731 25.2357 33.4867 25.2807 33.5053C25.3245 33.5238 25.3676 33.5463 25.4066 33.5726C25.4466 33.5991 25.4848 33.6303 25.518 33.6635C25.5521 33.6977 25.5824 33.7347 25.6098 33.7749C25.6361 33.8149 25.6586 33.858 25.6771 33.9018C25.6946 33.9458 25.7093 33.9917 25.7181 34.0385C25.7279 34.0864 25.7327 34.1341 25.7327 34.1821C25.7327 34.3754 25.6546 34.5639 25.5179 34.6997C25.4847 34.7339 25.4466 34.7641 25.4065 34.7906C25.3675 34.817 25.3244 34.8394 25.2806 34.8579C25.2356 34.8764 25.1896 34.8901 25.1429 34.9C25.0961 34.9096 25.0483 34.9145 25.0005 34.9145Z" fill="white"/>
<path d="M43.4082 9.11145H34.6191C33.4076 9.11145 32.4219 8.12571 32.4219 6.91418C32.4219 5.70266 33.4076 4.71692 34.6191 4.71692H43.4082C44.6197 4.71692 45.6055 5.70266 45.6055 6.91418C45.6055 8.12571 44.6197 9.11145 43.4082 9.11145ZM34.6191 6.18176C34.2152 6.18176 33.8867 6.51028 33.8867 6.91418C33.8867 7.31809 34.2152 7.64661 34.6191 7.64661H43.4082C43.8121 7.64661 44.1406 7.31809 44.1406 6.91418C44.1406 6.51028 43.8121 6.18176 43.4082 6.18176H34.6191Z" fill="white"/>
</g>
<defs>
<clipPath id="clip0_44_201">
<rect width="50" height="50" fill="white"/>
</clipPath>
</defs>
</svg>