<svg xmlns="http://www.w3.org/2000/svg" fill="none" overflow="visible" preserveAspectRatio="none" style="display:block" viewBox="0 0 50 50"><g id="data-loss 1" fill="var(--fill-0,white)" clip-path="url(#clip0_0_4)"><path id="Vector" d="M10.938 44.531H12.5v1.563h-1.563Z"/><path id="Vector_2" d="M10.938 38.281H12.5v4.688h-1.563Z"/><path id="Vector_3" d="M7.813 16.406v20.982L.907 48.013a.781.781 0 0 0 .655 1.206h20.313a.782.782 0 0 0 .656-1.207l-1.755-2.7h5.005a.78.78 0 0 0 .552-.229l6.25-6.25a.78.78 0 0 0 .229-.552V30.47h1.563a.78.78 0 0 0 .781-.781v-6.25a.78.78 0 0 0-.781-.781h-1.563v-3.125h1.563a.78.78 0 0 0 .781-.781V12.5a.78.78 0 0 0-.781-.781h-6.25a.78.78 0 0 0-.781.781v3.125H8.594a.78.78 0 0 0-.781.781m-4.81 31.25 8.716-13.41 8.716 13.41Zm23.56-5.01v-3.583h3.583Zm7.03-13.74h-4.688V24.22h4.688Zm-4.687-15.625h4.688v4.688h-4.688Zm-1.562 3.906v1.563a.78.78 0 0 0 .781.781h3.125v3.125h-3.125a.78.78 0 0 0-.781.781v6.25a.78.78 0 0 0 .781.781h3.125V37.5h-5.469a.78.78 0 0 0-.781.781v5.469h-5.24l-7.386-11.362a.81.81 0 0 0-1.31 0l-1.689 2.597V17.187Z"/><path id="Vector_4" d="M14.063 30.469h3.125a.78.78 0 0 0 .781-.781v-3.125a.78.78 0 0 0-.781-.781h-3.125a.78.78 0 0 0-.781.781v3.125a.78.78 0 0 0 .781.781m.78-3.125h1.562v1.562h-1.562Z"/><path id="Vector_5" d="M21.875 30.469H25a.78.78 0 0 0 .781-.781v-3.125a.78.78 0 0 0-.781-.781h-3.125a.78.78 0 0 0-.781.781v3.125a.78.78 0 0 0 .781.781m.781-3.125h1.563v1.562h-1.563Z"/><path id="Vector_6" d="M21.875 22.656H25a.78.78 0 0 0 .781-.781V18.75a.78.78 0 0 0-.781-.781h-3.125a.78.78 0 0 0-.781.781v3.125a.78.78 0 0 0 .781.781m.781-3.125h1.563v1.563h-1.563Z"/><path id="Vector_7" d="M15.625 24.219h3.125a.78.78 0 0 0 .781-.781v-3.125a.78.78 0 0 0-.781-.781h-3.125a.78.78 0 0 0-.781.781v3.125a.78.78 0 0 0 .781.781m.781-3.125h1.563v1.562h-1.563Z"/><path id="Vector_8" d="M36.719 23.438a.78.78 0 0 0 .781.781h6.25a.78.78 0 0 0 .781-.781v-6.25a.78.78 0 0 0-.781-.781H37.5a.78.78 0 0 0-.781.781Zm1.562-5.47h4.688v4.687H38.28Z"/><path id="Vector_9" d="M37.5 14.844h6.25a.78.78 0 0 0 .781-.781v-6.25a.78.78 0 0 0-.781-.781H37.5a.78.78 0 0 0-.781.781v6.25a.78.78 0 0 0 .781.781m.781-6.25h4.688v4.687H38.28Z"/><path id="Vector_10" d="M25.781 10.938a.78.78 0 0 0 .781-.781V5.47a.78.78 0 0 0-.781-.781h-4.687a.78.78 0 0 0-.781.781v4.687a.78.78 0 0 0 .781.781ZM21.875 6.25H25v3.125h-3.125Z"/><path id="Vector_11" d="M33.594 7.031a.78.78 0 0 0 .781-.781V1.562a.78.78 0 0 0-.781-.781h-4.688a.78.78 0 0 0-.781.781V6.25a.78.78 0 0 0 .781.781Zm-3.907-4.687h3.125v3.125h-3.125Z"/><path id="Vector_12" d="M48.438.781h-3.125a.78.78 0 0 0-.781.781v3.125a.78.78 0 0 0 .781.781h3.125a.78.78 0 0 0 .781-.781V1.563a.78.78 0 0 0-.781-.781m-.782 3.125h-1.562V2.343h1.562Z"/><path id="Vector_13" d="M28.125 35.156h1.563v1.563h-1.563Z"/><path id="Vector_14" d="M17.188 35.156h10.156v1.563H17.188Z"/><path id="Vector_15" d="M28.125 32.813h1.563v1.563h-1.563Z"/><path id="Vector_16" d="M17.188 32.813h10.156v1.563H17.188Z"/></g><defs><clipPath id="clip0_0_4"><path fill="#fff" d="M0 0h50v50H0Z"/></clipPath></defs></svg>