<svg xmlns="http://www.w3.org/2000/svg" fill="none" overflow="visible" preserveAspectRatio="none" style="display:block" viewBox="0 0 50 50"><g id="data-leak"><path id="Vector" fill="var(--fill-0,white)" fill-rule="evenodd" d="M.733 43.19a4.5 4.5 0 0 1-.047-.655V17.46c0-2.176 1.529-3.877 3.295-3.877h7.347q.285 0 .556.048l1.623-1.623a1.53 1.53 0 0 1 1.136-.476h14.209c.88 0 1.599.719 1.599 1.599v5.25h4.8v-1.84c0-3.869 3.162-7.034 7.03-7.034 3.867 0 7.033 3.165 7.033 7.033a.784.784 0 0 1-.784.784h-2.887a.784.784 0 0 1-.784-.784c0-1.428-1.153-2.605-2.578-2.605a2.616 2.616 0 0 0-2.602 2.605v1.84h1.463c1.062 0 1.924.866 1.924 1.925v12.159a1.925 1.925 0 0 1-1.925 1.925h-6.8l-5.099 10.228a3.17 3.17 0 0 1-2.896 1.792H3.98a3.16 3.16 0 0 1-2.751-1.533 3.2 3.2 0 0 1-.496-1.688m9.63-28.037H3.981c-1 0-1.726 1.075-1.726 2.307v21.924l5.667-11.367q.235-.47.579-.826v-9.516c0-.434.16-.82.47-1.13Zm18.513 3.228v-5.25a.024.024 0 0 0-.024-.024H15.097v3.825c0 .663-.534 1.197-1.197 1.197h-3.825v8.177q.359-.08.743-.081h13.1v-2.961h-10.15a.788.788 0 0 1 0-1.575h10.15v-1.383a1.93 1.93 0 0 1 1.927-1.925Zm-15.354-4.16-2.333 2.333h2.333Zm23.297 4.16h1.291v-1.84c0-2.29 1.883-4.173 4.17-4.173 2.022 0 3.707 1.467 4.073 3.389h1.336c-.384-2.638-2.67-4.68-5.408-4.68-3.006 0-5.462 2.459-5.462 5.464Zm-4.23 16.008h-6.744a1.93 1.93 0 0 1-1.927-1.925v-4.671h-13.1c-.648 0-1.203.344-1.492.924L2.489 42.43c-.11.221-.17.452-.18.681.186.972.832 1.73 1.672 1.73h22.366c.647 0 1.202-.343 1.491-.923Zm-7.102-11.843v9.918c0 .198.16.357.358.357h15.297c.196 0 .355-.16.355-.356V20.306a.356.356 0 0 0-.356-.356H25.845a.36.36 0 0 0-.358.356v2.1a1 1 0 0 1 0 .14m8.006-1.284a3.009 3.009 0 0 1 1.951 5.3v2.995c0 1.075-.88 1.951-1.95 1.951a1.954 1.954 0 0 1-1.95-1.951v-2.995a3 3 0 0 1-1.058-2.29c-.002-1.66 1.347-3.01 3.007-3.01m0 1.569a1.442 1.442 0 0 0-.755 2.667.78.78 0 0 1 .373.668v3.392a.383.383 0 0 0 .765 0v-3.392c0-.273.14-.525.372-.668.411-.254.683-.708.683-1.227a1.44 1.44 0 0 0-1.438-1.44m-8.31-6.397a.788.788 0 0 1 0 1.575H18.01a.788.788 0 0 1 0-1.575Zm2.945-9.83a.785.785 0 0 1 1.11-1.11l2.789 2.79a.785.785 0 0 1-1.11 1.11Zm10.283-1.109a.785.785 0 0 1 1.11 1.11l-2.79 2.789a.785.785 0 0 1-1.11-1.11Zm-5.371-1.12a.785.785 0 0 1 1.569 0v3.872a.785.785 0 0 1-1.569 0Z" clip-rule="evenodd"/></g></svg>