<svg xmlns="http://www.w3.org/2000/svg" preserveAspectRatio="none" width="100%" height="100%" overflow="visible" style="display: block" viewBox="0 0 50 50" fill="none">
<g id="data-leak">
<path id="Vector" fill-rule="evenodd" clip-rule="evenodd" d="M0.733431 43.1891C0.702451 42.9767 0.686274 42.7579 0.686274 42.5339V17.4602C0.686274 15.2851 2.2148 13.5842 3.98078 13.5842H11.328C11.5175 13.5842 11.7031 13.6002 11.8844 13.6315C12.7674 12.7485 13.5079 12.008 13.5072 12.0088C13.8201 11.6856 14.2059 11.5325 14.643 11.5325H28.8517C29.7318 11.5325 30.4508 12.2515 30.4508 13.1317V18.3811H35.2501V16.541C35.2501 12.673 38.4125 9.50785 42.2806 9.50785C46.1485 9.50785 49.3137 12.673 49.3137 16.541C49.3137 16.9742 48.9625 17.3253 48.5294 17.3253H45.6424C45.2092 17.3253 44.8581 16.9742 44.8581 16.541C44.8581 15.1133 43.7063 13.9364 42.2806 13.9364C40.8534 13.9364 39.6786 15.1118 39.6786 16.541V18.3811H41.1417C42.2044 18.3811 43.0662 19.2474 43.0662 20.3057V32.4646C43.0662 33.5274 42.2044 34.3892 41.1417 34.3892H34.3416L29.2421 44.6178C28.6811 45.743 27.6037 46.4097 26.3463 46.4097H3.98078C2.82735 46.4097 1.83627 45.8575 1.22931 44.8768C0.900588 44.3455 0.734706 43.7695 0.733431 43.1891ZM10.363 15.1529H3.98078C2.98049 15.1529 2.2549 16.2281 2.2549 17.4602V39.3839L7.92206 28.0169C8.07765 27.7048 8.27284 27.428 8.50069 27.191V17.6749C8.50069 17.2408 8.66029 16.8556 8.97039 16.5455C8.97039 16.5455 9.58569 15.9302 10.363 15.1529ZM28.876 18.3811V13.1317C28.876 13.1182 28.865 13.1073 28.8517 13.1073H15.097V16.9324C15.097 17.595 14.5631 18.1287 13.9005 18.1287H10.0755V26.306C10.3135 26.2526 10.562 26.2249 10.8177 26.2249H23.9178V23.2635H13.7683C13.3338 23.2635 12.981 22.9107 12.981 22.4761C12.981 22.0415 13.3338 21.6887 13.7683 21.6887H23.9178V20.3057C23.9178 19.2479 24.7827 18.3811 25.845 18.3811H28.876ZM13.5222 14.2209L11.189 16.5539H13.5222V14.2209ZM36.8187 18.3811H38.11V16.541C38.11 14.2506 39.9934 12.3678 42.2806 12.3678C44.3019 12.3678 45.9868 13.835 46.3529 15.7567H47.6885C47.3052 13.1194 45.0197 11.0765 42.2806 11.0765C39.2754 11.0765 36.8187 13.5359 36.8187 16.541V18.3811ZM32.5888 34.3892H25.845C24.7827 34.3892 23.9178 33.5269 23.9178 32.4646V27.7935H10.8177C10.1699 27.7935 9.6149 28.1371 9.32578 28.7168L2.48892 42.4302C2.37863 42.6514 2.31882 42.8816 2.30912 43.1115C2.495 44.0834 3.14118 44.8411 3.98078 44.8411H26.3463C26.9941 44.8411 27.5492 44.4977 27.8382 43.9179L32.5888 34.3892ZM25.4865 22.5463V32.4646C25.4865 32.6617 25.6479 32.8206 25.845 32.8206H41.1417C41.3382 32.8206 41.4975 32.6612 41.4975 32.4646V20.3057C41.4975 20.1099 41.3382 19.9497 41.1417 19.9497H25.845C25.6479 19.9497 25.4865 20.1094 25.4865 20.3057V22.406C25.4885 22.429 25.4895 22.4525 25.4895 22.4761C25.4895 22.4997 25.4885 22.5231 25.4865 22.5463ZM33.4933 21.2622C35.1539 21.2622 36.4999 22.6108 36.4999 24.2714C36.4999 25.1898 36.0913 26.0105 35.4443 26.5619V29.5572C35.4443 30.6323 34.564 31.5082 33.4933 31.5082C32.4183 31.5082 31.5424 30.6323 31.5424 29.5572V26.5621C30.8948 26.0106 30.4841 25.1897 30.4841 24.2714C30.4841 22.6111 31.833 21.2622 33.4933 21.2622ZM33.4933 22.8308C32.6985 22.8308 32.0527 23.4766 32.0527 24.2714C32.0527 24.7905 32.3272 25.2444 32.7383 25.498C32.9699 25.6408 33.111 25.8934 33.111 26.1656V29.5572C33.111 29.7679 33.2826 29.9396 33.4933 29.9396C33.7031 29.9396 33.8757 29.7679 33.8757 29.5572V26.1656C33.8757 25.8934 34.0168 25.6408 34.2483 25.498C34.6594 25.2445 34.9313 24.7903 34.9313 24.2714C34.9313 23.4768 34.2879 22.8308 33.4933 22.8308ZM25.183 16.4344C25.6176 16.4344 25.9705 16.7873 25.9705 17.2218C25.9705 17.6564 25.6176 18.0092 25.183 18.0092H18.0096C17.575 18.0092 17.2222 17.6564 17.2222 17.2218C17.2222 16.7873 17.575 16.4344 18.0096 16.4344H25.183ZM28.1284 6.60423C27.8223 6.29815 27.8223 5.80109 28.1284 5.49501C28.4345 5.18893 28.9315 5.18893 29.2375 5.49501L32.027 8.28442C32.3331 8.5905 32.3331 9.08756 32.027 9.39364C31.7209 9.69972 31.2239 9.69972 30.9178 9.39364L28.1284 6.60423ZM38.4111 5.49501C38.7172 5.18893 39.2142 5.18893 39.5203 5.49501C39.8264 5.80109 39.8264 6.29815 39.5203 6.60423L36.7309 9.39364C36.4248 9.69972 35.9277 9.69972 35.6217 9.39364C35.3156 9.08756 35.3156 8.5905 35.6217 8.28442L38.4111 5.49501ZM33.04 4.37462C33.04 3.94177 33.3915 3.5903 33.8243 3.5903C34.2573 3.5903 34.6086 3.94177 34.6086 4.37462V8.24668C34.6086 8.67952 34.2573 9.03099 33.8243 9.03099C33.3915 9.03099 33.04 8.67952 33.04 8.24668V4.37462Z" fill="var(--fill-0, white)"/>
</g>
</svg>