<svg xmlns="http://www.w3.org/2000/svg" fill="none" overflow="visible" preserveAspectRatio="none" style="display:block" viewBox="0 0 50 47.287"><g id="Group" fill="var(--fill-0,white)"><path id="Vector" d="M5.381 15.443a.986.986 0 0 0-1.276-.528.986.986 0 0 0-.528 1.276.985.985 0 0 0 1.276.528.986.986 0 0 0 .528-1.276"/><path id="Vector_2" d="M8.62 15.443a.986.986 0 0 0-1.276-.528.986.986 0 0 0-.528 1.276.986.986 0 0 0 1.276.528.985.985 0 0 0 .528-1.276"/><path id="Vector_3" d="M41.295 4.095c.25 0 .5-.095.69-.286l2.118-2.118A.977.977 0 1 0 42.721.31l-2.117 2.118a.977.977 0 0 0 .69 1.668"/><path id="Vector_4" d="m47.897 6.308-1.8 1.8a.977.977 0 0 0 0 1.381.987.987 0 0 0 1.382 0l1.8-1.8a.977.977 0 1 0-1.381-1.382"/><path id="Vector_5" d="M45.489 5.439c.25 0 .5-.096.69-.286l3.485-3.485A.977.977 0 0 0 48.284.286l-3.485 3.485a.977.977 0 0 0 .69 1.668"/><path id="Vector_6" d="M19.515 43.41c.54 0 .977-.437.977-.977v-1.365a8.285 8.285 0 0 0 7.235-7.235h1.365a.977.977 0 0 0 0-1.954h-1.365a8.285 8.285 0 0 0-7.235-7.235V23.28a.977.977 0 0 0-1.954 0v1.365a8.285 8.285 0 0 0-7.235 7.235H9.939a.977.977 0 0 0 0 1.954h1.365a8.285 8.285 0 0 0 7.235 7.235v1.365c0 .54.438.977.977.977m-6.242-9.577h1.232a.977.977 0 0 0 0-1.954h-1.232a6.33 6.33 0 0 1 5.265-5.265v1.232a.977.977 0 0 0 1.954 0v-1.232a6.33 6.33 0 0 1 5.265 5.265h-1.232a.977.977 0 0 0 0 1.954h1.232a6.33 6.33 0 0 1-5.265 5.265v-1.232a.977.977 0 0 0-1.954 0v1.232a6.33 6.33 0 0 1-5.265-5.265"/><path id="Vector_7" d="m49.41 13.679-9.014-3.75L36.521.786C36.199.026 35.09.003 34.738.75l-3.073 6.51a.98.98 0 0 0 .193 1.108l.93.93-2.017 2.017H3.273C1.498 11.315 0 12.814 0 14.59v29.423a3.28 3.28 0 0 0 3.273 3.274h11.898a.977.977 0 0 0 0-1.954H3.274c-.715 0-1.32-.605-1.32-1.32V20.208h23.38c-.3 1.278-.716 3.285.33 4.331.632.633 1.573.685 2.413.621a12.5 12.5 0 0 0 3.158-.652c2.088-.726 3.965-1.948 5.68-3.324v22.828c0 .716-.604 1.321-1.32 1.321H23.728a.977.977 0 0 0 0 1.954h11.866a3.28 3.28 0 0 0 3.273-3.274V19.45l2.037-2.036.93.93a.99.99 0 0 0 1.108.193l6.51-3.073c.75-.354.724-1.467-.041-1.785M37.395 18.16a21.8 21.8 0 0 1-4.375 3.365l-4.343-4.343a21.8 21.8 0 0 1 3.365-4.375l2.136-2.136 5.353 5.352Zm-6.347 4.333c-1.22.48-2.521.751-3.836.72-.142-.004-.22-.084-.223-.223-.033-1.361.26-2.704.77-3.962l3.415 3.414Zm4.526-18.938 2.923 6.897-.864.864-3.907-3.845ZM1.955 14.59c0-.74.617-1.274 1.323-1.32h25.754c-1.223 1.523-2.325 3.17-3.068 4.984H1.954Zm40.775 1.887L39.013 12.7l.868-.868 6.747 2.806Z"/><path id="Vector_8" d="M20.417 45.936a.99.99 0 0 0-.974-.6.99.99 0 0 0-.88.76c-.193.853.8 1.513 1.514 1.012a.984.984 0 0 0 .34-1.172"/></g></svg>