<svg xmlns="http://www.w3.org/2000/svg" preserveAspectRatio="none" width="100%" height="100%" overflow="visible" style="display: block" viewBox="0 0 37.6471 37.667" fill="none">
<g id="_x32_1">
<path id="Vector" d="M25.0588 31.8435C25.4118 31.8435 25.6471 31.6082 25.6471 31.2552C25.6471 30.9023 25.4118 30.667 25.0588 30.667H12.5882C12.2353 30.667 12 30.9023 12 31.2552C12 31.6082 12.2353 31.8435 12.5882 31.8435H25.0588Z" fill="var(--fill-0, white)"/>
<path id="Vector_2" d="M26.2353 33.2553H11.4118C11.0588 33.2553 10.8235 33.4906 10.8235 33.8435C10.8235 34.1964 11.0588 34.4317 11.4118 34.4317H15C15.2941 36.2553 16.8824 37.667 18.8235 37.667C20.7647 37.667 22.3529 36.2553 22.6471 34.3729H26.2353C26.5882 34.3729 26.8235 34.1376 26.8235 33.7847C26.8235 33.4317 26.5882 33.2553 26.2353 33.2553ZM18.8235 36.4906C17.5294 36.4906 16.4706 35.6082 16.2353 34.3729H21.4706C21.1765 35.6082 20.1177 36.4906 18.8235 36.4906Z" fill="var(--fill-0, white)"/>
<path id="Vector_3" d="M25.1177 6.66702L23.4706 7.3729C22.7059 6.66702 21.8235 6.1376 20.8235 5.84349L20.5882 4.07878C20.5882 3.78466 20.3529 3.54937 20.0588 3.54937H17.5882C17.2941 3.54937 17.0588 3.78466 17 4.07878L16.7647 5.84349C15.7647 6.1376 14.8824 6.66702 14.1177 7.3729L12.5294 6.66702C12.2353 6.54937 11.9412 6.66702 11.7647 6.90231L10.5294 9.07878C10.3529 9.31408 10.4706 9.66702 10.7059 9.84349L12.1177 10.9023C11.8824 11.9023 11.8824 12.9611 12.1177 13.9611L10.7059 15.02C10.4706 15.1964 10.4118 15.5494 10.5294 15.7847L11.7647 17.9611C11.9412 18.1964 12.2353 18.3141 12.5294 18.1964L14.1177 17.4905C14.8824 18.1964 15.7647 18.7258 16.7647 19.02L17 20.7847C17.0588 21.0788 17.2941 21.3141 17.5882 21.3141H20.0588C20.3529 21.3141 20.5882 21.0788 20.6471 20.7847L20.8824 19.02C21.8824 18.7258 22.7647 18.1964 23.5294 17.4905L25.1765 18.1964C25.4706 18.3141 25.7647 18.1964 25.9412 17.9611L27.1765 15.7847C27.3529 15.5494 27.2353 15.1964 27 15.02L25.5882 13.9611C25.8235 12.9611 25.8235 11.9023 25.5882 10.9023L27 9.84349C27.2353 9.66702 27.2941 9.31408 27.1765 9.07878L25.9412 6.90231C25.7059 6.60819 25.3529 6.54937 25.1177 6.66702ZM24.5294 10.1376C24.3529 10.3141 24.2353 10.5494 24.2941 10.7847C24.5882 11.7847 24.5882 12.9611 24.2941 13.9611C24.2353 14.1964 24.2941 14.4317 24.5294 14.6082L25.8235 15.6082L25.1177 16.8435L23.5882 16.1964C23.3529 16.0788 23.1177 16.1376 22.9412 16.3141C22.1765 17.0788 21.2353 17.667 20.1765 17.9023C19.9412 17.9611 19.7647 18.1376 19.7059 18.4317L19.5294 20.02H18.1177L17.9412 18.3729C17.9412 18.1376 17.7059 17.9023 17.4706 17.8435C16.4118 17.667 15.4706 17.0788 14.7059 16.3141C14.5294 16.1376 14.2941 16.0788 14.0588 16.1964L12.5882 16.8435L11.8824 15.6082L13.1765 14.6082C13.3529 14.4317 13.4706 14.1964 13.4118 13.9611C13.1177 12.9611 13.1177 11.8435 13.4118 10.7847C13.4706 10.5494 13.4118 10.3141 13.1765 10.1376L11.8824 9.13761L12.5882 7.90231L14.0588 8.54937C14.2941 8.66702 14.5294 8.60819 14.7059 8.43172C15.4706 7.66702 16.4118 7.07878 17.4706 6.84349C17.7059 6.78466 17.8824 6.60819 17.9412 6.31408L18.1177 4.66702H19.5294L19.7059 6.31408C19.7059 6.54937 19.9412 6.78466 20.1765 6.84349C21.2353 7.07878 22.1765 7.66702 22.9412 8.43172C23.1177 8.60819 23.3529 8.66702 23.5882 8.54937L25.1177 7.90231L25.8235 9.13761L24.5294 10.1376Z" fill="var(--fill-0, white)"/>
<path id="Vector_4" d="M18.8235 8.72584C16.7647 8.72584 15.1177 10.3729 15.1177 12.4317C15.1177 14.4905 16.7647 16.1376 18.8235 16.1376C20.8235 16.1376 22.5294 14.4905 22.5294 12.4317C22.5294 10.3729 20.8824 8.72584 18.8235 8.72584ZM18.8235 14.9023C17.4706 14.9023 16.2941 13.7847 16.2941 12.3729C16.2941 11.02 17.4118 9.84349 18.8235 9.84349C20.1765 9.84349 21.3529 10.9611 21.3529 12.3729C21.3529 13.7847 20.1765 14.9023 18.8235 14.9023Z" fill="var(--fill-0, white)"/>
<path id="Vector_5" d="M35.2941 0.0199533C34 0.0199533 32.9412 1.07878 32.9412 2.37289C32.9412 3.49054 33.7059 4.37289 34.7059 4.66701V7.19642C34.7059 7.54936 34.4706 7.78466 34.1176 7.78466H30.2353C28.4118 3.49054 24.1765 0.314071 19.5294 0.0199533C16.4118 -0.156517 13.4118 0.843483 11 2.78466H3.52941C2.52941 2.78466 1.76471 3.54936 1.76471 4.54936V7.07878C0.764706 7.31407 0 8.25525 0 9.37289C0 10.667 1.05882 11.7258 2.35294 11.7258C3.64706 11.7258 4.70588 10.667 4.70588 9.37289C4.70588 8.25525 3.94118 7.37289 2.94118 7.07878V4.60819C2.94118 4.25525 3.17647 4.01995 3.52941 4.01995H9.70588C7.52941 6.31407 6.35294 9.31407 6.35294 12.4905C6.35294 19.4905 10.5294 19.7258 11.7059 26.02H5.23529C4.88235 26.02 4.64706 25.7847 4.64706 25.4317V23.4905C5.64706 23.2552 6.41176 22.3141 6.41176 21.1964C6.41176 19.9023 5.35294 18.8435 4.05882 18.8435C2.76471 18.8435 1.70588 19.9023 1.70588 21.1964C1.70588 22.3141 2.47059 23.1964 3.47059 23.4905V25.4317C3.47059 26.4317 4.23529 27.1964 5.23529 27.1964H11.8824C11.9412 27.7258 12 28.1964 12 28.7258C12 29.0788 12.2353 29.3141 12.5882 29.3141H25.0588C25.4118 29.3141 25.6471 29.0788 25.6471 28.7258C25.6471 28.6082 25.5882 27.667 25.9412 26.02H28.4118C28.7647 26.02 29 25.7847 29 25.4317C29 25.0788 28.7647 24.8435 28.4118 24.8435H26.2353C27.8235 19.6082 31.5294 18.5494 31.2941 12.02C31.2353 10.9611 31.0588 9.90231 30.7647 8.90231H34.1176C35.1176 8.90231 35.8824 8.1376 35.8824 7.1376V4.66701C36.8824 4.43172 37.6471 3.49054 37.6471 2.37289C37.6471 1.07878 36.5882 0.0199533 35.2941 0.0199533ZM3.52941 9.37289C3.52941 10.02 3 10.5494 2.35294 10.5494C1.70588 10.5494 1.17647 10.02 1.17647 9.37289C1.17647 8.72583 1.70588 8.19642 2.35294 8.19642C3 8.19642 3.52941 8.72583 3.52941 9.37289ZM2.88235 21.1964C2.88235 20.5494 3.41176 20.02 4.05882 20.02C4.70588 20.02 5.23529 20.5494 5.23529 21.1964C5.23529 21.8435 4.70588 22.3729 4.05882 22.3729C3.41176 22.3729 2.88235 21.8435 2.88235 21.1964ZM24.4706 28.1376H21.2353V25.0788C21.2353 24.7258 21 24.4905 20.6471 24.4905C20.2941 24.4905 20.0588 24.7258 20.0588 25.0788V28.1376H17.5882V23.9023C17.5882 23.5494 17.3529 23.3141 17 23.3141C16.6471 23.3141 16.4118 23.5494 16.4118 23.9023V28.1376H13.1765C12.8824 19.7258 7.52941 19.667 7.52941 12.4905C7.52941 6.01995 12.9412 0.843483 19.4118 1.19642C24.8824 1.49054 29.8824 6.54936 30.0588 12.0788C30.3529 19.2552 24.7647 20.02 24.4706 28.1376ZM35.2941 3.54936C34.6471 3.54936 34.1176 3.01995 34.1176 2.37289C34.1176 1.72584 34.6471 1.19642 35.2941 1.19642C35.9412 1.19642 36.4706 1.72584 36.4706 2.37289C36.4706 3.01995 35.9412 3.54936 35.2941 3.54936Z" fill="var(--fill-0, white)"/>
<path id="Vector_6" d="M34.4706 29.1376V26.6082C34.4706 25.6082 33.7059 24.8435 32.7059 24.8435H31.1765C30.8235 24.8435 30.5882 25.0788 30.5882 25.4317C30.5882 25.7847 30.8235 26.02 31.1765 26.02H32.7059C33.0588 26.02 33.2941 26.2553 33.2941 26.6082V29.1376C32.2941 29.3729 31.5294 30.3141 31.5294 31.4317C31.5294 32.7258 32.5882 33.7847 33.8824 33.7847C35.1765 33.7847 36.2353 32.7258 36.2353 31.4317C36.2353 30.3141 35.4706 29.3729 34.4706 29.1376ZM33.8824 32.5494C33.2353 32.5494 32.7059 32.02 32.7059 31.3729C32.7059 30.7258 33.2353 30.1964 33.8824 30.1964C34.5294 30.1964 35.0588 30.7258 35.0588 31.3729C35.0588 32.02 34.5294 32.5494 33.8824 32.5494Z" fill="var(--fill-0, white)"/>
</g>
</svg>