<svg xmlns="http://www.w3.org/2000/svg" fill="none" overflow="visible" preserveAspectRatio="none" style="display:block" viewBox="0 0 37.647 37.667"><g id="_x32_1" fill="var(--fill-0,white)"><path id="Vector" d="M25.059 31.844c.353 0 .588-.236.588-.589s-.235-.588-.588-.588h-12.47c-.354 0-.589.235-.589.588s.235.588.588.588Z"/><path id="Vector_2" d="M26.235 33.255H11.411c-.352 0-.588.236-.588.588 0 .353.236.589.589.589H15a3.865 3.865 0 0 0 3.823 3.235c1.942 0 3.53-1.412 3.824-3.294h3.588c.353 0 .588-.235.588-.588s-.235-.53-.588-.53m-7.412 3.236c-1.294 0-2.352-.883-2.588-2.118h5.235c-.293 1.235-1.352 2.118-2.646 2.118"/><path id="Vector_3" d="m25.118 6.667-1.647.706c-.765-.706-1.648-1.235-2.648-1.53l-.235-1.764a.527.527 0 0 0-.53-.53h-2.47c-.294 0-.53.236-.588.53l-.235 1.764c-1 .295-1.883.824-2.647 1.53l-1.589-.706c-.294-.118-.588 0-.764.235L10.529 9.08c-.176.235-.058.588.177.764l1.412 1.06a6.7 6.7 0 0 0 0 3.059l-1.412 1.058c-.235.176-.294.53-.177.765l1.236 2.176c.176.235.47.353.764.235l1.589-.706c.764.706 1.647 1.236 2.647 1.53L17 20.785c.059.294.294.53.588.53h2.47c.295 0 .53-.236.59-.53l.234-1.765c1-.294 1.883-.824 2.647-1.53l1.648.706c.294.118.588 0 .764-.235l1.236-2.176c.176-.236.058-.589-.177-.765l-1.412-1.059c.235-1 .235-2.059 0-3.059L27 9.843c.235-.176.294-.529.177-.764L25.94 6.902c-.235-.294-.588-.353-.823-.235m-.589 3.47c-.176.177-.294.412-.235.648.294 1 .294 2.176 0 3.176-.059.235 0 .47.235.647l1.294 1-.705 1.235-1.53-.647c-.235-.117-.47-.058-.647.118-.764.765-1.706 1.353-2.764 1.588-.236.06-.412.236-.471.53l-.177 1.588h-1.412l-.176-1.647c0-.235-.235-.47-.47-.53-1.06-.176-2-.764-2.765-1.529-.177-.176-.412-.235-.647-.118l-1.47.647-.707-1.235 1.295-1c.176-.176.294-.412.235-.647-.294-1-.294-2.117 0-3.176a.59.59 0 0 0-.235-.647l-1.295-1 .706-1.236 1.47.647c.236.118.471.06.648-.117.765-.765 1.706-1.353 2.765-1.589.235-.058.411-.235.47-.529l.177-1.647h1.412l.176 1.647c0 .235.235.47.47.53 1.06.235 2 .823 2.765 1.588.177.176.412.235.647.117l1.53-.647.706 1.236Z"/><path id="Vector_4" d="M18.824 8.726a3.69 3.69 0 0 0-3.706 3.706 3.69 3.69 0 0 0 3.706 3.706c2 0 3.705-1.648 3.705-3.706a3.69 3.69 0 0 0-3.706-3.706m0 6.176c-1.353 0-2.53-1.117-2.53-2.53 0-1.352 1.118-2.529 2.53-2.529 1.352 0 2.529 1.118 2.529 2.53s-1.177 2.53-2.53 2.53"/><path id="Vector_5" d="M35.294.02a2.36 2.36 0 0 0-2.353 2.353c0 1.118.765 2 1.765 2.294v2.53c0 .352-.235.588-.588.588h-3.882C28.411 3.49 24.175.315 19.528.02 16.412-.157 13.412.843 11 2.785H3.53c-1 0-1.765.764-1.765 1.764v2.53C.765 7.314 0 8.255 0 9.373a2.36 2.36 0 0 0 2.353 2.353 2.36 2.36 0 0 0 2.353-2.353c0-1.118-.765-2-1.765-2.294v-2.47c0-.354.235-.59.588-.59h6.176C7.53 6.315 6.354 9.315 6.354 12.492c0 7 4.176 7.235 5.353 13.529h-6.47c-.354 0-.589-.235-.589-.588V23.49c1-.236 1.765-1.177 1.765-2.295a2.36 2.36 0 0 0-2.353-2.353 2.36 2.36 0 0 0-2.353 2.353c0 1.118.765 2 1.765 2.294v1.941c0 1 .764 1.765 1.764 1.765h6.647c.06.53.118 1 .118 1.53 0 .353.235.588.588.588h12.47c.354 0 .59-.235.59-.588 0-.118-.06-1.059.293-2.706h2.47c.354 0 .589-.235.589-.588s-.235-.588-.588-.588h-2.177c1.588-5.236 5.294-6.295 5.06-12.824a13.8 13.8 0 0 0-.53-3.118h3.353c1 0 1.764-.764 1.764-1.764v-2.47c1-.236 1.765-1.177 1.765-2.295A2.36 2.36 0 0 0 35.294.02M3.53 9.373a1.18 1.18 0 0 1-1.176 1.177 1.18 1.18 0 0 1-1.176-1.177c0-.647.529-1.177 1.176-1.177s1.176.53 1.176 1.177m-.647 11.823c0-.647.53-1.176 1.177-1.176s1.176.53 1.176 1.176a1.18 1.18 0 0 1-1.176 1.177 1.18 1.18 0 0 1-1.176-1.177m21.589 6.942h-3.235v-3.059c0-.353-.236-.588-.589-.588s-.588.235-.588.588v3.059h-2.47v-4.235c0-.354-.236-.589-.589-.589s-.588.235-.588.588v4.235h-3.235c-.295-8.411-5.648-8.47-5.648-15.647 0-6.47 5.412-11.647 11.883-11.294 5.47.295 10.47 5.353 10.647 10.883.294 7.176-5.294 7.941-5.588 16.059M35.294 3.549a1.18 1.18 0 0 1-1.176-1.176c0-.647.53-1.177 1.176-1.177.647 0 1.177.53 1.177 1.177a1.18 1.18 0 0 1-1.176 1.176"/><path id="Vector_6" d="M34.47 29.138v-2.53c0-1-.764-1.765-1.764-1.765h-1.53c-.352 0-.588.236-.588.589s.235.588.588.588h1.53c.353 0 .588.235.588.588v2.53c-1 .235-1.765 1.176-1.765 2.294a2.36 2.36 0 0 0 2.353 2.353 2.36 2.36 0 0 0 2.353-2.353c0-1.118-.764-2.06-1.764-2.294m-.588 3.411a1.18 1.18 0 0 1-1.176-1.176c0-.647.53-1.177 1.176-1.177.647 0 1.177.53 1.177 1.177a1.18 1.18 0 0 1-1.176 1.176"/></g></svg>