<svg xmlns="http://www.w3.org/2000/svg" fill="none" overflow="visible" preserveAspectRatio="none" style="display:block" viewBox="0 0 36 36"><g id="document (1) 1"><path id="Vector" fill="var(--fill-0,#59c2ff)" d="M25.5 20.25a.75.75 0 0 1-.75.75h-13.5a.75.75 0 0 1 0-1.5h13.5a.75.75 0 0 1 .75.75m-5.25 5.25h-9a.75.75 0 0 0 0 1.5h9a.75.75 0 0 0 0-1.5M33 14.977V29.25A6.76 6.76 0 0 1 26.25 36H9.75A6.76 6.76 0 0 1 3 29.25V6.75A6.76 6.76 0 0 1 9.75 0h8.273a9.7 9.7 0 0 1 6.895 2.856l5.226 5.228A9.68 9.68 0 0 1 33 14.978M23.856 3.915A8.2 8.2 0 0 0 21 2.069v7.68c0 1.24 1.01 2.25 2.25 2.25h7.682a8.2 8.2 0 0 0-1.848-2.856ZM31.5 14.978c0-.503-.057-.995-.144-1.478H23.25a3.754 3.754 0 0 1-3.75-3.75V1.644a8.4 8.4 0 0 0-1.477-.144H9.75A5.256 5.256 0 0 0 4.5 6.75v22.5a5.256 5.256 0 0 0 5.25 5.25h16.5a5.256 5.256 0 0 0 5.25-5.25Z"/></g></svg>