<svg xmlns="http://www.w3.org/2000/svg" preserveAspectRatio="none" width="100%" height="100%" overflow="visible" style="display: block" viewBox="0 0 36 36" fill="none">
<g id="finish-flag">
<path id="Vector" d="M31.6395 3.50025C31.2532 3.21675 30.7695 3.135 30.3127 3.27825C28.3012 3.9045 25.7212 4.323 23.0467 4.45425C19.941 4.611 16.9132 4.3605 14.7367 3.77475C12.57 3.19275 9.759 2.93325 6.75075 3.0195V2.2485C6.75075 1.41975 6.0795 0.7485 5.25075 0.7485C4.422 0.7485 3.75075 1.41975 3.75075 2.2485V33.7485C3.75075 34.5773 4.422 35.2485 5.25075 35.2485C6.0795 35.2485 6.75075 34.5773 6.75075 33.7485V22.5203C9.603 22.4355 12.339 22.6838 14.3475 23.223C16.2427 23.7323 18.6307 23.9993 21.2122 23.9993C21.8385 23.9993 22.476 23.9835 23.1202 23.952C26.154 23.802 29.04 23.3048 31.245 22.5503C31.8465 22.3463 32.2507 21.7755 32.2507 21.1305V4.71C32.2507 4.2345 32.022 3.78225 31.6402 3.501L31.6395 3.50025ZM23.0467 22.455C21.5685 22.5293 20.1105 22.509 18.75 22.4063V16.785C17.22 16.6725 15.78 16.455 14.5425 16.125C13.98 15.975 13.38 15.8475 12.75 15.75V21.3615C11.2725 21.1245 9.61875 20.9993 7.87125 20.9993C7.5015 20.9993 7.12725 21.0045 6.75 21.0158V15.4005C8.8365 15.3405 10.9215 15.4425 12.75 15.75V10.4992C10.9215 10.191 8.8365 10.0905 6.75 10.1505V4.5165C8.904 4.44975 10.9912 4.5795 12.75 4.88025V10.4992C13.38 10.5967 13.98 10.7242 14.5425 10.8742C15.78 11.2042 17.22 11.4217 18.75 11.5342V5.91C20.1315 6.00825 21.6037 6.02625 23.1195 5.95275C23.6685 5.92575 24.2115 5.88375 24.75 5.8335V11.4593C26.9137 11.2568 29.0137 10.866 30.7537 10.2975L30.7575 15.5468C29.0167 16.116 26.9152 16.5075 24.75 16.71V22.3283C24.1897 22.3815 23.6227 22.4265 23.0467 22.455Z" fill="var(--fill-0, white)"/>
<path id="Vector_2" d="M23.085 16.83C23.64 16.8 24.2025 16.7625 24.75 16.71V11.46C24.2025 11.5125 23.64 11.55 23.085 11.58C21.6225 11.655 20.1525 11.64 18.75 11.535V16.785C20.1525 16.89 21.6225 16.905 23.085 16.83Z" fill="var(--fill-0, white)"/>
</g>
</svg>