<svg xmlns="http://www.w3.org/2000/svg" fill="none" overflow="visible" preserveAspectRatio="none" style="display:block" viewBox="0 0 36 36"><g id="finish-flag" fill="var(--fill-0,white)"><path id="Vector" d="M31.64 3.5a1.48 1.48 0 0 0-1.327-.222c-2.012.627-4.592 1.045-7.266 1.176-3.106.157-6.134-.093-8.31-.68-2.167-.581-4.978-.84-7.986-.755v-.771a1.5 1.5 0 1 0-3 0v31.5a1.5 1.5 0 1 0 3 0V22.52c2.852-.084 5.588.164 7.597.703 1.895.51 4.283.776 6.864.776q.941 0 1.908-.047c3.034-.15 5.92-.647 8.125-1.402a1.49 1.49 0 0 0 1.006-1.42V4.71c0-.476-.229-.928-.61-1.209Zm-8.593 18.955a35 35 0 0 1-4.297-.049v-5.621c-1.53-.113-2.97-.33-4.208-.66a17 17 0 0 0-1.793-.375v5.611C11.274 21.126 9.62 21 7.872 21q-.555 0-1.121.017V15.4c2.086-.06 4.172.042 6 .349V10.5c-1.829-.309-3.914-.41-6-.35V4.516c2.154-.066 4.241.064 6 .364V10.5q.947.149 1.793.375c1.237.33 2.677.548 4.207.66V5.91a37 37 0 0 0 6-.077v5.626c2.164-.202 4.264-.593 6.004-1.162l.003 5.25c-1.74.569-3.842.96-6.007 1.163v5.618a38 38 0 0 1-1.703.127"/><path id="Vector_2" d="M23.085 16.83c.555-.03 1.117-.067 1.665-.12v-5.25c-.547.052-1.11.09-1.665.12-1.463.075-2.933.06-4.335-.045v5.25c1.402.105 2.872.12 4.335.045"/></g></svg>