<svg xmlns="http://www.w3.org/2000/svg" preserveAspectRatio="none" width="100%" height="100%" overflow="visible" style="display: block" viewBox="0 0 50 49.739" fill="none">
<g id="Group">
<path id="Vector" d="M50 25C50 23.4594 48.8765 22.177 47.4058 21.9272C46.873 17.9996 45.3195 14.3006 42.8836 11.1596C43.2358 10.6547 43.4432 10.0415 43.4432 9.38043C43.4432 7.66127 42.0446 6.26263 40.3254 6.26263C39.6436 6.26263 39.0126 6.48324 38.4989 6.85609C35.433 4.57122 31.8521 3.10744 28.0728 2.59416C27.8229 1.12354 26.5406 0 25 0C23.4593 0 22.1769 1.12354 21.9271 2.59416C18.1478 3.10734 14.5669 4.57112 11.501 6.85609C10.9873 6.48334 10.3563 6.26263 9.67447 6.26263C7.95532 6.26263 6.55668 7.66127 6.55668 9.38043C6.55668 10.0416 6.7642 10.6548 7.11655 11.1599C6.52279 11.9262 5.97796 12.7286 5.49408 13.5531C5.28939 13.902 5.40628 14.3508 5.75511 14.5556C5.87162 14.6239 5.99916 14.6563 6.12513 14.6563C6.3764 14.6563 6.62113 14.5269 6.75756 14.2945C7.1935 13.5515 7.68276 12.8276 8.21489 12.1342C8.65064 12.3662 9.14732 12.4981 9.67447 12.4981C10.356 12.4981 10.9867 12.2777 11.5004 11.9052C11.8998 12.2029 12.3094 12.4881 12.7264 12.7583C12.516 13.1778 12.3968 13.6508 12.3968 14.1512C12.3968 15.3413 13.0674 16.3774 14.0503 16.9026C13.7318 18.5272 13.5114 20.218 13.3927 21.9455C12.2107 22.1875 11.2712 23.1007 10.989 24.2676H6.14779C5.89115 23.2062 5.09056 22.3549 4.05823 22.0276C4.28762 20.3931 4.70891 18.7906 5.31409 17.2548C5.46243 16.8784 5.27757 16.4532 4.9012 16.3049C4.52503 16.1565 4.09954 16.3414 3.95129 16.7178C3.29103 18.3932 2.83586 20.1428 2.59386 21.9272C1.12344 22.1773 0 23.4596 0 25C0 26.5407 1.12354 27.8231 2.59416 28.0729C3.12697 32.0005 4.6805 35.6995 7.11645 38.8405C6.7642 39.3454 6.55678 39.9586 6.55678 40.6197C6.55678 42.3388 7.95542 43.7374 9.67457 43.7374C10.3564 43.7374 10.9874 43.5168 11.5011 43.144C14.5669 45.4289 18.1477 46.8926 21.9268 47.4058C21.9653 47.6319 22.0286 47.8572 22.1201 48.0778C22.1594 48.1723 22.2036 48.2652 22.2516 48.354C22.4437 48.71 22.8882 48.8427 23.2441 48.6505C23.6 48.4583 23.7328 48.014 23.5406 47.658C23.5161 47.6126 23.4933 47.5646 23.473 47.5159C23.1237 46.6744 23.5246 45.7054 24.3665 45.3559C25.2084 45.0066 26.1776 45.4066 26.527 46.2481C26.856 47.0407 26.5161 47.9655 25.753 48.3535C25.3924 48.5368 25.2487 48.9777 25.432 49.3383C25.5613 49.5926 25.8185 49.739 26.0854 49.739C26.1971 49.739 26.3104 49.7134 26.4168 49.6593C27.3177 49.2012 27.9066 48.3473 28.0698 47.4063C31.8503 46.8935 35.4322 45.4296 38.4991 43.144C39.0128 43.5168 39.6438 43.7374 40.3256 43.7374C42.0448 43.7374 43.4434 42.3387 43.4434 40.6197C43.4434 39.9586 43.236 39.3454 42.8837 38.8405C45.3197 35.6995 46.8732 32.0005 47.406 28.0729C48.8765 27.8231 50 26.5407 50 25ZM40.3255 37.502C39.6442 37.502 39.0137 37.7223 38.5001 38.0946C38.1761 37.853 37.8455 37.6201 37.5109 37.3975C37.5564 37.1859 37.5809 36.9666 37.5809 36.7417C37.5809 35.4925 36.8421 34.4132 35.7788 33.9161C36.1901 32.0451 36.4674 30.0793 36.6066 28.0548C37.7889 27.8131 38.7289 26.8998 39.0111 25.7326H39.5734C39.9779 25.7326 40.3058 25.4046 40.3058 25.0001C40.3058 24.5957 39.9779 24.2677 39.5734 24.2677H39.0111C38.7289 23.1007 37.7892 22.1875 36.6071 21.9456C36.4875 20.2123 36.2665 18.518 35.9478 16.8923C36.9197 16.3637 37.5808 15.3333 37.5808 14.1514C37.5808 13.6552 37.4637 13.186 37.2567 12.7692C37.6802 12.4957 38.0954 12.207 38.4998 11.9055C39.0134 12.2779 39.644 12.4983 40.3254 12.4983C40.8528 12.4983 41.3497 12.3663 41.7855 12.1342C44.0091 15.0287 45.4353 18.424 45.9412 22.0279C44.9092 22.3553 44.1088 23.2065 43.8521 24.2677H42.9912C42.5867 24.2677 42.2587 24.5957 42.2587 25.0001C42.2587 25.4046 42.5867 25.7326 42.9912 25.7326H43.8521C44.1087 26.7938 44.9092 27.645 45.9412 27.9724C45.4353 31.5763 44.0092 34.9717 41.7855 37.8661C41.3498 37.634 40.8528 37.502 40.3255 37.502ZM28.0727 33.8317C27.8635 32.6023 26.9326 31.6163 25.7324 31.3262V28.03C26.864 27.7564 27.7563 26.8642 28.0299 25.7325H32.951C33.2159 26.8284 34.0611 27.6997 35.142 28.0021C35.0062 29.9471 34.7379 31.8333 34.3423 33.6269C33.4281 33.6619 32.6136 34.0918 32.0653 34.7512C30.7701 34.3254 29.4319 34.0169 28.0727 33.8317ZM25 36.0091C24.0886 36.0091 23.3472 35.2676 23.3472 34.3562C23.3472 33.4447 24.0887 32.7033 25 32.7033C25.9114 32.7033 26.6529 33.4448 26.6529 34.3562C26.6529 35.2676 25.9114 36.0091 25 36.0091ZM21.9273 33.8316C20.5627 34.0171 19.2187 34.3276 17.9171 34.7571C17.3732 34.0999 16.5655 33.6689 15.6578 33.6276C15.2621 31.8326 14.9938 29.9462 14.8579 28.0023C15.9389 27.6999 16.784 26.8286 17.0489 25.7327H21.97C22.2436 26.8643 23.1359 27.7566 24.2675 28.0302V31.3264C23.0674 31.6163 22.1366 32.6023 21.9273 33.8316ZM12.4546 39.2113C12.6735 39.0495 12.8964 38.892 13.1222 38.7383C13.6946 39.4229 14.5544 39.8594 15.5144 39.8594C15.7179 39.8594 15.9167 39.8392 16.1094 39.8018C17.2059 42.264 18.5714 44.2342 20.094 45.5768C17.3434 44.9234 14.747 43.72 12.4547 42.028C12.67 41.6046 12.7923 41.1263 12.7923 40.6197C12.7923 40.113 12.67 39.6346 12.4546 39.2113ZM15.5144 35.0888C16.4259 35.0888 17.1673 35.8303 17.1673 36.7417C17.1673 37.6531 16.4258 38.3946 15.5144 38.3946C14.6031 38.3946 13.8616 37.6531 13.8616 36.7417C13.8616 35.8302 14.6031 35.0888 15.5144 35.0888ZM22.0277 14.7032C20.8734 14.5406 19.7329 14.2828 18.6236 13.9327C18.552 12.9037 17.9794 12.0108 17.1481 11.4972C18.4958 8.18442 20.2861 5.78998 22.2753 4.63089C22.6935 5.38089 23.4121 5.94105 24.2675 6.14779V12.6139C23.2063 12.8706 22.3551 13.6711 22.0277 14.7032ZM13.6834 11.6302C13.2655 11.3647 12.8542 11.0849 12.4543 10.7897C12.6699 10.3662 12.7924 9.88746 12.7924 9.38052C12.7924 8.87388 12.6701 8.39556 12.4548 7.97221C14.7453 6.28158 17.3395 5.07874 20.0876 4.42493C18.3953 5.91576 16.9057 8.17856 15.7519 11.0435C15.6734 11.0376 15.5944 11.0336 15.5145 11.0336C14.8307 11.0336 14.1979 11.2554 13.6834 11.6302ZM37.5459 10.7899C37.1427 11.0876 36.7272 11.3699 36.3045 11.6375C35.7881 11.2582 35.1515 11.0335 34.4631 11.0335C34.3906 11.0335 34.319 11.0369 34.2477 11.0418C33.0934 8.17749 31.6036 5.91527 29.9117 4.42464C32.6602 5.07835 35.2546 6.28129 37.5453 7.97212C37.33 8.39546 37.2077 8.87378 37.2077 9.38043C37.2077 9.88756 37.3302 10.3663 37.5459 10.7899ZM37.6339 25.0005C37.6336 25.9117 36.8923 26.6529 35.981 26.6529C35.0695 26.6529 34.3281 25.9114 34.3281 25C34.3281 24.0887 35.0696 23.3472 35.981 23.3472C36.8922 23.3472 37.6336 24.0884 37.6339 24.9996V25C37.6339 25 37.6339 25.0004 37.6339 25.0005ZM32.951 24.2676H28.0299C27.7563 23.136 26.864 22.2437 25.7324 21.97V18.6739C26.9324 18.3838 27.8632 17.3981 28.0725 16.169C29.2698 16.0061 30.4525 15.7458 31.6046 15.3943C32.0857 16.4964 33.1856 17.2689 34.463 17.2689C34.4852 17.2689 34.507 17.2678 34.5291 17.2673C34.8234 18.7896 35.0288 20.3753 35.1426 21.9977C34.0615 22.3001 33.216 23.1715 32.951 24.2676ZM34.4631 15.8041C33.5517 15.8041 32.8103 15.0626 32.8103 14.1513C32.8103 13.2399 33.5518 12.4984 34.4631 12.4984C35.3744 12.4984 36.1159 13.2399 36.1159 14.1513C36.1159 15.0626 35.3744 15.8041 34.4631 15.8041ZM27.7246 4.63108C29.7109 5.7889 31.4994 8.17905 32.8474 11.4857C32.0043 11.9986 31.4234 12.9003 31.3533 13.9396C30.2522 14.2862 29.1195 14.5417 27.9723 14.7032C27.6449 13.6711 26.7937 12.8706 25.7324 12.6139V6.14789C26.5878 5.94105 27.3063 5.38109 27.7246 4.63108ZM25 13.9911C25.9115 13.9911 26.6529 14.7326 26.6529 15.644C26.6529 16.5555 25.9114 17.2969 25 17.2969C24.0887 17.2969 23.3472 16.5554 23.3472 15.644C23.3471 14.7326 24.0886 13.9911 25 13.9911ZM25 23.3472C25.9115 23.3472 26.6529 24.0887 26.6529 25C26.6529 25.9114 25.9114 26.6529 25 26.6529C24.0887 26.6529 23.3472 25.9114 23.3472 25C23.3472 24.0887 24.0886 23.3472 25 23.3472ZM32.8103 36.7416C32.8103 35.8302 33.5518 35.0887 34.4631 35.0887C35.3744 35.0887 36.1159 35.8302 36.1159 36.7416C36.1159 37.653 35.3744 38.3945 34.4631 38.3945C33.5518 38.3945 32.8103 37.653 32.8103 36.7416ZM34.4631 39.8594C35.4276 39.8594 36.2912 39.419 36.8635 38.7288C37.0934 38.885 37.3209 39.0457 37.5453 39.2114C37.33 39.6347 37.2077 40.113 37.2077 40.6197C37.2077 41.1263 37.33 41.6046 37.5453 42.028C35.2531 43.7199 32.6568 44.9233 29.9064 45.5767C31.4284 44.2348 32.7934 42.2659 33.8896 39.8056C34.0757 39.8404 34.2671 39.8594 34.4631 39.8594ZM48.5351 25C48.5351 25.9115 47.7936 26.6529 46.8822 26.6529C45.9717 26.6529 45.2307 25.9127 45.2295 25.0024C45.2295 25.0016 45.2296 25.0008 45.2296 25C45.2296 24.9993 45.2295 24.9985 45.2295 24.9977C45.2307 24.0874 45.9717 23.3472 46.8822 23.3472C47.7936 23.3472 48.5351 24.0887 48.5351 25ZM40.3255 7.72758C41.237 7.72758 41.9785 8.46909 41.9785 9.38052C41.9785 10.292 41.237 11.0334 40.3255 11.0334C39.4141 11.0334 38.6727 10.2919 38.6727 9.38052C38.6726 8.46909 39.4141 7.72758 40.3255 7.72758ZM25 1.46495C25.9115 1.46495 26.6529 2.20646 26.6529 3.11789C26.6529 4.02932 25.9114 4.77073 25 4.77073C24.0887 4.77073 23.3472 4.02922 23.3472 3.11789C23.3471 2.20646 24.0886 1.46495 25 1.46495ZM9.67447 11.0334C8.76304 11.0334 8.02153 10.2919 8.02153 9.38052C8.02153 8.46909 8.76304 7.72758 9.67447 7.72758C10.5859 7.72758 11.3273 8.46909 11.3273 9.38052C11.3274 10.2919 10.5859 11.0334 9.67447 11.0334ZM15.5144 12.4984C16.4259 12.4984 17.1673 13.2399 17.1673 14.1513C17.1673 15.0626 16.4258 15.8041 15.5144 15.8041C14.6031 15.8041 13.8616 15.0626 13.8616 14.1513C13.8616 13.2399 14.6031 12.4984 15.5144 12.4984ZM15.5144 17.2689C16.794 17.2689 17.8956 16.4937 18.3755 15.3886C19.5347 15.743 20.7241 16.0052 21.9274 16.1689C22.1368 17.3981 23.0676 18.3838 24.2676 18.6739V21.97C23.136 22.2437 22.2437 23.1359 21.9701 24.2676H17.049C16.784 23.1714 15.9385 22.2999 14.8571 21.9977C14.9704 20.3774 15.1759 18.7918 15.4708 17.2679C15.4853 17.2681 15.4998 17.2689 15.5144 17.2689ZM14.019 23.3472C14.9305 23.3472 15.6719 24.0887 15.6719 25C15.6719 25.9114 14.9304 26.6529 14.019 26.6529C13.1076 26.6529 12.3661 25.9114 12.3661 25C12.3661 24.0887 13.1076 23.3472 14.019 23.3472ZM6.14779 25.7325H10.9889C11.2712 26.8997 12.2112 27.813 13.3935 28.0547C13.5324 30.0746 13.8092 32.0372 14.2193 33.9067C13.1451 34.3995 12.3968 35.4845 12.3968 36.7416C12.3968 36.9711 12.4224 37.1946 12.4697 37.4102C12.1401 37.63 11.8161 37.8586 11.4998 38.0945C10.9863 37.7222 10.3558 37.502 9.67447 37.502C9.14712 37.502 8.65025 37.634 8.2144 37.8661C5.99076 34.9716 4.56458 31.5763 4.05872 27.9724C5.09075 27.6449 5.89115 26.7938 6.14779 25.7325ZM1.46485 25C1.46485 24.0886 2.20636 23.3472 3.11779 23.3472C4.02922 23.3472 4.77063 24.0887 4.77063 25C4.77063 25.9114 4.02913 26.6529 3.11779 26.6529C2.20636 26.653 1.46485 25.9115 1.46485 25ZM9.67447 42.2726C8.76304 42.2726 8.02153 41.5311 8.02153 40.6198C8.02153 39.7084 8.76304 38.9669 9.67447 38.9669C10.5859 38.9669 11.3273 39.7084 11.3273 40.6198C11.3273 41.5311 10.5859 42.2726 9.67447 42.2726ZM23.8047 44.0031C23.13 44.2832 22.6063 44.7746 22.2768 45.3686C20.4378 44.2934 18.7503 42.1414 17.4404 39.1907C18.1653 38.6193 18.6321 37.7343 18.6321 36.7417C18.6321 36.5174 18.6078 36.2988 18.5626 36.0878C19.6899 35.7275 20.8501 35.4621 22.0275 35.2966C22.3548 36.3289 23.206 37.1296 24.2675 37.3863V43.8521C24.112 43.8898 23.9573 43.9398 23.8047 44.0031ZM25.7325 43.8536V37.3862C26.7939 37.1295 27.6451 36.3289 27.9724 35.2967C29.1431 35.4616 30.2964 35.7248 31.4165 36.0811C31.3704 36.2941 31.3454 36.515 31.3454 36.7415C31.3454 37.7419 31.8195 38.6331 32.5543 39.2039C31.2457 42.1467 29.5608 44.2935 27.725 45.3674C27.2923 44.5878 26.5581 44.0542 25.7325 43.8536ZM40.3255 42.2726C39.4141 42.2726 38.6727 41.5311 38.6727 40.6198C38.6727 39.7084 39.4142 38.9669 40.3255 38.9669C41.237 38.9669 41.9785 39.7084 41.9785 40.6198C41.9785 41.5311 41.237 42.2726 40.3255 42.2726Z" fill="var(--fill-0, white)"/>
</g>
</svg>