<svg xmlns="http://www.w3.org/2000/svg" fill="none" overflow="visible" preserveAspectRatio="none" style="display:block" viewBox="0 0 50 49.739"><g id="Group"><path id="Vector" fill="var(--fill-0,white)" d="M50 25a3.12 3.12 0 0 0-2.594-3.073 22.46 22.46 0 0 0-4.522-10.768 3.1 3.1 0 0 0 .56-1.78 3.12 3.12 0 0 0-3.118-3.118 3.1 3.1 0 0 0-1.827.593 22.5 22.5 0 0 0-10.426-4.262A3.12 3.12 0 0 0 25 0a3.12 3.12 0 0 0-3.073 2.594 22.5 22.5 0 0 0-10.426 4.262 3.1 3.1 0 0 0-1.827-.593A3.12 3.12 0 0 0 6.556 9.38a3.1 3.1 0 0 0 .56 1.78 23 23 0 0 0-1.622 2.393.733.733 0 0 0 1.263.741 21 21 0 0 1 1.457-2.16 3.1 3.1 0 0 0 3.286-.229q.601.449 1.226.854c-.21.42-.33.893-.33 1.393 0 1.19.671 2.226 1.654 2.752a41 41 0 0 0-.658 5.043 3.13 3.13 0 0 0-2.404 2.322H6.148a3.13 3.13 0 0 0-2.09-2.24 21 21 0 0 1 1.256-4.773.732.732 0 1 0-1.363-.537 22.4 22.4 0 0 0-1.357 5.21A3.12 3.12 0 0 0 0 25a3.12 3.12 0 0 0 2.594 3.073A22.46 22.46 0 0 0 7.116 38.84a3.1 3.1 0 0 0-.56 1.78 3.12 3.12 0 0 0 3.118 3.118 3.1 3.1 0 0 0 1.827-.593 22.5 22.5 0 0 0 10.426 4.262 3.1 3.1 0 0 0 .325.948.732.732 0 1 0 1.289-.696 1.655 1.655 0 0 1 .826-2.302c.842-.352 1.812.048 2.161.89a1.66 1.66 0 0 1-.774 2.105.732.732 0 1 0 .664 1.306 3.12 3.12 0 0 0 1.653-2.253 22.5 22.5 0 0 0 10.43-4.262 3.1 3.1 0 0 0 1.827.593 3.12 3.12 0 0 0 3.118-3.118 3.1 3.1 0 0 0-.56-1.78 22.46 22.46 0 0 0 4.522-10.768A3.12 3.12 0 0 0 50 25m-9.675 12.502a3.1 3.1 0 0 0-1.825.593 23 23 0 0 0-.99-.697 3.116 3.116 0 0 0-1.732-3.481c.412-1.872.69-3.838.829-5.862a3.13 3.13 0 0 0 2.404-2.322h.562a.732.732 0 0 0 0-1.465h-.562a3.13 3.13 0 0 0-2.404-2.322 41 41 0 0 0-.66-5.053 3.12 3.12 0 0 0 1.309-4.123 23 23 0 0 0 1.243-.864 3.1 3.1 0 0 0 3.286.229 21 21 0 0 1 4.156 9.894 3.13 3.13 0 0 0-2.09 2.24h-.86a.733.733 0 0 0 0 1.465h.86a3.13 3.13 0 0 0 2.09 2.24c-.506 3.602-1.932 6.998-4.156 9.892a3.1 3.1 0 0 0-1.46-.364m-12.252-3.67a3.13 3.13 0 0 0-2.34-2.505V28.03a3.13 3.13 0 0 0 2.298-2.297h4.921a3.13 3.13 0 0 0 2.191 2.27 39 39 0 0 1-.8 5.625 3.11 3.11 0 0 0-2.277 1.124 22.5 22.5 0 0 0-3.993-.92M25 36.009a1.655 1.655 0 0 1-1.653-1.653c0-.911.742-1.653 1.653-1.653s1.653.742 1.653 1.653S25.91 36.01 25 36.01m-3.073-2.177a22.5 22.5 0 0 0-4.01.925 3.11 3.11 0 0 0-2.26-1.13 39 39 0 0 1-.8-5.625 3.13 3.13 0 0 0 2.191-2.27h4.921a3.13 3.13 0 0 0 2.297 2.297v3.296a3.13 3.13 0 0 0-2.34 2.505m-9.472 5.38q.328-.244.667-.474a3.11 3.11 0 0 0 2.987 1.063c1.097 2.463 2.462 4.433 3.985 5.776a21.05 21.05 0 0 1-7.64-3.549A3.1 3.1 0 0 0 12.455 39.211m3.06-4.123c.91 0 1.652.741 1.652 1.653s-.741 1.653-1.653 1.653a1.655 1.655 0 0 1-1.653-1.653c0-.912.742-1.653 1.653-1.653m6.513-20.386a21 21 0 0 1-3.404-.77 3.12 3.12 0 0 0-1.476-2.436c1.348-3.313 3.138-5.707 5.127-6.866a3.13 3.13 0 0 0 1.992 1.517v6.466a3.13 3.13 0 0 0-2.24 2.09m-8.345-3.073q-.628-.398-1.229-.84A3.1 3.1 0 0 0 12.455 7.973a21.1 21.1 0 0 1 7.633-3.547c-1.693 1.49-3.182 3.753-4.336 6.618a3.1 3.1 0 0 0-2.068.587m23.863-.84q-.606.447-1.242.848a3.1 3.1 0 0 0-2.057-.596c-1.154-2.865-2.643-5.127-4.335-6.617a21.05 21.05 0 0 1 7.634 3.547A3.1 3.1 0 0 0 37.546 10.79M37.634 25c0 .912-.742 1.653-1.653 1.653A1.655 1.655 0 0 1 34.328 25c0-.911.742-1.653 1.653-1.653s1.653.741 1.653 1.653m-4.683-.732H28.03a3.13 3.13 0 0 0-2.298-2.298v-3.296a3.13 3.13 0 0 0 2.34-2.505 22.5 22.5 0 0 0 3.532-.775 3.12 3.12 0 0 0 2.858 1.875l.067-.002c.294 1.523.5 3.108.614 4.73a3.13 3.13 0 0 0-2.192 2.27m1.512-8.464a1.655 1.655 0 0 1-1.653-1.653c0-.911.742-1.653 1.653-1.653s1.653.742 1.653 1.653-.742 1.653-1.653 1.653M27.725 4.631c1.986 1.158 3.774 3.548 5.122 6.855a3.12 3.12 0 0 0-1.494 2.454 21 21 0 0 1-3.381.764 3.13 3.13 0 0 0-2.24-2.09V6.148a3.13 3.13 0 0 0 1.992-1.517M25 13.991c.912 0 1.653.742 1.653 1.653S25.91 17.297 25 17.297a1.655 1.655 0 0 1-1.653-1.653c0-.911.742-1.653 1.653-1.653m0 9.356c.912 0 1.653.742 1.653 1.653S25.91 26.653 25 26.653A1.655 1.655 0 0 1 23.347 25c0-.911.742-1.653 1.653-1.653m7.81 13.395c0-.912.742-1.653 1.653-1.653s1.653.741 1.653 1.653-.742 1.653-1.653 1.653a1.655 1.655 0 0 1-1.653-1.653m1.653 3.117c.965 0 1.828-.44 2.4-1.13q.345.234.682.482a3.1 3.1 0 0 0 0 2.817 21.05 21.05 0 0 1-7.639 3.549c1.522-1.342 2.887-3.311 3.984-5.771q.279.052.573.053M48.535 25c0 .912-.741 1.653-1.653 1.653-.91 0-1.651-.74-1.652-1.65v-.005c0-.91.742-1.65 1.652-1.65.912 0 1.653.74 1.653 1.652m-8.21-17.272c.912 0 1.653.741 1.653 1.653s-.741 1.652-1.653 1.652a1.655 1.655 0 0 1-1.653-1.653c0-.91.742-1.652 1.654-1.652M25 1.465c.912 0 1.653.741 1.653 1.653S25.91 4.77 25 4.77a1.655 1.655 0 0 1-1.653-1.653c0-.912.742-1.653 1.653-1.653M9.674 11.033A1.655 1.655 0 0 1 8.021 9.38c0-.91.742-1.652 1.653-1.652s1.653.741 1.653 1.653c0 .91-.741 1.652-1.653 1.652m5.84 1.465c.912 0 1.653.742 1.653 1.653s-.741 1.653-1.653 1.653a1.655 1.655 0 0 1-1.653-1.653c0-.911.742-1.653 1.653-1.653m0 4.77c1.28 0 2.382-.774 2.861-1.88a22.6 22.6 0 0 0 3.552.78 3.13 3.13 0 0 0 2.34 2.505v3.296a3.13 3.13 0 0 0-2.298 2.298H17.05a3.13 3.13 0 0 0-2.192-2.27c.114-1.62.32-3.205.615-4.73Zm-1.495 6.08c.912 0 1.653.74 1.653 1.652s-.742 1.653-1.653 1.653A1.655 1.655 0 0 1 12.366 25c0-.911.742-1.653 1.653-1.653m-7.871 2.385h4.841a3.13 3.13 0 0 0 2.405 2.322c.138 2.02.415 3.982.825 5.852a3.12 3.12 0 0 0-1.75 3.504q-.494.33-.97.683a3.1 3.1 0 0 0-3.285-.228 21 21 0 0 1-4.156-9.894 3.13 3.13 0 0 0 2.09-2.24M1.465 25c0-.911.741-1.653 1.653-1.653S4.77 24.09 4.77 25s-.742 1.653-1.653 1.653A1.655 1.655 0 0 1 1.465 25m8.21 17.273a1.655 1.655 0 0 1-1.653-1.653c0-.912.741-1.653 1.652-1.653.912 0 1.653.741 1.653 1.653s-.741 1.653-1.653 1.653m14.13 1.73a3.1 3.1 0 0 0-1.528 1.365c-1.84-1.075-3.527-3.227-4.837-6.177a3.11 3.11 0 0 0 1.122-3.103 21 21 0 0 1 3.465-.791 3.13 3.13 0 0 0 2.24 2.09v6.466q-.233.056-.462.15m1.928-.15v-6.467a3.13 3.13 0 0 0 2.24-2.09c1.17.166 2.323.429 3.444.785a3.113 3.113 0 0 0 1.138 3.123c-1.31 2.943-2.994 5.09-4.83 6.163a3.12 3.12 0 0 0-1.992-1.514m14.592-1.58a1.655 1.655 0 0 1-1.653-1.653c0-.912.742-1.653 1.654-1.653s1.652.741 1.652 1.653-.741 1.653-1.653 1.653"/></g></svg>