<svg xmlns="http://www.w3.org/2000/svg" fill="none" overflow="visible" preserveAspectRatio="none" style="display:block" viewBox="0 0 33.75 33.75"><g id="Icon"><path id="Vector" fill="var(--fill-0,white)" d="M17.438 20.25a.56.56 0 0 1-.563.563H7.312a.563.563 0 0 1 0-1.125h9.563a.56.56 0 0 1 .563.563M29.25 23.6A4.5 4.5 0 1 1 20.251 23.6 4.5 4.5 0 0 1 29.25 23.6m-1.125 0A3.375 3.375 0 1 0 21.376 23.6 3.375 3.375 0 0 0 28.125 23.6m5.625-.309v.667a1.53 1.53 0 0 1-1.527 1.527h-.676a7 7 0 0 1-.68 1.625l.483.484a1.53 1.53 0 0 1 0 2.16l-.472.471a1.53 1.53 0 0 1-2.16 0l-.49-.492a7 7 0 0 1-1.617.67v.695a1.53 1.53 0 0 1-1.527 1.527h-.667a1.53 1.53 0 0 1-1.527-1.527v-.695c-.133-.036-.26-.089-.39-.133v1.792a1.69 1.69 0 0 1-1.688 1.688H1.688A1.69 1.69 0 0 1 0 32.062v-27a1.69 1.69 0 0 1 1.688-1.688h4.604A1.685 1.685 0 0 1 7.875 2.25H9a2.25 2.25 0 1 1 4.5 0h1.125a1.685 1.685 0 0 1 1.584 1.125h4.604A1.69 1.69 0 0 1 22.5 5.063v11.866c.13-.043.256-.097.389-.133v-.644a1.53 1.53 0 0 1 1.527-1.527h.667a1.53 1.53 0 0 1 1.527 1.527v.643a7 7 0 0 1 1.65.688l.458-.457a1.53 1.53 0 0 1 2.16 0l.471.472a1.53 1.53 0 0 1 0 2.16l-.466.465c.294.517.521 1.069.676 1.642h.663a1.53 1.53 0 0 1 1.527 1.527M20.812 4.5h-4.5v1.125h2.813A1.126 1.126 0 0 1 20.25 6.75v9.932c.2.076.38.193.531.343l.458.458c.044-.025.092-.043.136-.067V5.062a.563.563 0 0 0-.563-.563M18.15 17.497c.271-.328.602-.601.975-.806V6.75h-3.251a1.68 1.68 0 0 1-1.249.563h-6.75a1.68 1.68 0 0 1-1.249-.563H3.375v23.625h15.43a8 8 0 0 1-.656-.622 1.53 1.53 0 0 1 0-2.16l.484-.483a7 7 0 0 1-.68-1.625 2.9 2.9 0 0 1-1.367-.173H7.313a.563.563 0 0 1 0-1.125h8.46a5.6 5.6 0 0 1 0-1.125h-8.46a.563.563 0 0 1 0-1.125h9.273c.43-.167.895-.226 1.354-.172a7 7 0 0 1 .676-1.642l-.466-.467a1.53 1.53 0 0 1 0-2.16M10.125 2.25h2.25a1.125 1.125 0 1 0-2.25 0M7.312 5.625a.563.563 0 0 0 .563.563h6.75a.563.563 0 0 0 .563-.563V3.937a.563.563 0 0 0-.563-.563h-6.75a.563.563 0 0 0-.563.563Zm14.063 24.159c-.033-.019-.069-.032-.102-.05l-.492.491a1.5 1.5 0 0 1-.551.348 1.125 1.125 0 0 1-1.105.927H3.375a1.126 1.126 0 0 1-1.125-1.125V6.75a1.126 1.126 0 0 1 1.125-1.125h2.813V4.5h-4.5a.563.563 0 0 0-.563.563v27a.563.563 0 0 0 .563.563h19.125a.563.563 0 0 0 .563-.563Zm11.25-6.493a.4.4 0 0 0-.402-.402h-1.11a.56.56 0 0 1-.552-.453 5.9 5.9 0 0 0-.86-2.09.56.56 0 0 1 .072-.707l.782-.778a.403.403 0 0 0 0-.568l-.473-.473a.4.4 0 0 0-.568 0l-.773.773a.56.56 0 0 1-.71.07 5.9 5.9 0 0 0-2.095-.873.56.56 0 0 1-.45-.551v-1.088a.4.4 0 0 0-.402-.402h-.667a.4.4 0 0 0-.402.402v1.088a.56.56 0 0 1-.45.551 5.9 5.9 0 0 0-2.095.873.56.56 0 0 1-.71-.07l-.774-.773a.4.4 0 0 0-.568 0l-.473.473a.403.403 0 0 0 0 .568l.78.78a.56.56 0 0 1 .072.707 5.9 5.9 0 0 0-.86 2.09.56.56 0 0 1-.552.453h-1.11a.4.4 0 0 0-.402.402v.667a.4.4 0 0 0 .402.402h1.119a.56.56 0 0 1 .55.449c.156.738.45 1.442.87 2.07a.56.56 0 0 1-.07.71l-.799.798a.403.403 0 0 0 0 .568l.473.473a.403.403 0 0 0 .568 0l.805-.805a.56.56 0 0 1 .707-.072 5.9 5.9 0 0 0 2.066.856.56.56 0 0 1 .45.551v1.139a.4.4 0 0 0 .402.402h.667a.4.4 0 0 0 .402-.402V29.96a.56.56 0 0 1 .45-.551 5.9 5.9 0 0 0 2.066-.856.56.56 0 0 1 .707.072l.806.805a.403.403 0 0 0 .568 0l.473-.473a.403.403 0 0 0 0-.568l-.8-.799a.56.56 0 0 1-.07-.71c.42-.627.715-1.33.869-2.07a.56.56 0 0 1 .55-.449h1.119a.4.4 0 0 0 .402-.402ZM17.588 12.224a1.403 1.403 0 0 1-1.712 2.198l-1.846 1.32a1.403 1.403 0 1 1-2.626-.335L10.232 14a1.4 1.4 0 0 1-1.223-.22l-1.711.978a1.404 1.404 0 1 1-.557-.978l1.711-.977a1.401 1.401 0 1 1 2.644.477l1.172 1.406a1.4 1.4 0 0 1 1.106.14l1.846-1.318a1.404 1.404 0 0 1 2.368-1.284M6.105 14.707a.28.28 0 0 0-.48.199.281.281 0 1 0 .48-.199m3.54-1.852a.282.282 0 1 0 .398-.399.282.282 0 0 0-.398.399m3.21 2.977a.28.28 0 0 0-.433.043.281.281 0 1 0 .433-.043m3.938-2.812a.28.28 0 0 0-.433.043.281.281 0 1 0 .433-.043M5.625 19.688A.563.563 0 1 0 5.6250450377634795 20.813.563.563 0 0 0 5.625 19.688m0 2.25A.563.563 0 1 0 5.6250450377634795 23.063.563.563 0 0 0 5.625 21.938m0 2.25A.563.563 0 1 0 5.6250450377634795 25.313.563.563 0 0 0 5.625 24.188"/></g></svg>