<svg xmlns="http://www.w3.org/2000/svg" fill="none" overflow="visible" preserveAspectRatio="none" style="display:block" viewBox="0 0 50 50"><g id="infrastructure 1" fill="var(--fill-0,white)" clip-path="url(#clip0_0_4)"><path id="Vector" d="M20.727 10.422a.783.783 0 0 1-.93.93.78.78 0 0 0-.781.336 7.1 7.1 0 0 0-1.047 2.484.78.78 0 0 0 .313.781.78.78 0 0 1 0 1.313.78.78 0 0 0-.313.781c.188.887.543 1.73 1.047 2.484a.78.78 0 0 0 .781.336.78.78 0 0 1 .93.93.78.78 0 0 0 .336.781 7.1 7.1 0 0 0 2.484 1.078.78.78 0 0 0 .781-.312.83.83 0 0 1 1.313 0 .78.78 0 0 0 .633.328h.164a7.1 7.1 0 0 0 2.469-1.063.78.78 0 0 0 .336-.781.78.78 0 0 1 .93-.93.78.78 0 0 0 .781-.336 7.1 7.1 0 0 0 1.078-2.484.78.78 0 0 0-.313-.781.782.782 0 0 1 0-1.313.78.78 0 0 0 .313-.781 7.1 7.1 0 0 0-1.047-2.484.78.78 0 0 0-.781-.336.78.78 0 0 1-.93-.93.78.78 0 0 0-.336-.781 7.1 7.1 0 0 0-2.484-1.078.78.78 0 0 0-.781.313.83.83 0 0 1-1.313 0 .78.78 0 0 0-.781-.313 7.1 7.1 0 0 0-2.484 1.047.78.78 0 0 0-.367.781m1.562.305a5.6 5.6 0 0 1 1.148-.484 2.43 2.43 0 0 0 3.125 0c.405.117.796.279 1.165.484a2.344 2.344 0 0 0 2.188 2.188q.296.548.468 1.148a2.344 2.344 0 0 0 0 3.125 5.6 5.6 0 0 1-.484 1.164 2.344 2.344 0 0 0-2.188 2.188c-.369.204-.76.366-1.164.483a2.344 2.344 0 0 0-3.125 0 5.6 5.6 0 0 1-1.164-.484 2.344 2.344 0 0 0-2.188-2.188 5.6 5.6 0 0 1-.453-1.164 2.344 2.344 0 0 0 0-3.125 5.6 5.6 0 0 1 .484-1.164 2.344 2.344 0 0 0 2.188-2.188Z"/><path id="Vector_2" d="M25 18.75A3.125 3.125 0 1 0 25.000003178328804 12.5 3.125 3.125 0 0 0 25 18.75m0-4.688A1.563 1.563 0 1 1 25.000034180025455 17.188 1.563 1.563 0 0 1 25 14.063"/><path id="Vector_3" d="M13.281 27.344H24.22v3.125h-3.906a3.125 3.125 0 0 0-3.016 2.344h-5.578a.78.78 0 0 0-.781.781v4.688H12.5v-3.906h4.797a3.125 3.125 0 0 0 3.016 2.344h9.375a3.124 3.124 0 0 0 3.016-2.344H37.5v3.906h1.563v-4.688a.78.78 0 0 0-.781-.781h-5.578a3.125 3.125 0 0 0-3.016-2.344h-3.906v-3.125H36.72a8.593 8.593 0 0 0 2.063-16.93 7.81 7.81 0 0 0-7.531-5.727c-.669.001-1.33.088-1.973.258a10.156 10.156 0 0 0-18.344 5.531 8.593 8.593 0 0 0 2.344 16.867m16.406 4.687a1.563 1.563 0 0 1 0 3.125h-9.375a1.563 1.563 0 0 1 0-3.125ZM11.884 11.86a.78.78 0 0 0 .625-.781l-.008-.14A8.594 8.594 0 0 1 28.313 6.25a.78.78 0 0 0 .906.313 6.25 6.25 0 0 1 8.148 4.633.78.78 0 0 0 .625.617 7.031 7.031 0 0 1-1.273 13.969H13.28a7.03 7.03 0 0 1-1.399-13.922"/><path id="Vector_4" d="M21.094 5.469V3.906a7.03 7.03 0 0 0-7.031 7.031h1.563a5.47 5.47 0 0 1 5.469-5.469"/><path id="Vector_5" d="M1.563 49.219h21.094a.78.78 0 0 0 .781-.781v-7.813a.78.78 0 0 0-.781-.781H1.562a.78.78 0 0 0-.781.781v7.813a.78.78 0 0 0 .781.781m.78-7.813h19.531v6.25H2.344Z"/><path id="Vector_6" d="M3.906 43.75H5.47v1.563H3.906Z"/><path id="Vector_7" d="M7.031 43.75h1.563v1.563H7.03Z"/><path id="Vector_8" d="M10.156 43.75h9.375v1.563h-9.375Z"/><path id="Vector_9" d="M48.438 39.844H27.344a.78.78 0 0 0-.781.781v7.813a.78.78 0 0 0 .781.781h21.094a.78.78 0 0 0 .781-.781v-7.813a.78.78 0 0 0-.781-.781m-.782 7.812H28.125v-6.25h19.531Z"/><path id="Vector_10" d="M44.531 43.75h1.563v1.563H44.53Z"/><path id="Vector_11" d="M41.406 43.75h1.563v1.563h-1.563Z"/><path id="Vector_12" d="M30.469 43.75h9.375v1.563h-9.375Z"/><path id="Vector_13" d="M21.094 32.813h1.562v1.563h-1.562Z"/><path id="Vector_14" d="M24.219 32.813h1.562v1.563H24.22Z"/><path id="Vector_15" d="M27.344 32.813h1.562v1.563h-1.562Z"/></g><defs><clipPath id="clip0_0_4"><path fill="#fff" d="M0 0h50v50H0Z"/></clipPath></defs></svg>