<svg xmlns="http://www.w3.org/2000/svg" preserveAspectRatio="none" width="100%" height="100%" overflow="visible" style="display: block" viewBox="0 0 50 50" fill="none">
<g id="infrastructure 1" clip-path="url(#clip0_0_4)">
<path id="Vector" d="M20.7266 10.4219C20.7544 10.5498 20.7497 10.6826 20.7129 10.8082C20.676 10.9338 20.6082 11.0481 20.5157 11.1407C20.4231 11.2332 20.3088 11.301 20.1832 11.3379C20.0576 11.3747 19.9248 11.3794 19.7969 11.3516C19.6481 11.3261 19.4952 11.3443 19.3565 11.4039C19.2179 11.4635 19.0995 11.562 19.0156 11.6875C18.5121 12.4416 18.1568 13.2848 17.9687 14.1719C17.9409 14.3183 17.9555 14.4697 18.0108 14.6082C18.0662 14.7466 18.16 14.8663 18.2812 14.9531C18.3909 15.0239 18.481 15.1211 18.5435 15.2358C18.6059 15.3504 18.6386 15.4788 18.6386 15.6094C18.6386 15.7399 18.6059 15.8684 18.5435 15.983C18.481 16.0976 18.3909 16.1948 18.2812 16.2656C18.16 16.3525 18.0662 16.4722 18.0108 16.6106C17.9555 16.749 17.9409 16.9004 17.9687 17.0469C18.1568 17.934 18.5121 18.7771 19.0156 19.5312C19.0995 19.6567 19.2179 19.7552 19.3565 19.8148C19.4952 19.8744 19.6481 19.8926 19.7969 19.8672C19.9248 19.8393 20.0576 19.844 20.1832 19.8809C20.3088 19.9177 20.4231 19.9855 20.5157 20.0781C20.6082 20.1706 20.676 20.285 20.7129 20.4106C20.7497 20.5362 20.7544 20.669 20.7266 20.7969C20.7011 20.9456 20.7193 21.0986 20.7789 21.2372C20.8385 21.3759 20.937 21.4943 21.0625 21.5781C21.8143 22.0927 22.6576 22.4586 23.5469 22.6562C23.6933 22.6841 23.8447 22.6695 23.9832 22.6142C24.1216 22.5588 24.2413 22.465 24.3281 22.3438C24.4055 22.2433 24.5049 22.1619 24.6187 22.1059C24.7324 22.0499 24.8576 22.0207 24.9844 22.0207C25.1112 22.0207 25.2363 22.0499 25.3501 22.1059C25.4639 22.1619 25.5633 22.2433 25.6406 22.3438C25.7125 22.4447 25.8074 22.5271 25.9174 22.5842C26.0275 22.6412 26.1495 22.6713 26.2734 22.6719H26.4375C27.3203 22.4772 28.158 22.1166 28.9062 21.6094C29.0317 21.5255 29.1302 21.4071 29.1898 21.2685C29.2494 21.1298 29.2676 20.9769 29.2422 20.8281C29.2143 20.7002 29.219 20.5674 29.2559 20.4418C29.2927 20.3162 29.3605 20.2019 29.4531 20.1093C29.5456 20.0168 29.66 19.949 29.7856 19.9121C29.9112 19.8753 30.044 19.8706 30.1719 19.8984C30.3206 19.9239 30.4736 19.9057 30.6122 19.8461C30.7509 19.7865 30.8693 19.688 30.9531 19.5625C31.4677 18.8107 31.8336 17.9674 32.0313 17.0781C32.0591 16.9317 32.0445 16.7803 31.9892 16.6418C31.9338 16.5034 31.84 16.3837 31.7187 16.2969C31.6091 16.2261 31.519 16.1289 31.4565 16.0142C31.3941 15.8996 31.3614 15.7712 31.3614 15.6406C31.3614 15.5101 31.3941 15.3816 31.4565 15.267C31.519 15.1524 31.6091 15.0552 31.7187 14.9844C31.84 14.8975 31.9338 14.7778 31.9892 14.6394C32.0445 14.501 32.0591 14.3496 32.0313 14.2031C31.8432 13.316 31.4879 12.4729 30.9844 11.7188C30.9005 11.5933 30.7821 11.4948 30.6435 11.4352C30.5048 11.3756 30.3519 11.3574 30.2031 11.3828C30.0752 11.4107 29.9424 11.406 29.8168 11.3691C29.6912 11.3323 29.5769 11.2645 29.4843 11.1719C29.3918 11.0794 29.324 10.965 29.2871 10.8394C29.2503 10.7138 29.2456 10.581 29.2734 10.4531C29.2989 10.3044 29.2807 10.1514 29.2211 10.0128C29.1615 9.87414 29.063 9.75574 28.9375 9.67188C28.1857 9.15731 27.3424 8.79136 26.4531 8.59375C26.3067 8.56586 26.1553 8.58046 26.0168 8.63584C25.8784 8.69121 25.7587 8.78504 25.6719 8.90625C25.5945 9.00675 25.4951 9.08814 25.3813 9.14414C25.2676 9.20015 25.1424 9.22927 25.0156 9.22927C24.8888 9.22927 24.7637 9.20015 24.6499 9.14414C24.5361 9.08814 24.4367 9.00675 24.3594 8.90625C24.2725 8.78504 24.1528 8.69121 24.0144 8.63584C23.876 8.58046 23.7246 8.56586 23.5781 8.59375C22.691 8.7818 21.8479 9.13709 21.0937 9.64063C20.9626 9.72036 20.8578 9.83699 20.7925 9.97593C20.7271 10.1149 20.7042 10.27 20.7266 10.4219ZM22.2891 10.7266C22.6528 10.5231 23.0379 10.3607 23.4375 10.2422C23.8752 10.6097 24.4284 10.8112 25 10.8112C25.5716 10.8112 26.1248 10.6097 26.5625 10.2422C26.9674 10.3596 27.3579 10.522 27.7266 10.7266C27.7633 11.2947 28.0056 11.8299 28.4081 12.2325C28.8107 12.635 29.346 12.8773 29.9141 12.9141C30.1121 13.2785 30.2693 13.6636 30.3828 14.0625C29.9985 14.4922 29.786 15.0485 29.786 15.625C29.786 16.2015 29.9985 16.7578 30.3828 17.1875C30.2654 17.5924 30.103 17.9829 29.8984 18.3516C29.3303 18.3883 28.7951 18.6306 28.3925 19.0331C27.99 19.4357 27.7477 19.971 27.7109 20.5391C27.3423 20.7436 26.9518 20.9061 26.5469 21.0234C26.1172 20.6391 25.5609 20.4266 24.9844 20.4266C24.4079 20.4266 23.8516 20.6391 23.4219 21.0234C23.0169 20.9061 22.6265 20.7436 22.2578 20.5391C22.221 19.971 21.9788 19.4357 21.5762 19.0331C21.1737 18.6306 20.6384 18.3883 20.0703 18.3516C19.8766 17.9815 19.7246 17.5911 19.6172 17.1875C20.0015 16.7578 20.214 16.2015 20.214 15.625C20.214 15.0485 20.0015 14.4922 19.6172 14.0625C19.7346 13.6576 19.897 13.2671 20.1016 12.8984C20.6697 12.8617 21.2049 12.6194 21.6075 12.2169C22.01 11.8143 22.2523 11.279 22.2891 10.7109V10.7266Z" fill="var(--fill-0, white)"/>
<path id="Vector_2" d="M25 18.75C25.6181 18.75 26.2223 18.5667 26.7362 18.2233C27.2501 17.88 27.6506 17.3919 27.8871 16.8209C28.1236 16.2499 28.1855 15.6215 28.065 15.0153C27.9444 14.4092 27.6467 13.8523 27.2097 13.4153C26.7727 12.9783 26.2158 12.6806 25.6097 12.56C25.0035 12.4395 24.3751 12.5014 23.8041 12.7379C23.2331 12.9744 22.745 13.3749 22.4017 13.8888C22.0583 14.4027 21.875 15.0069 21.875 15.625C21.875 16.4538 22.2042 17.2487 22.7903 17.8347C23.3763 18.4208 24.1712 18.75 25 18.75ZM25 14.0625C25.309 14.0625 25.6111 14.1541 25.8681 14.3258C26.125 14.4975 26.3253 14.7415 26.4436 15.0271C26.5618 15.3126 26.5928 15.6267 26.5325 15.9298C26.4722 16.2329 26.3234 16.5113 26.1049 16.7299C25.8863 16.9484 25.6079 17.0972 25.3048 17.1575C25.0017 17.2178 24.6876 17.1868 24.4021 17.0686C24.1165 16.9503 23.8725 16.75 23.7008 16.4931C23.5291 16.2361 23.4375 15.934 23.4375 15.625C23.4375 15.2106 23.6021 14.8132 23.8951 14.5201C24.1882 14.2271 24.5856 14.0625 25 14.0625Z" fill="var(--fill-0, white)"/>
<path id="Vector_3" d="M13.2813 27.3437H24.2188V30.4687H20.3125C19.6214 30.471 18.9506 30.7022 18.405 31.1263C17.8593 31.5504 17.4696 32.1434 17.2969 32.8125H11.7188C11.5116 32.8125 11.3128 32.8948 11.1663 33.0413C11.0198 33.1878 10.9375 33.3865 10.9375 33.5937V38.2812H12.5V34.375H17.2969C17.4696 35.0441 17.8593 35.6371 18.405 36.0612C18.9506 36.4853 19.6214 36.7165 20.3125 36.7187H29.6875C30.3786 36.7165 31.0494 36.4853 31.595 36.0612C32.1407 35.6371 32.5304 35.0441 32.7031 34.375H37.5V38.2812H39.0625V33.5937C39.0625 33.3865 38.9802 33.1878 38.8337 33.0413C38.6872 32.8948 38.4885 32.8125 38.2813 32.8125H32.7031C32.5304 32.1434 32.1407 31.5504 31.595 31.1263C31.0494 30.7022 30.3786 30.471 29.6875 30.4687H25.7813V27.3437H36.7188C38.8134 27.3373 40.8336 26.566 42.3996 25.1749C43.9656 23.7838 44.9696 21.8686 45.2229 19.7893C45.4762 17.71 44.9614 15.6098 43.7752 13.8834C42.589 12.157 40.8131 10.9232 38.7813 10.4141C38.325 8.76724 37.3413 7.31543 35.9811 6.2811C34.6208 5.24677 32.9589 4.68698 31.25 4.6875C30.5854 4.68806 29.9236 4.77472 29.2813 4.94531C28.0402 3.24818 26.303 1.97805 24.3094 1.31017C22.3158 0.642284 20.1641 0.609575 18.1511 1.21655C16.1381 1.82353 14.3631 3.04028 13.0711 4.6989C11.779 6.35752 11.0335 8.37626 10.9375 10.4766C8.93728 11.0385 7.20836 12.306 6.07075 14.0446C4.93315 15.7831 4.46389 17.8749 4.74984 19.9328C5.03579 21.9907 6.05758 23.8753 7.62609 25.2378C9.19459 26.6003 11.2036 27.3485 13.2813 27.3437ZM29.6875 32.0312C30.1019 32.0312 30.4993 32.1959 30.7924 32.4889C31.0854 32.7819 31.25 33.1793 31.25 33.5937C31.25 34.0082 31.0854 34.4056 30.7924 34.6986C30.4993 34.9916 30.1019 35.1562 29.6875 35.1562H20.3125C19.8981 35.1562 19.5007 34.9916 19.2076 34.6986C18.9146 34.4056 18.75 34.0082 18.75 33.5937C18.75 33.1793 18.9146 32.7819 19.2076 32.4889C19.5007 32.1959 19.8981 32.0312 20.3125 32.0312H29.6875ZM11.8828 11.8594C12.0619 11.8229 12.2226 11.7247 12.3368 11.5819C12.451 11.4392 12.5115 11.2609 12.5078 11.0781L12.5 10.9375C12.4947 9.08031 13.0911 7.27137 14.2 5.78157C15.3089 4.29178 16.8706 3.2013 18.6512 2.67345C20.4318 2.14561 22.3355 2.2088 24.0772 2.85356C25.8189 3.49832 27.3048 4.68995 28.3125 6.25C28.4074 6.39537 28.548 6.505 28.7121 6.56158C28.8762 6.61817 29.0544 6.61849 29.2188 6.5625C30.0572 6.27449 30.9473 6.16813 31.83 6.25049C32.7126 6.33286 33.5677 6.60206 34.3384 7.04022C35.109 7.47838 35.7777 8.07548 36.2999 8.79187C36.8221 9.50825 37.1859 10.3275 37.3672 11.1953C37.3975 11.349 37.4733 11.49 37.5847 11.6001C37.6962 11.7101 37.8381 11.7841 37.9922 11.8125C39.7468 12.0998 41.3274 13.0412 42.4158 14.4471C43.5042 15.853 44.0196 17.619 43.8582 19.3897C43.6968 21.1603 42.8705 22.8041 41.5459 23.99C40.2212 25.1759 38.4964 25.8159 36.7188 25.7812H13.2813C11.5382 25.7811 9.85744 25.1335 8.56488 23.9641C7.27233 22.7948 6.46018 21.187 6.28597 19.4527C6.11176 17.7185 6.58792 15.9813 7.62208 14.5782C8.65624 13.1752 10.1747 12.2062 11.8828 11.8594Z" fill="var(--fill-0, white)"/>
<path id="Vector_4" d="M21.0938 5.46875V3.90625C19.2289 3.90625 17.4405 4.64704 16.1219 5.96566C14.8033 7.28427 14.0625 9.0727 14.0625 10.9375H15.625C15.625 9.4871 16.2012 8.0961 17.2268 7.07051C18.2523 6.04492 19.6433 5.46875 21.0938 5.46875Z" fill="var(--fill-0, white)"/>
<path id="Vector_5" d="M1.5625 49.2188H22.6562C22.8635 49.2188 23.0622 49.1364 23.2087 48.9899C23.3552 48.8434 23.4375 48.6447 23.4375 48.4375V40.625C23.4375 40.4178 23.3552 40.2191 23.2087 40.0726C23.0622 39.9261 22.8635 39.8438 22.6562 39.8438H1.5625C1.3553 39.8438 1.15659 39.9261 1.01007 40.0726C0.86356 40.2191 0.78125 40.4178 0.78125 40.625V48.4375C0.78125 48.6447 0.86356 48.8434 1.01007 48.9899C1.15659 49.1364 1.3553 49.2188 1.5625 49.2188ZM2.34375 41.4062H21.875V47.6562H2.34375V41.4062Z" fill="var(--fill-0, white)"/>
<path id="Vector_6" d="M3.90625 43.75H5.46875V45.3125H3.90625V43.75Z" fill="var(--fill-0, white)"/>
<path id="Vector_7" d="M7.03125 43.75H8.59375V45.3125H7.03125V43.75Z" fill="var(--fill-0, white)"/>
<path id="Vector_8" d="M10.1562 43.75H19.5312V45.3125H10.1562V43.75Z" fill="var(--fill-0, white)"/>
<path id="Vector_9" d="M48.4375 39.8438H27.3438C27.1365 39.8438 26.9378 39.9261 26.7913 40.0726C26.6448 40.2191 26.5625 40.4178 26.5625 40.625V48.4375C26.5625 48.6447 26.6448 48.8434 26.7913 48.9899C26.9378 49.1364 27.1365 49.2188 27.3438 49.2188H48.4375C48.6447 49.2188 48.8434 49.1364 48.9899 48.9899C49.1364 48.8434 49.2188 48.6447 49.2188 48.4375V40.625C49.2188 40.4178 49.1364 40.2191 48.9899 40.0726C48.8434 39.9261 48.6447 39.8438 48.4375 39.8438ZM47.6562 47.6562H28.125V41.4062H47.6562V47.6562Z" fill="var(--fill-0, white)"/>
<path id="Vector_10" d="M44.5312 43.75H46.0938V45.3125H44.5312V43.75Z" fill="var(--fill-0, white)"/>
<path id="Vector_11" d="M41.4062 43.75H42.9688V45.3125H41.4062V43.75Z" fill="var(--fill-0, white)"/>
<path id="Vector_12" d="M30.4688 43.75H39.8438V45.3125H30.4688V43.75Z" fill="var(--fill-0, white)"/>
<path id="Vector_13" d="M21.0938 32.8125H22.6562V34.375H21.0938V32.8125Z" fill="var(--fill-0, white)"/>
<path id="Vector_14" d="M24.2188 32.8125H25.7812V34.375H24.2188V32.8125Z" fill="var(--fill-0, white)"/>
<path id="Vector_15" d="M27.3438 32.8125H28.9062V34.375H27.3438V32.8125Z" fill="var(--fill-0, white)"/>
</g>
<defs>
<clipPath id="clip0_0_4">
<rect width="50" height="50" fill="white"/>
</clipPath>
</defs>
</svg>