<svg xmlns="http://www.w3.org/2000/svg" width="210" height="24" fill="none" viewBox="0 0 210 24"><path fill="#ec1e24" d="M37.354 4.969v5.228h14.9v4.45h-14.9v8.43h-5.155V.517H55.03v4.45ZM64.045 4.969v5.228h14.9v4.45h-14.9v8.43H58.89V.517h22.831v4.45Z"/><path fill="#fff" d="m126.042.518-8.285 22.56h-2.871l-7.25-19.31-7.296 19.31h-2.872L89.206.518h2.966l6.802 19.286L106.295.518h2.73l7.273 19.286L123.124.518ZM147.744 17.026h-15.205l-3.296 6.051h-2.989L138.658.495h3.037l12.404 22.582h-3.06Zm-1.318-2.45-6.285-11.585-6.284 11.586ZM179.307 23.077l-7.485-8.642h-10.733v8.642h-2.73V.517h15.158c5.037.001 8.638 2.52 8.638 6.971 0 3.933-2.848 6.382-6.99 6.876l7.673 8.713Zm-6.002-11.138c3.649 0 6.049-1.39 6.049-4.45 0-3.062-2.424-4.451-6.049-4.451h-12.239v8.901ZM210 20.581v2.496h-21.819V.517h21.489v2.52h-18.782v7.324h15.934v2.52h-15.934v7.7Z"/><path fill="#ec1e24" d="M17.935.73C16.43.259 14.711 0 12.851 0S9.274.259 7.767.73l3.955 3.98 1.13 1.13 1.13-1.13Z"/><path fill="#ec1e24" d="m21.301 2.378-3.53 3.533c1.86 1.177 2.918 3.179 2.918 5.887 0 4.568-3.036 7.135-7.838 7.135-4.825 0-7.838-2.567-7.838-7.135 0-2.708 1.06-4.71 2.92-5.887L4.4 2.378C1.577 4.38 0 7.606 0 11.798c0 7.417 4.966 11.798 12.851 11.798s12.852-4.38 12.852-11.798c0-4.192-1.6-7.418-4.402-9.42"/></svg>