<svg xmlns="http://www.w3.org/2000/svg" preserveAspectRatio="none" width="100%" height="100%" overflow="visible" style="display: block" viewBox="0 0 35.9982 35.9998" fill="none">
<g id="Group">
<path id="Vector" d="M30.5756 11.45C30.5756 12.945 31.7919 14.1612 33.2869 14.1612C34.7819 14.1612 35.9982 12.945 35.9982 11.45C35.9982 9.955 34.7819 8.73872 33.2869 8.73872C33.2268 8.73872 33.1671 8.74069 33.1079 8.74456L32.4364 6.23852C33.8448 5.54401 34.3675 3.80259 33.5868 2.45041C32.8393 1.15573 31.1778 0.710393 29.8831 1.45799C28.7429 2.11623 28.2803 3.45765 28.6535 4.62612L27.6106 5.2343C26.6337 3.72054 25.3024 2.45174 23.6944 1.52872C21.0426 0.00666781 17.9625 -0.39529 15.0215 0.396884C12.267 1.13886 9.93307 2.84779 8.39211 5.23704L7.34464 4.62619C7.71791 3.45765 7.25528 2.1163 6.11507 1.45806C4.8204 0.710533 3.15885 1.15573 2.41139 2.45048C1.66218 3.7481 2.1059 5.40487 3.40381 6.15415C4.56567 6.8249 6.01045 6.53748 6.83602 5.55048L7.8612 6.14832C7.09399 7.61581 6.65688 9.23194 6.57258 10.873L5.3596 10.8677C5.09243 9.65154 4.00643 8.73872 2.71126 8.73872C1.21621 8.73872 0 9.955 0 11.45C0 12.945 1.21628 14.1612 2.71126 14.1612C4.04517 14.1612 5.15718 13.1929 5.38133 11.9223L6.56709 11.9275C6.69562 15.0572 8.11242 17.948 10.3304 19.9466C10.5341 20.1302 10.5647 20.434 10.4012 20.6532C8.13056 23.6984 8.21387 23.5866 6.18292 26.3103C6.00884 26.5438 6.057 26.8742 6.29042 27.0483C6.52392 27.2224 6.85423 27.1743 7.02839 26.9408L8.23208 25.3265L10.8671 26.8478L8.00203 33.5038C7.43885 34.812 5.8569 35.3403 4.61974 34.6259C3.38841 33.915 3.04474 32.2833 3.90047 31.1357L5.52194 28.9612C5.69603 28.7277 5.64787 28.3973 5.41444 28.2232C5.18095 28.0492 4.85056 28.0972 4.67648 28.3307L3.05501 30.5053C1.8293 32.1492 2.30438 34.5069 4.09249 35.5393C4.62058 35.8441 5.21483 35.9998 5.81274 35.9998C7.17794 35.9998 8.42473 35.1893 8.97082 33.9207C9.28335 33.1948 13.0256 24.5012 13.8299 22.6327C13.9381 22.3814 14.2139 22.2551 14.4712 22.3387C15.4304 22.6506 16.4237 22.8295 17.4221 22.878L17.4169 24.0893C16.2007 24.3565 15.2879 25.4425 15.2879 26.7377C15.2879 28.2327 16.5042 29.4489 17.9992 29.4489C19.4941 29.4489 20.7104 28.2327 20.7104 26.7377C20.7104 25.4038 19.7421 24.2918 18.4715 24.0676L18.4767 22.881C20.1674 22.8084 21.843 22.3646 23.3599 21.562C23.6174 21.4258 23.7156 21.1067 23.5794 20.8493C23.4431 20.5918 23.124 20.4936 22.8667 20.6298C20.3829 21.9438 17.4409 22.1952 14.7972 21.3357C14.0184 21.0826 13.1861 21.4609 12.8612 22.2157L11.2871 25.8724L8.8669 24.4751L11.2467 21.2835C11.7376 20.6251 11.6472 19.7134 11.0364 19.163C8.80236 17.15 7.62257 14.3078 7.62257 11.434C7.62257 3.38502 16.3465 -1.47313 23.1695 2.44316C25.5849 3.82959 27.3075 6.07224 28.0289 8.75095C29.1196 12.8012 27.6504 16.8234 24.8244 19.2859C24.6048 19.4772 24.582 19.8102 24.7733 20.0299C24.9646 20.2495 25.2977 20.2723 25.5173 20.081C26.324 19.378 27.0255 18.5668 27.6081 17.6639L28.6536 18.2736C28.2803 19.4424 28.7432 20.7835 29.8832 21.4417C31.1861 22.1939 32.8442 21.7357 33.5868 20.4493C34.3344 19.1545 33.8892 17.4931 32.5944 16.7456C31.4393 16.0787 29.9921 16.3612 29.1626 17.3496L28.1392 16.7527C29.4778 14.1982 29.8016 11.2782 29.0472 8.47675C28.8271 7.65926 28.5223 6.87911 28.1406 6.14593L29.1626 5.54992C29.7174 6.21089 30.5593 6.56638 31.4177 6.5109L32.0894 9.01757C31.1933 9.46087 30.5756 10.3846 30.5756 11.45ZM19.6557 26.7379C19.6557 27.6513 18.9125 28.3945 17.9991 28.3945C17.0856 28.3945 16.3425 27.6513 16.3425 26.7379C16.3425 25.8244 17.0856 25.0813 17.9991 25.0813C18.9125 25.0813 19.6557 25.8244 19.6557 26.7379ZM2.71119 13.1067C1.79774 13.1067 1.0545 12.3635 1.0545 11.4501C1.0545 10.5366 1.79767 9.79343 2.71119 9.79343C3.62472 9.79343 4.36782 10.5366 4.36782 11.4501C4.36782 12.3635 3.62472 13.1067 2.71119 13.1067ZM3.93106 5.24077C3.13818 4.78298 2.86686 3.77081 3.32471 2.97772C3.78221 2.18527 4.79382 1.91289 5.58775 2.37131C6.3807 2.82909 6.65202 3.84133 6.19417 4.63435C5.73639 5.42723 4.72408 5.69876 3.93106 5.24077ZM32.0671 17.6592C32.8601 18.117 33.1314 19.1292 32.6735 19.9222C32.2157 20.7151 31.2035 20.9866 30.4105 20.5287C29.6175 20.0709 29.3462 19.0586 29.8041 18.2656C30.2609 17.4744 31.2725 17.2004 32.0671 17.6592ZM29.8041 4.63442C29.3463 3.84147 29.6174 2.82923 30.4105 2.37138C31.2048 1.91275 32.2166 2.18632 32.6735 2.97779C33.1313 3.77074 32.8602 4.78298 32.0671 5.24084C31.274 5.69862 30.2619 5.42744 29.8041 4.63442ZM34.9436 11.45C34.9436 12.3634 34.2004 13.1066 33.287 13.1066C32.3735 13.1066 31.6304 12.3634 31.6304 11.45C31.6304 10.5365 32.3735 9.79336 33.287 9.79336C34.2004 9.79336 34.9436 10.5365 34.9436 11.45Z" fill="var(--fill-0, white)"/>
<path id="Vector_2" d="M27.2619 11.3508C27.2089 6.28788 23.0483 2.17929 17.9852 2.18675C16.1382 2.18949 14.7844 2.72911 14.0879 3.05057C13.8228 3.1729 13.7083 3.48747 13.8318 3.75211C13.9549 4.01598 14.2686 4.13023 14.5326 4.00698C15.6214 3.499 16.7877 3.24138 17.9991 3.24138C20.8304 3.24138 23.3314 4.68216 24.8075 6.86906L20.0298 9.65534C19.5327 9.0935 18.8066 8.73872 17.9991 8.73872C17.1917 8.73872 16.4656 9.0935 15.9685 9.65534L11.189 6.86807C11.5759 6.29273 12.0376 5.76345 12.567 5.29575C12.7859 5.1024 12.8096 4.76794 12.6163 4.54892C12.4224 4.32914 12.0869 4.30952 11.8687 4.50526C10.9409 5.33709 8.73591 7.60766 8.73591 11.45C8.73591 16.5659 12.8832 20.7132 17.9991 20.7132C23.1482 20.7132 27.316 16.5122 27.2619 11.3508ZM10.6579 7.77921L15.436 10.5657C15.3973 10.6777 15.3656 10.7931 15.3417 10.9111L9.81002 10.887C9.88497 9.79751 10.1764 8.74202 10.6579 7.77921ZM17.4363 19.6395C13.3339 19.3603 10.0493 16.0534 9.80524 11.9417L15.3372 11.9658C15.5449 13.0402 16.3891 13.8906 17.4604 14.1075L17.4363 19.6395ZM16.3425 11.45C16.3425 10.5351 17.0842 9.79336 17.9991 9.79336C18.9141 9.79336 19.6558 10.5351 19.6558 11.45C19.6558 12.3649 18.9141 13.1066 17.9991 13.1066C17.0842 13.1066 16.3425 12.3649 16.3425 11.45ZM18.4909 19.644L18.515 14.1121C19.1128 13.9965 19.6414 13.6838 20.03 13.2447L24.8077 16.031C23.4175 18.0903 21.1186 19.488 18.4909 19.644ZM25.3404 15.1208L20.5624 12.3343C20.6583 12.057 20.7106 11.7595 20.7106 11.45C20.7106 11.1405 20.6584 10.8429 20.5624 10.5656L25.3404 7.77921C25.8953 8.8844 26.2078 10.1313 26.2078 11.4499C26.2078 12.7685 25.8952 14.0156 25.3404 15.1208Z" fill="var(--fill-0, white)"/>
</g>
</svg>