<svg xmlns="http://www.w3.org/2000/svg" fill="none" overflow="visible" preserveAspectRatio="none" style="display:block" viewBox="0 0 35.998 36"><g id="Group" fill="var(--fill-0,white)"><path id="Vector" d="M30.576 11.45a2.714 2.714 0 0 0 2.711 2.711 2.714 2.714 0 0 0 2.711-2.711 2.714 2.714 0 0 0-2.89-2.705l-.672-2.506a2.714 2.714 0 0 0 1.15-3.788 2.712 2.712 0 0 0-4.933 2.176l-1.042.607a11.4 11.4 0 0 0-3.916-3.706A11.37 11.37 0 0 0 15.021.397a11.36 11.36 0 0 0-6.63 4.84l-1.047-.61a2.711 2.711 0 1 0-.509.924l1.025.598a11.5 11.5 0 0 0-1.289 4.725l-1.212-.005a2.716 2.716 0 0 0-2.648-2.129A2.714 2.714 0 0 0 0 11.45a2.714 2.714 0 0 0 2.711 2.711 2.716 2.716 0 0 0 2.67-2.239l1.185.005a11.47 11.47 0 0 0 3.763 8.02.525.525 0 0 1 .07.707L6.184 26.31a.527.527 0 0 0 .845.63l1.204-1.614 2.635 1.522-2.865 6.656A2.385 2.385 0 1 1 3.9 31.136l1.622-2.175a.527.527 0 0 0-.845-.63l-1.622 2.174a3.44 3.44 0 1 0 5.916 3.415l4.859-11.287a.52.52 0 0 1 .641-.294c.96.312 1.953.49 2.951.539l-.005 1.211a2.716 2.716 0 0 0-2.129 2.648 2.714 2.714 0 0 0 2.711 2.711 2.714 2.714 0 0 0 2.711-2.711 2.716 2.716 0 0 0-2.239-2.67l.006-1.186a11.5 11.5 0 0 0 4.883-1.319.527.527 0 1 0-.493-.932 10.45 10.45 0 0 1-8.07.706 1.57 1.57 0 0 0-1.936.88l-1.574 3.656-2.42-1.397 2.38-3.192c.49-.658.4-1.57-.21-2.12-2.235-2.013-3.414-4.855-3.414-7.729 0-8.049 8.723-12.907 15.546-8.99a10.32 10.32 0 0 1 4.86 6.308c1.09 4.05-.379 8.071-3.205 10.534a.527.527 0 1 0 .693.795 11.4 11.4 0 0 0 2.09-2.417l1.047.61a2.711 2.711 0 1 0 .509-.924l-1.024-.597a11.36 11.36 0 0 0 .908-8.276 11.5 11.5 0 0 0-.907-2.33l1.023-.597a2.72 2.72 0 0 0 2.255.961l.671 2.507a2.72 2.72 0 0 0-1.514 2.432m-10.92 15.288c0 .913-.743 1.657-1.657 1.657a1.66 1.66 0 0 1-1.657-1.657c0-.914.744-1.657 1.657-1.657s1.657.743 1.657 1.657M2.71 13.107a1.66 1.66 0 0 1-1.657-1.657c0-.913.744-1.657 1.657-1.657s1.657.744 1.657 1.657-.743 1.657-1.657 1.657m1.22-7.866a1.656 1.656 0 1 1 1.657-2.87 1.656 1.656 0 1 1-1.657 2.87m28.136 12.418a1.656 1.656 0 1 1-1.657 2.87 1.656 1.656 0 1 1 1.657-2.87M29.804 4.634a1.656 1.656 0 1 1 2.87-1.657 1.656 1.656 0 1 1-2.87 1.657m5.14 6.816c0 .913-.744 1.657-1.657 1.657a1.66 1.66 0 0 1-1.657-1.657c0-.913.744-1.657 1.657-1.657s1.657.744 1.657 1.657"/><path id="Vector_2" d="M27.262 11.35c-.053-5.062-4.214-9.17-9.277-9.163a9.2 9.2 0 0 0-3.897.864.527.527 0 1 0 .445.956 8.207 8.207 0 0 1 10.275 2.862L20.03 9.655a2.705 2.705 0 0 0-4.061 0l-4.78-2.787a8.2 8.2 0 0 1 1.378-1.572.527.527 0 1 0-.698-.79c-.928.831-3.133 3.102-3.133 6.944a9.263 9.263 0 0 0 9.263 9.263 9.263 9.263 0 0 0 9.263-9.362M10.658 7.78l4.778 2.786q-.058.168-.094.345l-5.532-.024a8.2 8.2 0 0 1 .848-3.108m6.778 11.86c-4.102-.28-7.387-3.587-7.63-7.698l5.531.024a2.72 2.72 0 0 0 2.123 2.142Zm-1.093-8.19A1.657 1.657 0 1 1 19.656 11.45002648163625 1.657 1.657 0 0 1 16.343 11.45m2.148 8.194.024-5.532a2.7 2.7 0 0 0 1.515-.867l4.778 2.786a8.21 8.21 0 0 1-6.317 3.613m6.85-4.523-4.779-2.787a2.7 2.7 0 0 0 0-1.769L25.34 7.78a8.16 8.16 0 0 1 .867 3.67 8.16 8.16 0 0 1-.867 3.67"/></g></svg>