<svg xmlns="http://www.w3.org/2000/svg" width="563" height="72" fill="none" viewBox="0 0 563 72"><g clip-path="url(#clip0_64_4640)"><path fill="#ec1e24" d="M114.414 15.162v15.952h45.636v13.58h-45.636V70.42H98.625V1.581h69.932v13.58Z"/><path fill="#ec1e24" d="M196.17 15.162v15.952h45.636v13.58H196.17V70.42h-15.789V1.581h69.932v13.58Z"/><path fill="#fff" d="M358.097 25.653c0-7.33-5.84-10.707-14.563-10.707h-29.487v21.341h29.487c8.795 0 14.563-3.305 14.563-10.634"/><path fill="#fff" d="M471.142 14.946h-19.394v42.036h19.394c15.428 0 26.386-7.185 26.386-21.054s-10.958-20.982-26.386-20.982"/><path fill="#fff" d="M273.24 1.58v68.838h266.823l24.44-68.837Zm84.712 61.51-18.024-20.695h-25.81V63.09h-6.561V8.91h36.48c12.112 0 20.764 6.036 20.764 16.67 0 9.414-6.849 15.306-16.871 16.456l18.529 20.982h-8.507Zm73.897 0h-52.557V8.91h51.764v6.036h-45.204V32.48h38.355v6.036h-38.355v18.467h45.997Zm39.796 0h-26.386V8.91h26.386c19.826 0 32.587 10.42 32.587 27.09s-12.761 27.09-32.587 27.09"/><path fill="#ec1e24" d="M54.936 2.228C50.322.79 45.059 0 39.364 0 33.668 0 28.405.79 23.79 2.228L35.903 14.37l3.316 3.306.145.143 3.46-3.449Z"/><path fill="#ec1e24" d="M65.246 7.258 54.432 18.036c5.695 3.593 8.94 9.7 8.94 17.964 0 13.94-9.3 21.773-24.008 21.773-14.78 0-24.008-7.833-24.008-21.773 0-8.263 3.245-14.371 8.94-17.964L13.482 7.258C4.83 13.365 0 23.21 0 36c0 22.635 15.212 36 39.364 36s39.364-13.365 39.364-36c0-12.79-4.903-22.635-13.482-28.742"/></g><defs><clipPath id="clip0_64_4640"><path fill="#fff" d="M0 0h563v72H0Z"/></clipPath></defs></svg>