<svg xmlns="http://www.w3.org/2000/svg" width="188" height="24" viewBox="0 0 188 24" fill="none">
<g clip-path="url(#clip0_6_284)">
<path d="M38.2059 5.05392V10.3713H53.4449V14.8982H38.2059V23.4731H32.9336V0.526978H56.2857V5.05392H38.2059Z" fill="white"/>
<path d="M65.5062 5.05392V10.3713H80.7452V14.8982H65.5062V23.4731H60.2339V0.526978H83.586V5.05392H65.5062Z" fill="white"/>
<path d="M119.577 8.55092C119.577 6.1078 117.627 4.98206 114.714 4.98206H104.868V12.0958H114.714C117.651 12.0958 119.577 10.994 119.577 8.55092Z" fill="white"/>
<path d="M157.326 4.98206H150.85V18.994H157.326C162.478 18.994 166.137 16.5988 166.137 11.9761C166.137 7.35331 162.478 4.98206 157.326 4.98206Z" fill="white"/>
<path d="M91.2419 0.5271V23.4732H180.341L188.502 0.5271H91.2419ZM119.529 21.0301L113.511 14.1319H104.892V21.0301H102.701V2.97021H114.883C118.927 2.97021 121.816 4.98219 121.816 8.5271C121.816 11.6648 119.529 13.6289 116.183 14.0121L122.37 21.0061H119.529V21.0301ZM144.205 21.0301H126.655V2.97021H143.941V4.98219H128.846V10.8265H141.654V12.8385H128.846V18.9942H144.205V21.0301ZM157.494 21.0301H148.683V2.97021H157.494C164.115 2.97021 168.376 6.44327 168.376 12.0002C168.376 17.557 164.115 21.0301 157.494 21.0301Z" fill="white"/>
<path d="M18.3447 0.742515C16.8039 0.263473 15.0465 0 13.1446 0C11.2428 0 9.48534 0.263473 7.94458 0.742515L11.9891 4.79042L13.0965 5.89222L13.1446 5.94012L14.3002 4.79042L18.3447 0.742515Z" fill="white"/>
<path d="M21.7872 2.41919L18.1761 6.012C20.078 7.20961 21.1613 9.24554 21.1613 12C21.1613 16.6467 18.0557 19.2575 13.1446 19.2575C8.20933 19.2575 5.12782 16.6467 5.12782 12C5.12782 9.24554 6.21117 7.20961 8.11304 6.012L4.50189 2.41919C1.61298 4.45512 0 7.73655 0 12C0 19.5449 5.07968 24 13.1446 24C21.2095 24 26.2891 19.5449 26.2891 12C26.2891 7.73655 24.6521 4.45512 21.7872 2.41919Z" fill="white"/>
</g>
<defs>
<clipPath id="clip0_6_284">
<rect width="188" height="24" fill="white"/>
</clipPath>
</defs>
</svg>