<svg xmlns="http://www.w3.org/2000/svg" width="188" height="24" fill="none" viewBox="0 0 188 24"><g fill="#fff" clip-path="url(#clip0_6_284)"><path d="M38.206 5.054v5.317h15.239v4.527H38.206v8.575h-5.272V.527h23.352v4.527Z"/><path d="M65.506 5.054v5.317h15.239v4.527H65.506v8.575h-5.272V.527h23.352v4.527Z"/><path d="M119.577 8.55c0-2.442-1.95-3.568-4.863-3.568h-9.846v7.114h9.846c2.937 0 4.863-1.102 4.863-3.545"/><path d="M157.326 4.982h-6.476v14.012h6.476c5.152 0 8.811-2.395 8.811-7.018s-3.659-6.994-8.811-6.994"/><path d="M91.242.527v22.946h89.1l8.16-22.946Zm28.287 20.503-6.018-6.898h-8.619v6.898h-2.191V2.97h12.182c4.044 0 6.933 2.012 6.933 5.557 0 3.138-2.287 5.102-5.633 5.485l6.187 6.994h-2.841Zm24.676 0h-17.55V2.97h17.286v2.012h-15.095v5.844h12.808v2.012h-12.808v6.156h15.359Zm13.289 0h-8.811V2.97h8.811c6.621 0 10.882 3.473 10.882 9.03s-4.261 9.03-10.882 9.03"/><path d="M18.345.743C16.804.263 15.047 0 13.145 0s-3.66.263-5.2.743l4.044 4.047 1.108 1.102.048.048L14.3 4.79Z"/><path d="m21.787 2.42-3.61 3.592C20.077 7.21 21.16 9.246 21.16 12c0 4.647-3.105 7.258-8.016 7.258-4.936 0-8.017-2.611-8.017-7.258 0-2.754 1.083-4.79 2.985-5.988L4.502 2.419C1.613 4.455 0 7.737 0 12c0 7.545 5.08 12 13.145 12s13.144-4.455 13.144-12c0-4.263-1.637-7.545-4.502-9.58"/></g><defs><clipPath id="clip0_6_284"><path fill="#fff" d="M0 0h188v24H0Z"/></clipPath></defs></svg>