<svg xmlns="http://www.w3.org/2000/svg" width="600" height="72" viewBox="0 0 600 72" fill="none">
<path d="M114.268 15.1617V31.1138H159.846V44.6946H114.268V70.4192H98.4998V1.58084H168.343V15.1617H114.268Z" fill="#EC1E24"/>
<path d="M195.92 15.1617V31.1138H241.498V44.6946H195.92V70.4192H180.152V1.58084H249.994V15.1617H195.92Z" fill="#EC1E24"/>
<path d="M272.891 70.4192H575.591L600 1.50897H272.891V70.4192ZM329.629 14.8024V63.0898H323.149V14.8024H297.588V8.91017H355.334V14.8024H329.629ZM418.409 63.0898H365.919V8.91017H417.617V14.9461H372.471V32.479H410.776V38.515H372.471V56.982H418.409V63.0898ZM458.01 64.6707C446.13 64.6707 434.753 60.9341 426.329 53.5329L430.865 48.6467C438.786 55.6168 447.498 58.6347 458.37 58.6347C471.475 58.6347 479.107 54.5389 479.107 47.7844C479.107 41.2455 471.115 39.5928 456.498 38.3713C442.026 37.1497 428.129 33.988 428.129 23.2814C428.129 13.0778 441.018 7.25748 455.49 7.25748C467.299 7.25748 476.947 11.3533 483.211 16.9581L478.099 21.2695C472.843 16.0958 464.851 13.3653 455.778 13.2934C446.058 13.2215 434.753 15.9521 434.753 23.0659C434.753 29.8204 444.978 31.1856 457.794 32.1916C474.283 33.485 485.731 36.6467 485.731 47.3533C485.803 57.3413 475.651 64.6707 458.01 64.6707ZM521.877 14.8024V63.0898H515.397V14.8024H489.836V8.91017H547.582V14.8024H521.877Z" fill="white"/>
<path d="M54.8665 2.22754C50.2583 0.790419 45.0021 0 39.3139 0C33.6256 0 28.3694 0.790419 23.7612 2.22754L35.8577 14.3713L39.3139 17.8204L42.77 14.3713L54.8665 2.22754Z" fill="#EC1E24"/>
<path d="M65.1626 7.25748L54.3622 18.0359C60.0504 21.6287 63.2905 27.7365 63.2905 36C63.2905 49.9401 54.0022 57.7724 39.3136 57.7724C24.553 57.7724 15.3366 49.9401 15.3366 36C15.3366 27.7365 18.5767 21.6287 24.265 18.0359L13.4645 7.25748C4.82419 13.3653 0 23.2096 0 36C0 58.6347 15.1926 72 39.3136 72C63.4345 72 78.6271 58.6347 78.6271 36C78.6271 23.2096 73.7309 13.3653 65.1626 7.25748Z" fill="#EC1E24"/>
</svg>