<svg xmlns="http://www.w3.org/2000/svg" width="200" height="24" fill="none" viewBox="0 0 200 24"><g fill="#fff" clip-path="url(#clip0_6_296)"><path d="M38.09 5.054v5.317h15.193v4.527H38.09v8.575h-5.256V.527h23.28v4.527Z"/><path d="M65.307 5.054v5.317H80.5v4.527H65.306v8.575H60.05V.527h23.281v4.527Z"/><path d="M90.964.527v22.946h100.9L200 .503H90.964Zm27.457 4.407h-8.545V21.03h-2.16V4.934h-8.52V2.97h19.249v1.964ZM139.47 21.03h-17.497V2.97h17.233v2.012h-15.049v5.844h12.768v2.012h-12.768v6.156h15.313Zm13.2.527c-3.96 0-7.752-1.246-10.56-3.713l1.512-1.628c2.64 2.323 5.544 3.329 9.168 3.329 4.368 0 6.912-1.365 6.912-3.617 0-2.18-2.664-2.73-7.536-3.138-4.824-.407-9.456-1.46-9.456-5.03 0-3.4 4.296-5.34 9.12-5.34 3.936 0 7.152 1.364 9.24 3.233l-1.704 1.437c-1.752-1.725-4.416-2.635-7.44-2.659-3.24-.024-7.008.886-7.008 3.258 0 2.251 3.408 2.706 7.68 3.042 5.496.43 9.312 1.485 9.312 5.054.024 3.329-3.36 5.772-9.24 5.772m29.833-16.623h-8.544V21.03h-2.16V4.934h-8.52V2.97h19.248v1.964Z"/><path d="M18.289.743C16.753.263 15 0 13.105 0S9.456.263 7.92.743l4.033 4.047 1.104 1.102.048.048 1.152-1.15Z"/><path d="m21.72 2.42-3.6 3.592C20.018 7.21 21.098 9.246 21.098 12c0 4.647-3.096 7.258-7.993 7.258-4.92 0-7.992-2.611-7.992-7.258 0-2.754 1.08-4.79 2.976-5.988l-3.6-3.593C1.608 4.455 0 7.737 0 12c0 7.545 5.064 12 13.105 12 8.04 0 13.104-4.455 13.104-12 0-4.263-1.632-7.545-4.488-9.58"/></g><defs><clipPath id="clip0_6_296"><path fill="#fff" d="M0 0h200v24H0Z"/></clipPath></defs></svg>