<svg xmlns="http://www.w3.org/2000/svg" width="528" height="72" fill="none" overflow="visible" style="display:block" viewBox="0 0 528 72"><g id="Group"><path id="Vector" fill="var(--fill-0,#ec1e24)" d="M114.067 15.162v15.952h45.497v13.58h-45.497V70.42h-15.74V1.581h69.72v13.58Z"/><path id="Vector_2" fill="var(--fill-0,#ec1e24)" d="M195.574 15.162v15.952h45.498v13.58h-45.498V70.42h-15.741V1.581h69.72v13.58Z"/><g id="Group_2" fill="var(--fill-0,white)"><path id="Vector_3" d="M272.409 1.58v68.838h231.225L528 1.51H272.409Zm56.639 61.51h-6.469V14.803h-25.516V8.91h57.644v5.892H329.12V63.09Zm79.135 0-7.906-14.515h-36.513l-7.907 14.515h-7.187l29.756-54.108h7.26l29.756 54.108Zm43.269-4.455c9.416 0 17.25-3.09 21.419-10.348l6.182 3.09c-5.104 8.12-14.519 13.294-27.745 13.294-20.197 0-32.559-11.138-32.559-28.671s12.362-28.67 32.775-28.67c13.01 0 22.425 5.245 27.529 13.293l-6.182 3.09c-4.24-7.186-12.003-10.348-21.419-10.348-15.669 0-26.091 7.76-26.091 22.635.072 14.946 10.422 22.635 26.091 22.635"/><path id="Vector_4" d="M366.926 42.683h30.188L382.02 14.874Z"/></g><g id="Group_3" fill="var(--fill-0,#ec1e24)"><path id="Vector_5" d="M54.77 2.228C50.17.79 44.921 0 39.243 0S28.32.79 23.72 2.228L35.794 14.37l3.307 3.306.143.143 3.45-3.449Z"/><path id="Vector_6" d="M65.048 7.257 54.266 18.036c5.679 3.593 8.913 9.7 8.913 17.964 0 13.94-9.272 21.773-23.935 21.773C24.51 57.773 15.31 49.94 15.31 36c0-8.264 3.234-14.371 8.912-17.964L13.441 7.257C4.816 13.365 0 23.21 0 36c0 22.635 15.166 36 39.244 36 24.079 0 39.244-13.365 39.244-36 0-12.79-4.887-22.635-13.44-28.743"/></g></g></svg>