<svg xmlns="http://www.w3.org/2000/svg" width="176" height="24" fill="none" viewBox="0 0 176 24"><g fill="#fff" clip-path="url(#clip0_6_273)"><path d="M38.022 5.054v5.317h15.166v4.527H38.022v8.575h-5.247V.527h23.24v4.527Z"/><path d="M65.192 5.054v5.317h15.166v4.527H65.191v8.575h-5.247V.527h23.24v4.527Z"/><path d="M90.803.527v22.946h77.075L176 .503H90.803Zm18.88 20.503h-2.157V4.934h-8.505V2.97h19.215v1.964h-8.529V21.03Zm26.378 0-2.635-4.838h-12.171l-2.636 4.838h-2.396l9.919-18.036h2.42l9.919 18.036Zm14.423-1.485c3.139 0 5.75-1.03 7.14-3.45l2.06 1.03c-1.701 2.707-4.839 4.432-9.248 4.432-6.732 0-10.853-3.713-10.853-9.557s4.121-9.557 10.925-9.557c4.337 0 7.475 1.749 9.176 4.431l-2.06 1.03c-1.414-2.395-4.001-3.449-7.14-3.449-5.223 0-8.697 2.587-8.697 7.545.024 4.982 3.474 7.545 8.697 7.545"/><path d="M122.309 14.228h10.062l-5.031-9.27Z"/><path d="M18.256.743C16.723.263 14.974 0 13.081 0 11.19 0 9.44.263 7.906.743l4.025 4.047 1.102 1.102.048.048 1.15-1.15Z"/><path d="m21.683 2.42-3.594 3.592c1.893 1.198 2.97 3.234 2.97 5.988 0 4.647-3.09 7.258-7.978 7.258-4.911 0-7.978-2.611-7.978-7.258 0-2.754 1.078-4.79 2.971-5.988L4.48 2.419C1.605 4.455 0 7.737 0 12c0 7.545 5.055 12 13.081 12s13.082-4.455 13.082-12c0-4.263-1.63-7.545-4.48-9.58"/></g><defs><clipPath id="clip0_6_273"><path fill="#fff" d="M0 0h176v24H0Z"/></clipPath></defs></svg>