<svg xmlns="http://www.w3.org/2000/svg" width="600" height="72" fill="none" viewBox="0 0 600 72"><path fill="#ec1e24" d="M114.268 15.162v15.952h45.578v13.58h-45.578V70.42H98.5V1.581h69.843v13.58ZM195.92 15.162v15.952h45.578v13.58H195.92V70.42h-15.768V1.581h69.842v13.58Z"/><path fill="#fff" d="M272.891 70.42h302.7L600 1.508H272.891Zm56.738-55.618V63.09h-6.48V14.803h-25.561V8.91h57.746v5.892Zm88.78 48.288h-52.49V8.91h51.698v6.036h-45.146V32.48h38.305v6.036h-38.305v18.467h45.938Zm39.601 1.58c-11.88 0-23.257-3.736-31.681-11.137l4.536-4.886c7.921 6.97 16.633 9.988 27.505 9.988 13.105 0 20.737-4.096 20.737-10.85 0-6.54-7.992-8.192-22.609-9.414-14.472-1.221-28.369-4.383-28.369-15.09 0-10.203 12.889-16.024 27.361-16.024 11.809 0 21.457 4.096 27.721 9.701l-5.112 4.312c-5.256-5.174-13.248-7.905-22.321-7.977-9.72-.071-21.025 2.66-21.025 9.773 0 6.754 10.225 8.12 23.041 9.126 16.489 1.293 27.937 4.455 27.937 15.161.072 9.988-10.08 17.318-27.721 17.318m63.867-49.868V63.09h-6.48V14.803h-25.561V8.91h57.746v5.892Z"/><path fill="#ec1e24" d="M54.867 2.228C50.258.79 45.002 0 39.314 0S28.369.79 23.76 2.228L35.858 14.37l3.456 3.45 3.456-3.45Z"/><path fill="#ec1e24" d="m65.163 7.257-10.8 10.779c5.687 3.593 8.928 9.7 8.928 17.964 0 13.94-9.289 21.772-23.977 21.772-14.761 0-23.977-7.832-23.977-21.772 0-8.264 3.24-14.371 8.928-17.964l-10.8-10.779C4.824 13.365 0 23.21 0 36c0 22.635 15.193 36 39.314 36s39.313-13.365 39.313-36c0-12.79-4.896-22.635-13.464-28.743"/></svg>