<svg xmlns="http://www.w3.org/2000/svg" preserveAspectRatio="none" width="100%" height="100%" overflow="visible" style="display: block" viewBox="0 0 33.7504 33.7529" fill="none">
<g id="Outline">
<path id="Vector" d="M33.4784 20.6124L33.4705 20.5994C33.1103 20.0511 32.5605 19.6548 31.9264 19.4866C31.2922 19.3183 30.6183 19.3899 30.0336 19.6876L26.4291 21.5315C25.9977 20.9251 25.3625 20.4941 24.6397 20.3171C23.9168 20.1402 23.1545 20.229 22.4916 20.5674L17.9528 22.8939C17.7159 23.0156 17.453 23.0783 17.1867 23.0766C16.9203 23.0749 16.6582 23.009 16.4228 22.8843L13.3291 21.2418C12.1583 20.6168 10.8372 20.3284 9.51242 20.4086C8.18766 20.4889 6.91103 20.9346 5.8242 21.6963L5.47433 20.0302C5.45909 19.9577 5.42968 19.8889 5.38778 19.8278C5.34587 19.7667 5.29231 19.7144 5.23016 19.6741C5.16802 19.6337 5.09851 19.606 5.02563 19.5926C4.95276 19.5792 4.87795 19.5803 4.80551 19.5959L0.443888 20.537C0.29868 20.5683 0.171758 20.6558 0.090823 20.7804C0.0098881 20.9049 -0.018488 21.0565 0.011888 21.2019L2.55158 33.3029C2.57747 33.4298 2.64634 33.5438 2.74656 33.6258C2.84679 33.7078 2.97222 33.7527 3.1017 33.7529C3.14139 33.7528 3.18096 33.7486 3.21983 33.7406L7.5837 32.8012C7.72913 32.77 7.85629 32.6825 7.93735 32.5578C8.01842 32.4331 8.04679 32.2813 8.01626 32.1357L7.79126 31.0524L9.28245 30.7317C9.7169 30.6391 10.1641 30.622 10.6043 30.6811L17.6181 31.4501C19.0742 31.643 20.5506 31.2964 21.7688 30.4758L33.0036 22.9383C33.371 22.6895 33.6264 22.3068 33.7152 21.8721C33.8039 21.4374 33.7189 20.9852 33.4784 20.6124ZM3.53651 32.5188L1.22745 21.5191L4.48995 20.816L6.8007 31.8162L3.53651 32.5188ZM32.3776 22.0057L21.1433 29.5432C20.1467 30.2109 18.9403 30.491 17.7515 30.3307L10.7382 29.5617C10.1738 29.4862 9.60056 29.509 9.04395 29.6292L7.55783 29.9487L6.07508 22.8939L6.45926 22.6261C7.37675 21.9808 8.45527 21.6027 9.57485 21.5338C10.6944 21.4648 11.8112 21.7078 12.8009 22.2357L15.8946 23.8782C16.2899 24.0885 16.7301 24.1999 17.1778 24.203C17.6255 24.206 18.0672 24.1006 18.4653 23.8957L23.0063 21.5664C23.4601 21.3344 23.9856 21.2855 24.4744 21.4298C24.9632 21.574 25.378 21.9004 25.6332 22.3415C25.7084 22.4706 25.7297 22.6242 25.6924 22.7688C25.6552 22.9135 25.5623 23.0377 25.4341 23.1144L19.1757 26.8269C18.0813 27.4802 16.7773 27.6867 15.5346 27.4034L9.88939 26.0534L9.62783 27.1481L15.2787 28.4981C16.804 28.8475 18.4053 28.5954 19.7495 27.7944L26.0084 24.0819C26.2646 23.9279 26.4754 23.7087 26.6191 23.4466C26.7628 23.1845 26.8343 22.8889 26.8263 22.5901L30.5438 20.6877C30.8805 20.5168 31.2683 20.4756 31.6334 20.5719C31.9984 20.6683 32.3154 20.8955 32.5238 21.2103L32.53 21.2204C32.611 21.3457 32.6403 21.4974 32.6119 21.6438C32.5835 21.7901 32.4995 21.9198 32.3776 22.0057Z" fill="var(--fill-0, white)"/>
<path id="Vector_2" d="M3.64142 22.1519L2.54039 22.3829L2.77114 23.4829L3.87217 23.2519L3.64142 22.1519Z" fill="var(--fill-0, white)"/>
<path id="Vector_3" d="M10.6875 14.625C10.5383 14.625 10.3952 14.6843 10.2898 14.7898C10.1843 14.8952 10.125 15.0383 10.125 15.1875V18.5625C10.125 18.7117 10.1843 18.8548 10.2898 18.9602C10.3952 19.0657 10.5383 19.125 10.6875 19.125H12.9375C13.0867 19.125 13.2298 19.0657 13.3352 18.9602C13.4407 18.8548 13.5 18.7117 13.5 18.5625V15.1875C13.5 15.0383 13.4407 14.8952 13.3352 14.7898C13.2298 14.6843 13.0867 14.625 12.9375 14.625H10.6875ZM12.375 18H11.25V15.75H12.375V18Z" fill="var(--fill-0, white)"/>
<path id="Vector_4" d="M15.75 10.6875C15.6008 10.6875 15.4577 10.7468 15.3523 10.8523C15.2468 10.9577 15.1875 11.1008 15.1875 11.25V18.5625C15.1875 18.7117 15.2468 18.8548 15.3523 18.9602C15.4577 19.0657 15.6008 19.125 15.75 19.125H18C18.1492 19.125 18.2923 19.0657 18.3977 18.9602C18.5032 18.8548 18.5625 18.7117 18.5625 18.5625V11.25C18.5625 11.1008 18.5032 10.9577 18.3977 10.8523C18.2923 10.7468 18.1492 10.6875 18 10.6875H15.75ZM17.4375 18H16.3125V11.8125H17.4375V18Z" fill="var(--fill-0, white)"/>
<path id="Vector_5" d="M20.8125 12.375C20.6633 12.375 20.5202 12.4343 20.4148 12.5398C20.3093 12.6452 20.25 12.7883 20.25 12.9375V18.5625C20.25 18.7117 20.3093 18.8548 20.4148 18.9602C20.5202 19.0657 20.6633 19.125 20.8125 19.125H23.0625C23.2117 19.125 23.3548 19.0657 23.4602 18.9602C23.5657 18.8548 23.625 18.7117 23.625 18.5625V12.9375C23.625 12.7883 23.5657 12.6452 23.4602 12.5398C23.3548 12.4343 23.2117 12.375 23.0625 12.375H20.8125ZM22.5 18H21.375V13.5H22.5V18Z" fill="var(--fill-0, white)"/>
<path id="Vector_6" d="M25.875 9.5625C25.7258 9.5625 25.5827 9.62176 25.4773 9.72725C25.3718 9.83274 25.3125 9.97582 25.3125 10.125V18.5625C25.3125 18.7117 25.3718 18.8548 25.4773 18.9602C25.5827 19.0657 25.7258 19.125 25.875 19.125H28.125C28.2742 19.125 28.4173 19.0657 28.5227 18.9602C28.6282 18.8548 28.6875 18.7117 28.6875 18.5625V10.125C28.6875 9.97582 28.6282 9.83274 28.5227 9.72725C28.4173 9.62176 28.2742 9.5625 28.125 9.5625H25.875ZM27.5625 18H26.4375V10.6875H27.5625V18Z" fill="var(--fill-0, white)"/>
<path id="Vector_7" d="M10.6879 5.85788L14.2277 9.39769C14.3332 9.50314 14.4763 9.56238 14.6254 9.56238C14.7746 9.56238 14.9176 9.50314 15.0231 9.39769L21.3754 3.04538L26.0402 7.71019C26.1457 7.81564 26.2888 7.87488 26.4379 7.87488C26.5871 7.87488 26.7301 7.81564 26.8356 7.71019L32.6254 1.92038V3.375H33.7504V0.5625C33.7504 0.413316 33.6912 0.270242 33.5857 0.164752C33.4802 0.0592632 33.3371 0 33.1879 0H30.3754V1.125H31.83L26.4379 6.51713L21.7731 1.85231C21.6676 1.74686 21.5246 1.68762 21.3754 1.68762C21.2263 1.68762 21.0832 1.74686 20.9777 1.85231L14.6254 8.20463L11.0856 4.66481C10.9801 4.55936 10.8371 4.50012 10.6879 4.50012C10.5388 4.50012 10.3957 4.55936 10.2902 4.66481L2.41523 12.5398L3.21061 13.3352L10.6879 5.85788Z" fill="var(--fill-0, white)"/>
</g>
</svg>