<svg xmlns="http://www.w3.org/2000/svg" fill="none" overflow="visible" preserveAspectRatio="none" style="display:block" viewBox="0 0 33.75 33.753"><g id="Outline" fill="var(--fill-0,white)"><path id="Vector" d="m33.478 20.612-.008-.013a2.665 2.665 0 0 0-3.437-.912l-3.604 1.845a3.1 3.1 0 0 0-3.938-.964l-4.538 2.326a1.65 1.65 0 0 1-1.53-.01l-3.094-1.642a7.18 7.18 0 0 0-7.505.454l-.35-1.666a.563.563 0 0 0-.669-.434l-4.361.941a.56.56 0 0 0-.432.665l2.54 12.1a.56.56 0 0 0 .668.438l4.364-.939a.563.563 0 0 0 .433-.666l-.226-1.083 1.491-.32a3.9 3.9 0 0 1 1.322-.05l7.014.768a6.02 6.02 0 0 0 4.15-.974l11.236-7.538a1.7 1.7 0 0 0 .475-2.326M3.537 32.52l-2.31-11 3.263-.703 2.31 11Zm28.84-10.513-11.234 7.537a4.9 4.9 0 0 1-3.392.788l-7.013-.77a4.9 4.9 0 0 0-1.694.068l-1.486.32-1.483-7.055.384-.268a6.06 6.06 0 0 1 6.342-.39l3.094 1.642a2.77 2.77 0 0 0 2.57.018l4.541-2.33a1.99 1.99 0 0 1 2.627.775.57.57 0 0 1-.2.773l-6.257 3.713a4.96 4.96 0 0 1-3.641.577l-5.646-1.35-.261 1.094 5.65 1.35a6.08 6.08 0 0 0 4.47-.704l6.26-3.712a1.69 1.69 0 0 0 .818-1.492l3.718-1.902a1.54 1.54 0 0 1 1.98.523l.006.01a.577.577 0 0 1-.152.785"/><path id="Vector_2" d="m3.641 22.152-1.1.23.23 1.1 1.101-.23Z"/><path id="Vector_3" d="M10.688 14.625a.56.56 0 0 0-.563.563v3.375a.56.56 0 0 0 .563.563h2.25a.56.56 0 0 0 .563-.563v-3.375a.56.56 0 0 0-.563-.563ZM12.375 18H11.25v-2.25h1.125Z"/><path id="Vector_4" d="M15.75 10.688a.56.56 0 0 0-.563.563v7.313a.56.56 0 0 0 .563.563H18a.56.56 0 0 0 .563-.563V11.25a.56.56 0 0 0-.563-.563ZM17.438 18h-1.125v-6.188h1.125Z"/><path id="Vector_5" d="M20.813 12.375a.56.56 0 0 0-.563.563v5.625a.56.56 0 0 0 .563.563h2.25a.56.56 0 0 0 .563-.563v-5.625a.56.56 0 0 0-.563-.563ZM22.5 18h-1.125v-4.5H22.5Z"/><path id="Vector_6" d="M25.875 9.563a.56.56 0 0 0-.563.563v8.438a.56.56 0 0 0 .563.563h2.25a.56.56 0 0 0 .563-.563v-8.438a.563.563 0 0 0-.563-.563ZM27.563 18h-1.125v-7.313h1.125Z"/><path id="Vector_7" d="m10.688 5.858 3.54 3.54a.563.563 0 0 0 .795 0l6.352-6.353L26.04 7.71a.563.563 0 0 0 .795 0l5.79-5.79v1.455h1.125V.562A.56.56 0 0 0 33.187 0h-2.813v1.125h1.455l-5.391 5.393-4.665-4.665A.56.56 0 0 0 20.978 1.852l-6.353 6.353-3.54-3.54a.56.56 0 0 0-.795 0L2.415 12.54l.796.795Z"/></g></svg>