<svg xmlns="http://www.w3.org/2000/svg" fill="none" overflow="visible" preserveAspectRatio="none" style="display:block" viewBox="0 0 45.885 50"><g id="Group" fill="var(--fill-0,white)"><path id="Vector" d="M45.299 26.667 30.765 2.05A4.14 4.14 0 0 0 27.136 0a4.13 4.13 0 0 0-3.592 2.117L20.927 6.74a.834.834 0 0 0 1.452.822l2.617-4.624a2.48 2.48 0 0 1 2.155-1.27h.024c.895 0 1.699.459 2.154 1.23l14.533 24.617c.462.783.47 1.723.018 2.513a2.48 2.48 0 0 1-2.173 1.262h-4.583a.834.834 0 0 0 0 1.668h4.583c1.516 0 2.87-.786 3.622-2.103a4.13 4.13 0 0 0-.03-4.189"/><path id="Vector_2" d="M33.48 35.643a17.8 17.8 0 0 0 2.392-8.942c0-9.89-8.046-17.935-17.936-17.935S0 16.812 0 26.702s8.046 17.936 17.936 17.936c2.815 0 5.48-.653 7.853-1.813l5.71 5.71A4.97 4.97 0 0 0 35.04 50c4.428 0 7.116-5.682 3.897-8.901Zm.724-8.941c0 3.047-.843 5.901-2.307 8.342H9.507a2.48 2.48 0 0 1-2.167-1.248 2.48 2.48 0 0 1-.007-2.497l11.89-20.814q1.306.104 2.547.407a2.9 2.9 0 0 0-.497 1.628v10.01c0 1.592 1.33 2.92 2.92 2.92 1.61 0 2.92-1.31 2.92-2.92v-9.254c4.278 2.935 7.09 7.858 7.09 13.426m-8.76-14.428V22.53c0 .69-.561 1.25-1.25 1.25a1.26 1.26 0 0 1-1.252-1.251V12.52c0-.453.242-.86.622-1.082q.971.361 1.88.836M1.668 26.702c0-8.765 6.968-15.932 15.655-16.255L5.883 30.47a4.13 4.13 0 0 0 .012 4.162 4.13 4.13 0 0 0 3.61 2.08H30.75c-2.98 3.806-7.615 6.256-12.813 6.256-8.97 0-16.268-7.297-16.268-16.267m36.093 20.3c-1.274 1.533-3.633 1.803-5.082.354l-5.369-5.369a18.1 18.1 0 0 0 5.247-4.907l5.199 5.199c1.355 1.355 1.11 3.392.005 4.722"/><path id="Vector_3" d="M24.193 26.702a3.34 3.34 0 0 0-3.337 3.337 3.34 3.34 0 0 0 3.337 3.337 3.34 3.34 0 0 0 3.337-3.337 3.34 3.34 0 0 0-3.337-3.337m0 5.005a1.67 1.67 0 0 1-1.669-1.668c0-.92.749-1.669 1.669-1.669s1.668.749 1.668 1.669a1.67 1.67 0 0 1-1.668 1.668"/></g></svg>