<svg xmlns="http://www.w3.org/2000/svg" fill="none" overflow="visible" preserveAspectRatio="none" style="display:block" viewBox="0 0 36 36"><g id="quarantine 1"><path id="Vector" fill="var(--fill-0,white)" fill-rule="evenodd" d="M.494 30.016V5.986c0-1.122.918-2.04 2.04-2.04h30.933c1.123 0 2.039.918 2.039 2.04v24.03c0 1.12-.916 2.038-2.038 2.038H2.535a2.046 2.046 0 0 1-2.04-2.038M34.377 9.211V5.986c0-.5-.409-.91-.91-.91H2.535c-.5 0-.91.41-.91.91V9.21ZM1.624 10.34v19.676c0 .5.41.909.91.909h30.933c.501 0 .91-.41.91-.909V10.34Zm6.752-2.336a.862.862 0 0 1 0-1.721.862.862 0 0 1 0 1.721m-3.307 0a.862.862 0 0 1 0-1.721c.474 0 .862.386.862.86 0 .475-.388.86-.862.86m6.613 0a.862.862 0 0 1 0-1.721c.474 0 .861.386.861.86 0 .475-.387.86-.861.86m-5.78 7.016a2.198 2.198 0 1 1-.382-4.36 2.198 2.198 0 0 1 1.406 3.885l.872 1.876h2.382A8.88 8.88 0 0 1 18 11.75a8.88 8.88 0 0 1 7.82 4.67h2.382l.871-1.877a2.198 2.198 0 1 1 3.603-1.688 2.198 2.198 0 0 1-2.579 2.164l-1.023 2.203a.56.56 0 0 1-.512.327h-2.23c.293.792.477 1.638.532 2.518h1.491a2.198 2.198 0 1 1 2.124 2.762 2.2 2.2 0 0 1-2.124-1.632h-1.491a8.8 8.8 0 0 1-.533 2.518h2.23c.221-.001.42.127.513.326l1.023 2.203q.186-.033.382-.034a2.198 2.198 0 0 1 0 4.394 2.198 2.198 0 0 1-1.406-3.885l-.871-1.876H25.82a8.88 8.88 0 0 1-7.82 4.67 8.88 8.88 0 0 1-7.82-4.67H7.798l-.871 1.877a2.198 2.198 0 1 1-3.603 1.688 2.198 2.198 0 0 1 2.579-2.164l1.023-2.203a.56.56 0 0 1 .512-.327h2.23a8.8 8.8 0 0 1-.533-2.518H7.645a2.198 2.198 0 1 1-2.124-2.762 2.2 2.2 0 0 1 2.124 1.632h1.491c.056-.88.24-1.725.534-2.517h-2.23a.56.56 0 0 1-.512-.327Zm19.85 5.612A7.756 7.756 0 0 0 18 12.88a7.756 7.756 0 0 0-7.752 7.752A7.756 7.756 0 0 0 18 28.384a7.756 7.756 0 0 0 7.752-7.752m3.66 0A1.068 1.068 0 1 0 31.548 20.631 1.068 1.068 0 0 0 29.412 20.632m-22.824 0a1.068 1.068 0 1 0-2.136.001 1.068 1.068 0 0 0 2.136-.001M5.521 11.79A1.068 1.068 0 1 0 5.522 13.925 1.068 1.068 0 0 0 5.52 11.789m24.958 0A1.068 1.068 0 1 0 30.48 13.925 1.068 1.068 0 0 0 30.48 11.789m0 15.552A1.068 1.068 0 1 0 30.48 29.477 1.068 1.068 0 0 0 30.48 27.341m-24.958 0a1.068 1.068 0 1 0 .001 2.136 1.068 1.068 0 0 0-.001-2.136m9.341-4.789H13.01a.565.565 0 0 1 0-1.13h1.793q.016-.464.096-.897h-.689a.56.56 0 0 1-.427-.195l-1.05-1.215a.565.565 0 0 1 .854-.739l.881 1.02h.757c.211-.518.491-.966.818-1.32a1.91 1.91 0 0 1 .272-1.215l-.527-.896a.565.565 0 0 1 .973-.573l.416.708A1.98 1.98 0 0 1 18.823 16.1l.416-.708a.565.565 0 0 1 .973.573l-.527.897a1.9 1.9 0 0 1 .272 1.215c.327.353.607.801.818 1.318h.81l.882-1.02a.565.565 0 0 1 .854.739l-1.05 1.215a.56.56 0 0 1-.427.195h-.742q.079.435.096.898h1.793a.565.565 0 0 1 0 1.13h-1.852a6 6 0 0 1-.2.896h.905c.163 0 .32.072.427.195l1.05 1.215a.565.565 0 0 1-.854.739l-.882-1.02H20.44q-.21.352-.466.631c-.55.603-1.238.943-1.973.943s-1.424-.34-1.975-.943a4 4 0 0 1-.467-.63h-1.09l-.883 1.02a.565.565 0 0 1-.854-.739l1.051-1.216a.56.56 0 0 1 .427-.195h.851a6 6 0 0 1-.2-.896m2.3-4.728h1.677a.83.83 0 0 0-.838-.772.83.83 0 0 0-.84.772m.274 1.13h-.66c-.526.633-.848 1.61-.848 2.698 0 1.146.357 2.166.932 2.795.174.19.367.343.576.443Zm1.13 5.935c.208-.1.401-.253.575-.443.574-.629.931-1.65.931-2.795 0-1.089-.322-2.065-.848-2.698h-.658Z" clip-rule="evenodd"/></g></svg>