<svg xmlns="http://www.w3.org/2000/svg" preserveAspectRatio="none" width="100%" height="100%" overflow="visible" style="display: block" viewBox="0 0 36 36" fill="none">
<g id="quarantine 1">
<path id="Vector" fill-rule="evenodd" clip-rule="evenodd" d="M0.494118 30.016V5.98588C0.494118 4.86402 1.41247 3.94567 2.53433 3.94567H33.4676C34.5896 3.94567 35.5059 4.86381 35.5059 5.98588V30.016C35.5059 31.1356 34.5899 32.0543 33.4676 32.0543H2.53433C1.41226 32.0543 0.494118 31.1354 0.494118 30.016ZM34.3765 9.21063V5.98588C34.3765 5.48527 33.9683 5.07508 33.4676 5.07508H2.53433C2.03351 5.07508 1.62353 5.48506 1.62353 5.98588V9.21063H34.3765ZM1.62353 10.34V30.016C1.62353 30.5155 2.03372 30.9249 2.53433 30.9249H33.4676C33.968 30.9249 34.3765 30.5153 34.3765 30.016V10.34H1.62353ZM8.37628 8.00358C7.90193 8.00358 7.51461 7.61824 7.51461 7.14381C7.51461 6.66939 7.90193 6.28214 8.37628 6.28214C8.85071 6.28214 9.23605 6.66939 9.23605 7.14381C9.23605 7.61824 8.85071 8.00358 8.37628 8.00358ZM5.06901 8.00358C4.59459 8.00358 4.20734 7.61824 4.20734 7.14381C4.20734 6.66939 4.59459 6.28214 5.06901 6.28214C5.54344 6.28214 5.93068 6.66939 5.93068 7.14381C5.93068 7.61824 5.54344 8.00358 5.06901 8.00358ZM11.6816 8.00358C11.2073 8.00358 10.82 7.61824 10.82 7.14381C10.82 6.66939 11.2073 6.28214 11.6816 6.28214C12.1561 6.28214 12.5433 6.66939 12.5433 7.14381C12.5433 7.61824 12.1561 8.00358 11.6816 8.00358ZM5.90294 15.0203C5.77885 15.0421 5.65122 15.0535 5.52092 15.0535C4.30835 15.0535 3.32393 14.069 3.32393 12.8564C3.32393 11.6439 4.30835 10.6595 5.52092 10.6595C6.73348 10.6595 7.71791 11.6439 7.71791 12.8564C7.71791 13.5344 7.41028 14.1409 6.92704 14.5441L7.79817 16.4205H10.1799C11.6814 13.6409 14.6216 11.7506 18 11.7506C21.3784 11.7506 24.3186 13.6409 25.8201 16.4205H28.2018L29.073 14.5441C28.5897 14.1409 28.2821 13.5344 28.2821 12.8564C28.2821 11.6439 29.2665 10.6595 30.4791 10.6595C31.6916 10.6595 32.6761 11.6439 32.6761 12.8564C32.6761 14.069 31.6916 15.0535 30.4791 15.0535C30.3488 15.0535 30.2212 15.0421 30.0971 15.0203L29.0744 17.223C28.9819 17.4224 28.7821 17.5499 28.5623 17.5499H26.3315C26.625 18.3422 26.8088 19.1877 26.8641 20.0677H28.3554C28.6049 19.1285 29.4617 18.4355 30.4791 18.4355C31.6916 18.4355 32.6761 19.4199 32.6761 20.6324C32.6761 21.845 31.6916 22.8295 30.4791 22.8295C29.4617 22.8295 28.6049 22.1365 28.3554 21.1972H26.8641C26.8088 22.0772 26.625 22.9227 26.3315 23.715H28.5623C28.7821 23.715 28.9819 23.8426 29.0744 24.0419L30.0971 26.2446C30.2212 26.2228 30.3488 26.2115 30.4791 26.2115C31.6916 26.2115 32.6761 27.196 32.6761 28.4085C32.6761 29.6211 31.6916 30.6055 30.4791 30.6055C29.2665 30.6055 28.2821 29.6211 28.2821 28.4085C28.2821 27.7306 28.5897 27.124 29.073 26.7208L28.2018 24.8444H25.8201C24.3186 27.6241 21.3784 29.5143 18 29.5143C14.6216 29.5143 11.6814 27.6241 10.1799 24.8444C9.44675 24.8444 7.79817 24.8444 7.79817 24.8444L6.92704 26.7208C7.41028 27.124 7.71791 27.7306 7.71791 28.4085C7.71791 29.6211 6.73348 30.6055 5.52092 30.6055C4.30835 30.6055 3.32393 29.6211 3.32393 28.4085C3.32393 27.196 4.30835 26.2115 5.52092 26.2115C5.65122 26.2115 5.77885 26.2228 5.90294 26.2446L6.92555 24.0419C7.01809 23.8426 7.21793 23.715 7.43774 23.715H9.66854C9.37496 22.9227 9.19122 22.0772 9.13588 21.1972H7.64456C7.39511 22.1365 6.53831 22.8295 5.52092 22.8295C4.30835 22.8295 3.32393 21.845 3.32393 20.6324C3.32393 19.4199 4.30835 18.4355 5.52092 18.4355C6.53831 18.4355 7.39511 19.1285 7.64456 20.0677H9.13588C9.19122 19.1877 9.37496 18.3422 9.66854 17.5499H7.43774C7.21793 17.5499 7.01809 17.4224 6.92555 17.223L5.90294 15.0203ZM25.7524 20.6324C25.7524 16.3538 22.2787 12.88 18 12.88C13.7213 12.88 10.2476 16.3538 10.2476 20.6324C10.2476 24.9112 13.7213 28.3849 18 28.3849C22.2787 28.3849 25.7524 24.9112 25.7524 20.6324ZM29.4115 20.6324C29.4115 21.2217 29.8899 21.7001 30.4791 21.7001C31.0683 21.7001 31.5467 21.2217 31.5467 20.6324C31.5467 20.0432 31.0683 19.5649 30.4791 19.5649C29.8899 19.5649 29.4115 20.0432 29.4115 20.6324ZM6.58849 20.6324C6.58849 20.0432 6.11012 19.5649 5.52092 19.5649C4.93172 19.5649 4.45334 20.0432 4.45334 20.6324C4.45334 21.2217 4.93172 21.7001 5.52092 21.7001C6.11012 21.7001 6.58849 21.2217 6.58849 20.6324ZM5.52092 11.7889C4.93172 11.7889 4.45334 12.2672 4.45334 12.8564C4.45334 13.4457 4.93172 13.9241 5.52092 13.9241C6.11012 13.9241 6.58849 13.4457 6.58849 12.8564C6.58849 12.2672 6.11012 11.7889 5.52092 11.7889ZM30.4791 11.7889C29.8899 11.7889 29.4115 12.2672 29.4115 12.8564C29.4115 13.4457 29.8899 13.9241 30.4791 13.9241C31.0683 13.9241 31.5467 13.4457 31.5467 12.8564C31.5467 12.2672 31.0683 11.7889 30.4791 11.7889ZM30.4791 27.3409C29.8899 27.3409 29.4115 27.8192 29.4115 28.4085C29.4115 28.9977 29.8899 29.4761 30.4791 29.4761C31.0683 29.4761 31.5467 28.9977 31.5467 28.4085C31.5467 27.8192 31.0683 27.3409 30.4791 27.3409ZM5.52092 27.3409C4.93172 27.3409 4.45334 27.8192 4.45334 28.4085C4.45334 28.9977 4.93172 29.4761 5.52092 29.4761C6.11012 29.4761 6.58849 28.9977 6.58849 28.4085C6.58849 27.8192 6.11012 27.3409 5.52092 27.3409ZM14.8621 22.552H13.0098C12.6981 22.552 12.4451 22.2989 12.4451 21.9872C12.4451 21.6756 12.6981 21.4225 13.0098 21.4225H14.8025C14.8134 21.1136 14.8464 20.8132 14.8989 20.5246H14.21C14.0461 20.5246 13.8903 20.4534 13.783 20.3293L12.7321 19.1149C12.5282 18.8792 12.554 18.5222 12.7897 18.3183C13.0254 18.1144 13.3823 18.1402 13.5863 18.3759L14.4682 19.3952H15.2252C15.4363 18.8783 15.7162 18.4297 16.0429 18.0765C16.0352 18.0066 16.0312 17.9358 16.0312 17.864C16.0312 17.4981 16.1348 17.1548 16.3148 16.8616L15.7876 15.9651C15.6296 15.6964 15.7194 15.35 15.988 15.192C16.2567 15.034 16.6031 15.1239 16.7611 15.3925L17.1773 16.1002C17.4277 15.986 17.7067 15.9222 18.0008 15.9222C18.2943 15.9222 18.5727 15.9859 18.8228 16.1L19.2389 15.3925C19.3969 15.1239 19.7433 15.034 20.012 15.192C20.2806 15.35 20.3704 15.6964 20.2124 15.9651L19.6852 16.8616C19.8652 17.1548 19.9688 17.498 19.9688 17.864C19.9688 17.9358 19.9648 18.0066 19.9571 18.0765C20.2838 18.4297 20.5637 18.8783 20.7748 19.3952H21.5854L22.4673 18.3759C22.6712 18.1402 23.0281 18.1144 23.2638 18.3183C23.4995 18.5222 23.5254 18.8792 23.3214 19.1149L22.2706 20.3293C22.1634 20.4534 22.0075 20.5246 21.8435 20.5246H21.1011C21.1536 20.8132 21.1866 21.1136 21.1975 21.4225H22.9902C23.3019 21.4225 23.5549 21.6756 23.5549 21.9872C23.5549 22.2989 23.3019 22.552 22.9902 22.552H21.1379C21.0932 22.8643 21.0258 23.1643 20.9387 23.4484H21.8435C22.0075 23.4484 22.1634 23.5196 22.2706 23.6435L23.3214 24.8581C23.5254 25.0938 23.4995 25.4507 23.2638 25.6546C23.0281 25.8585 22.6712 25.8328 22.4673 25.5971L21.5854 24.5778H20.4409C20.3003 24.8113 20.1436 25.0227 19.9741 25.208C19.4232 25.8108 18.736 26.1509 18.0008 26.1509C17.265 26.1509 16.5774 25.8108 16.0263 25.2082C15.8567 25.0228 15.7 24.8113 15.5592 24.5778C15.1388 24.5778 14.4682 24.5778 14.4682 24.5778L13.5863 25.5971C13.3823 25.8328 13.0254 25.8585 12.7897 25.6546C12.554 25.4507 12.5282 25.0938 12.7321 24.8581L13.783 23.6435C13.8903 23.5196 14.0461 23.4484 14.21 23.4484H15.0613C14.9742 23.1643 14.9068 22.8643 14.8621 22.552ZM17.1616 17.8236H18.8384C18.8165 17.392 18.4461 17.0516 18.0008 17.0516C17.5544 17.0516 17.1835 17.3919 17.1616 17.8236ZM17.4361 18.9531C17.0606 18.9531 16.7756 18.9531 16.7756 18.9531C16.2499 19.586 15.9279 20.5624 15.9279 21.651C15.9279 22.7965 16.2847 23.8172 16.8597 24.446C17.0336 24.6361 17.2271 24.7887 17.4361 24.8889V18.9531ZM18.5656 24.8885C18.7739 24.7883 18.9671 24.6359 19.1405 24.4461C19.7153 23.8173 20.0721 22.7966 20.0721 21.651C20.0721 20.5624 19.7501 19.586 19.2244 18.9531C19.2244 18.9531 18.9402 18.9531 18.5656 18.9531V24.8885Z" fill="var(--fill-0, white)"/>
</g>
</svg>