<svg xmlns="http://www.w3.org/2000/svg" fill="none" overflow="visible" preserveAspectRatio="none" style="display:block" viewBox="0 0 45.313 46.875"><g id="server-data base-file-chart-search" fill="var(--fill-0,white)"><path id="Vector" d="M3.906 25H5.47v1.563H3.906Z"/><path id="Vector_2" d="M7.031 25h1.563v1.563H7.03Z"/><path id="Vector_3" d="M10.156 25h1.563v1.563h-1.563Z"/><path id="Vector_4" d="M3.906 33.594H5.47v1.563H3.906Z"/><path id="Vector_5" d="M7.031 33.594h1.563v1.563H7.03Z"/><path id="Vector_6" d="M10.156 33.594h1.563v1.563h-1.563Z"/><path id="Vector_7" d="M3.906 42.188H5.47v1.563H3.906Z"/><path id="Vector_8" d="M7.031 42.188h1.563v1.563H7.03Z"/><path id="Vector_9" d="M10.156 42.188h1.563v1.563h-1.563Z"/><path id="Vector_10" d="m36.44 15.764 1.166.907-2.65 3.407-4.878-2.787a.78.78 0 0 0-.98.17L24.41 22.93l1.187 1.015 4.267-4.978 4.909 2.805a.78.78 0 0 0 1.005-.198l3.066-3.943 1.166.907.615-4.476Z"/><path id="Vector_11" d="M7.813 11.719H12.5v1.563H7.812Z"/><path id="Vector_12" d="M14.844 11.719h4.688v1.563h-4.688Z"/><path id="Vector_13" d="M7.813 14.844h7.031v1.563H7.813Z"/><path id="Vector_14" d="M16.406 14.844h3.125v1.563h-3.125Z"/><path id="Vector_15" d="M39.844 8.422V.782A.78.78 0 0 0 39.063 0H12.5a.8.8 0 0 0-.555.227L4.133 8.038a.8.8 0 0 0-.227.555v13.281H.781a.78.78 0 0 0-.781.781v6.25a.78.78 0 0 0 .781.781h.781v.781H.782A.78.78 0 0 0 0 31.25v6.25a.78.78 0 0 0 .781.781h.781v.781H.782a.78.78 0 0 0-.781.781v6.25a.78.78 0 0 0 .781.781h23.437a.78.78 0 0 0 .781-.781V43.75h4.688a3.125 3.125 0 1 0 6.25 0h3.125a.78.78 0 0 0 .781-.781v-13.89a12.486 12.486 0 0 0 0-20.656M11.719 2.664v5.148H6.57Zm-6.25 6.711H12.5a.78.78 0 0 0 .781-.781V1.563h25v5.96A12.477 12.477 0 0 0 20.312 18.75c.002 1.055.141 2.106.415 3.125H5.469ZM1.562 23.438h19.672a12.4 12.4 0 0 0 2.203 3.555v1.133H1.563Zm20.313 6.25v.781H3.125v-.781ZM1.562 32.03h21.875v4.688H1.563Zm20.313 6.25v.781H3.125v-.781Zm1.563 7.032H1.563v-4.688h21.875Zm7.03-12.5a.78.78 0 0 0-.781.781v8.594H25v-2.344a.78.78 0 0 0-.781-.781h-.781v-.781h.781A.78.78 0 0 0 25 37.5v-6.25a.78.78 0 0 0-.781-.781h-.781v-.781h.781a.78.78 0 0 0 .781-.781v-.414a12.45 12.45 0 0 0 5.469 2.531Zm3.907 10.937a1.563 1.563 0 0 1-3.125 0v-3.906h3.125Zm0-5.469H31.25V37.5h3.125Zm0-2.343H31.25v-1.563h3.125Zm-2.344-3.126V31.21c.258.017.516.04.782.04.265 0 .523-.023.78-.04v1.602Zm6.25 9.376h-2.344v-8.594a.78.78 0 0 0-.781-.781v-1.79a12.5 12.5 0 0 0 3.125-1.047Zm-5.468-12.5A10.938 10.938 0 1 1 43.75 18.75a10.95 10.95 0 0 1-10.938 10.938"/></g></svg>