<svg xmlns="http://www.w3.org/2000/svg" fill="none" overflow="visible" preserveAspectRatio="none" style="display:block" viewBox="0 0 24 24"><g id="Group"><path id="Vector" fill="var(--fill-0,white)" d="M22.2 9h-.66a.59.59 0 0 1-.556-.388 10 10 0 0 0-.236-.566.59.59 0 0 1 .12-.67l.47-.47a1.804 1.804 0 0 0-.003-2.543L19.64 2.667c-.704-.7-1.84-.7-2.544 0l-.47.47a.59.59 0 0 1-.67.12 13 13 0 0 0-.566-.24A.59.59 0 0 1 15 2.46V1.8A1.8 1.8 0 0 0 13.2 0h-2.4A1.8 1.8 0 0 0 9 1.8v.66a.59.59 0 0 1-.388.556 10 10 0 0 0-.566.236.59.59 0 0 1-.67-.12l-.47-.47C6.202 1.962 5.066 1.962 4.363 2.661l-1.696 1.7c-.7.704-.7 1.84 0 2.545l.47.47a.59.59 0 0 1 .12.67q-.127.278-.237.566A.59.59 0 0 1 2.46 9H1.8A1.8 1.8 0 0 0 0 10.8v2.4A1.8 1.8 0 0 0 1.8 15h.66a.59.59 0 0 1 .556.388q.109.288.236.565a.59.59 0 0 1-.12.67l-.47.471c-.7.704-.7 1.84 0 2.543l1.695 1.696c.704.7 1.84.7 2.544 0l.47-.47a.59.59 0 0 1 .67-.12q.278.126.567.24A.59.59 0 0 1 9 21.54v.66a1.8 1.8 0 0 0 1.8 1.8h2.4a1.8 1.8 0 0 0 1.8-1.8v-.66a.59.59 0 0 1 .388-.556 10 10 0 0 0 .566-.236.59.59 0 0 1 .67.12l.47.47c.705.698 1.84.697 2.543-.003l1.696-1.695c.7-.704.7-1.84 0-2.544l-.47-.47a.59.59 0 0 1-.12-.67q.126-.278.24-.567a.59.59 0 0 1 .557-.39h.66a1.8 1.8 0 0 0 1.8-1.8v-2.4A1.8 1.8 0 0 0 22.2 9m.6 4.2a.6.6 0 0 1-.6.6h-.66a1.81 1.81 0 0 0-1.68 1.16 8 8 0 0 1-.206.496 1.805 1.805 0 0 0 .36 2.014l.469.47c.234.234.235.614 0 .849l-1.696 1.696a.6.6 0 0 1-.848 0l-.47-.47a1.8 1.8 0 0 0-2.014-.36 9 9 0 0 1-.495.206 1.81 1.81 0 0 0-1.16 1.679v.66a.6.6 0 0 1-.6.6h-2.4a.6.6 0 0 1-.6-.6v-.66a1.81 1.81 0 0 0-1.16-1.68 8 8 0 0 1-.496-.206 1.81 1.81 0 0 0-2.014.36l-.47.469a.6.6 0 0 1-.849 0l-1.696-1.694a.6.6 0 0 1 0-.848l.47-.47a1.805 1.805 0 0 0 .36-2.014 9 9 0 0 1-.206-.495A1.805 1.805 0 0 0 2.46 13.8H1.8a.6.6 0 0 1-.6-.6v-2.4a.6.6 0 0 1 .6-.6h.66a1.81 1.81 0 0 0 1.68-1.16q.095-.252.206-.497a1.805 1.805 0 0 0-.36-2.014l-.471-.469c-.235-.234-.235-.614 0-.849L5.21 3.515a.6.6 0 0 1 .848 0l.471.47a1.8 1.8 0 0 0 2.014.36q.244-.111.495-.206A1.805 1.805 0 0 0 10.2 2.46V1.8a.6.6 0 0 1 .6-.6h2.4a.6.6 0 0 1 .6.6v.66a1.81 1.81 0 0 0 1.16 1.68q.252.095.497.206c.68.31 1.482.166 2.013-.36l.47-.469a.604.604 0 0 1 .849 0l1.696 1.696a.6.6 0 0 1 0 .848l-.47.47a1.805 1.805 0 0 0-.36 2.014q.111.245.206.495a1.81 1.81 0 0 0 1.679 1.16h.66a.6.6 0 0 1 .6.6Z"/></g></svg>