<svg xmlns="http://www.w3.org/2000/svg" width="36" height="36" viewBox="0 0 36 36" fill="none">
<g clip-path="url(#clip0_64_1914)">
<path d="M18.89 17.1106C18.6151 16.8357 18.17 16.8357 17.8951 17.1106C17.6209 17.3848 17.6209 17.8299 17.8951 18.1048C18.17 18.379 18.6151 18.379 18.89 18.1048C19.1643 17.8299 19.1643 17.3848 18.89 17.1106Z" fill="white"/>
<path d="M27.8396 8.16115C26.4657 6.78732 24.2416 6.78725 22.8676 8.16115C21.4973 9.53147 21.4972 11.7618 22.8678 13.1332C24.2386 14.5032 26.4689 14.5038 27.8396 13.1331C29.2133 11.7593 29.2136 9.53513 27.8396 8.16115ZM26.8452 12.1387C26.0231 12.9609 24.6847 12.9609 23.8621 12.1388C23.0398 11.316 23.0398 9.97767 23.862 9.15551C24.6863 8.33124 26.0208 8.3311 26.8452 9.15551C27.6695 9.97971 27.6696 11.3143 26.8452 12.1387Z" fill="white"/>
<g clip-path="url(#clip1_64_1914)">
<path d="M35.7946 0.205952C35.6565 0.0679286 35.4681 -0.00688372 35.2722 0.000499077C35.1132 0.00619438 31.328 0.15835 26.8283 1.74875C23.2227 3.02182 20.2173 4.84453 17.8957 7.16624C17.3754 7.68648 16.8692 8.23816 16.3848 8.81127C14.0893 7.46001 12.2497 7.88371 11.0869 8.50605C8.40929 9.93901 6.75195 13.8298 6.75195 16.6128C6.75216 16.8971 6.92352 17.1536 7.1862 17.2623C7.27318 17.2984 7.36458 17.3159 7.45515 17.3159C7.63817 17.3159 7.81796 17.2444 7.95247 17.11C9.36455 15.6979 11.1063 15.7862 11.6752 15.861L11.9215 16.1072C11.4369 17.2604 11.0465 18.407 10.7602 19.5222C10.6568 19.9258 10.6917 20.3529 10.8453 20.7436C10.1684 21.0555 9.51523 21.5136 8.94654 22.0823C7.13663 23.8923 6.76911 28.3033 6.75434 28.4902C6.73817 28.6953 6.81256 28.8972 6.95804 29.0427C7.09044 29.175 7.26952 29.2486 7.45515 29.2486C7.47357 29.2486 7.49206 29.2479 7.51055 29.2464C7.69744 29.2317 12.1086 28.8642 13.9185 27.0543C14.4869 26.4858 14.945 25.8328 15.2569 25.1559C15.6705 25.3186 16.0962 25.3386 16.479 25.2405C17.5937 24.9543 18.7402 24.5641 19.8935 24.0794L20.1397 24.3256C20.2144 24.8947 20.3028 26.6364 18.8907 28.0483C18.6897 28.2494 18.6295 28.5518 18.7384 28.8145C18.8472 29.0773 19.1035 29.2485 19.3879 29.2485C22.1709 29.2485 26.0616 27.5912 27.4946 24.9136C28.1169 23.7509 28.5406 21.9114 27.1894 19.6158C27.7622 19.1316 28.3139 18.6253 28.8344 18.1049C31.1561 15.7832 32.9787 12.7778 34.2518 9.17247C35.8423 4.67262 35.9944 0.887279 36.0001 0.728373C36.0071 0.533256 35.9326 0.344045 35.7946 0.205952ZM8.324 15.1004C8.76078 12.9866 10.0294 10.6671 11.7507 9.74586C12.9009 9.13035 14.1582 9.19068 15.4949 9.92242C14.3561 11.4202 13.366 13.0339 12.5408 14.7379C12.5303 14.7314 12.4037 14.5723 12.1686 14.5193C12.0719 14.4974 10.2115 14.0973 8.324 15.1004ZM12.9241 26.0599C11.9573 27.0267 9.68939 27.5366 8.25593 27.7448C8.4642 26.3112 8.97418 24.0434 9.9409 23.0767C10.4823 22.5353 11.1101 22.1248 11.741 21.8936L14.1072 24.2597C13.876 24.8907 13.4656 25.5185 12.9241 26.0599ZM16.1297 23.8783C15.9262 23.9304 15.6905 23.8539 15.5153 23.679C14.6056 22.7693 14.2498 22.4135 14.1381 22.3019C13.9334 22.0971 13.4313 21.595 12.3222 20.4859C12.1469 20.3102 12.0704 20.0746 12.1223 19.8715C12.3476 18.9944 12.6421 18.0945 13.0003 17.186L18.8147 23.0005C17.9061 23.3588 17.0064 23.6532 16.1297 23.8783ZM26.2549 24.2501C25.3337 25.9713 23.0142 27.24 20.9005 27.6767C21.5744 26.4085 21.723 24.794 21.4768 23.8151C21.4196 23.5877 21.2712 23.4734 21.2629 23.4599C22.9668 22.6347 24.5804 21.6446 26.0784 20.5058C26.8101 21.8427 26.8704 23.1001 26.2549 24.2501ZM27.8402 17.1105C27.2066 17.744 26.5244 18.3561 25.8124 18.9296C24.1008 20.3078 22.217 21.4751 20.2072 22.4043L13.5964 15.7937C14.5257 13.7838 15.693 11.9 17.071 10.1886C17.645 9.47614 18.257 8.79383 18.8903 8.1606C20.9733 6.07753 23.6617 4.4197 26.8828 3.22636L32.7744 9.11797C31.5812 12.3391 29.9234 15.0274 27.8402 17.1105ZM33.2803 7.63502L28.3658 2.72046C31.0433 1.88881 33.3727 1.57739 34.5354 1.46546C34.4234 2.62835 34.1119 4.95773 33.2803 7.63502Z" fill="white"/>
</g>
<path d="M16.9016 29.0425C16.6269 28.7679 16.1817 28.768 15.9072 29.0426L13.9187 31.0317C13.6442 31.3064 13.6443 31.7516 13.9189 32.0261C14.1936 32.3006 14.6388 32.3006 14.9133 32.0259L16.9017 30.0368C17.1762 29.7622 17.1762 29.317 16.9016 29.0425Z" fill="white"/>
<path d="M6.95711 19.099C6.68261 18.8244 6.23746 18.8244 5.96275 19.0989L3.97361 21.0873C3.69897 21.3618 3.6989 21.807 3.9734 22.0817C4.24783 22.3562 4.69298 22.3564 4.96776 22.0818L6.95689 20.0934C7.23153 19.8189 7.2316 19.3737 6.95711 19.099Z" fill="white"/>
<path d="M11.9301 30.0374C11.6557 29.7629 11.2104 29.7629 10.9357 30.0374L6.17279 34.7996C5.89815 35.0742 5.89815 35.5194 6.17272 35.794C6.44714 36.0686 6.89243 36.0687 7.16707 35.7941L11.93 31.0318C12.2047 30.7572 12.2047 30.312 11.9301 30.0374Z" fill="white"/>
<path d="M6.3051 30.0374C6.0306 29.7629 5.58532 29.7629 5.31075 30.0374L0.547786 34.7996C0.273146 35.0742 0.273146 35.5194 0.547715 35.794C0.822145 36.0686 1.26743 36.0687 1.54207 35.7941L6.30503 31.0318C6.57967 30.7572 6.57967 30.312 6.3051 30.0374Z" fill="white"/>
<path d="M5.96253 24.0706C5.68803 23.7961 5.24275 23.7961 4.96818 24.0707L0.205919 28.8336C-0.0686512 29.1083 -0.0686512 29.5534 0.205989 29.8281C0.480559 30.1026 0.925777 30.1026 1.20035 29.828L5.9626 25.065C6.23717 24.7904 6.23717 24.3452 5.96253 24.0706Z" fill="white"/>
<path d="M21.8723 14.1271C21.5977 13.8525 21.1526 13.8525 20.8779 14.1271L19.8837 15.1213C19.6091 15.3959 19.6091 15.8411 19.8837 16.1157C20.1583 16.3903 20.6034 16.3903 20.8781 16.1157L21.8723 15.1215C22.1469 14.8469 22.1469 14.4017 21.8723 14.1271Z" fill="white"/>
</g>
<defs>
<clipPath id="clip0_64_1914">
<rect width="36" height="36" fill="white"/>
</clipPath>
<clipPath id="clip1_64_1914">
<rect width="29.2486" height="29.2486" fill="white" transform="translate(6.75195)"/>
</clipPath>
</defs>
</svg>