<svg xmlns="http://www.w3.org/2000/svg" width="36" height="36" fill="none" viewBox="0 0 36 36"><g clip-path="url(#clip0_64_1914)"><path fill="#fff" d="M18.89 17.11a.703.703 0 1 0-.995.994.703.703 0 0 0 .995-.994"/><path fill="#fff" d="M27.84 8.161a3.514 3.514 0 0 0-4.972 0c-1.37 1.37-1.37 3.6 0 4.972A3.52 3.52 0 0 0 27.84 13.133a3.514 3.514 0 0 0 0-4.972m-.995 3.978A2.11 2.11 0 0 1 23.862 12.139c-.822-.824-.822-2.162 0-2.984a2.108 2.108 0 1 1 2.983 2.983"/><g clip-path="url(#clip1_64_1914)"><path fill="#fff" d="M35.795.206a.7.7 0 0 0-.522-.205c-.16.005-3.945.157-8.445 1.748-3.605 1.273-6.61 3.096-8.932 5.417-.52.52-1.027 1.072-1.511 1.645-2.296-1.351-4.135-.927-5.298-.305-2.678 1.433-4.335 5.324-4.335 8.107a.704.704 0 0 0 1.2.497c1.413-1.412 3.154-1.324 3.723-1.249l.246.246a25 25 0 0 0-1.161 3.415 2 2 0 0 0 .085 1.221c-.677.313-1.33.77-1.898 1.34-1.81 1.81-2.178 6.22-2.193 6.407a.703.703 0 0 0 .756.756c.187-.014 4.599-.382 6.409-2.192a6.7 6.7 0 0 0 1.338-1.898c.414.163.84.183 1.222.085a25 25 0 0 0 3.415-1.161l.246.246c.074.569.163 2.31-1.25 3.722a.703.703 0 0 0 .497 1.2c2.784 0 6.675-1.657 8.108-4.334.622-1.163 1.046-3.003-.306-5.298.573-.484 1.125-.99 1.645-1.511 2.322-2.322 4.145-5.327 5.418-8.933C35.842 4.672 35.994.887 36 .728a.7.7 0 0 0-.206-.522M8.324 15.1c.437-2.113 1.705-4.433 3.427-5.354 1.15-.616 2.407-.555 3.744.176a28.4 28.4 0 0 0-2.954 4.815c-.01-.006-.137-.165-.372-.218-.097-.022-1.958-.422-3.845.581m4.6 10.96c-.967.967-3.235 1.477-4.668 1.685.208-1.434.718-3.702 1.685-4.668.541-.542 1.17-.952 1.8-1.183l2.366 2.366c-.231.63-.641 1.258-1.183 1.8m3.206-2.182c-.204.052-.44-.024-.615-.199l-1.377-1.377-1.816-1.816c-.175-.176-.252-.411-.2-.614.226-.878.52-1.777.878-2.686L18.815 23c-.909.359-1.809.653-2.685.878m10.125.372c-.921 1.721-3.24 2.99-5.354 3.427.673-1.268.822-2.883.576-3.862-.057-.227-.206-.342-.214-.355a28.4 28.4 0 0 0 4.816-2.954c.731 1.337.791 2.594.176 3.744m1.585-7.14a26 26 0 0 1-2.028 1.82 27 27 0 0 1-5.605 3.475l-6.61-6.611a27 27 0 0 1 3.475-5.605 26 26 0 0 1 1.82-2.028c2.081-2.083 4.77-3.741 7.99-4.935l5.892 5.892c-1.193 3.221-2.85 5.91-4.934 7.992m5.44-9.475L28.366 2.72a31.6 31.6 0 0 1 6.17-1.255 31.6 31.6 0 0 1-1.255 6.17"/></g><path fill="#fff" d="M16.902 29.043A.703.703 0 0 0 15.908 29.043l-1.99 1.989a.703.703 0 0 0 .995.994l1.989-1.99c.274-.274.274-.719 0-.994"/><path fill="#fff" d="M6.957 19.099A.703.703 0 0 0 5.963 19.0989l-1.99 1.988a.703.703 0 0 0 .994.995l1.99-1.989c.275-.274.275-.72 0-.994"/><path fill="#fff" d="M11.93 30.037a.703.703 0 0 0-.994 0L6.173 34.8a.703.703 0 0 0 .994.995l4.763-4.763c.275-.275.275-.72 0-.995"/><path fill="#fff" d="M6.305 30.037a.703.703 0 0 0-.994 0L.548 34.8a.703.703 0 0 0 .994.995l4.763-4.763c.275-.275.275-.72 0-.995"/><path fill="#fff" d="M5.963 24.07A.703.703 0 0 0 4.969 24.07L.205 28.835a.703.703 0 0 0 .994.994l4.763-4.763c.274-.275.274-.72 0-.994"/><path fill="#fff" d="M21.872 14.127a.703.703 0 0 0-.994 0l-.994.994a.703.703 0 1 0 .994.994l.994-.993a.703.703 0 0 0 0-.994"/></g><defs><clipPath id="clip0_64_1914"><path fill="#fff" d="M0 0h36v36H0Z"/></clipPath><clipPath id="clip1_64_1914"><path fill="#fff" d="M6.752 0H36v29.249H6.75Z"/></clipPath></defs></svg>