<svg width="36" height="36" viewBox="0 0 36 36" fill="none" xmlns="http://www.w3.org/2000/svg">
<mask id="mask0_44_563" style="mask-type:luminance" maskUnits="userSpaceOnUse" x="0" y="0" width="36" height="36">
<path d="M0 3.8147e-06H36V36H0V3.8147e-06Z" fill="white"/>
</mask>
<g mask="url(#mask0_44_563)">
<path d="M22.4981 15.1742C22.9609 14.394 23.2266 13.4832 23.2266 12.5104C23.2266 9.6227 20.8857 7.28179 17.998 7.28179" stroke="white" stroke-width="1.5" stroke-miterlimit="10" stroke-linecap="round" stroke-linejoin="round"/>
<path d="M13.4971 15.1742C13.0343 14.394 12.7686 13.4832 12.7686 12.5104C12.7686 9.6227 15.1095 7.28179 17.9971 7.28179" stroke="white" stroke-width="1.5" stroke-miterlimit="10" stroke-linecap="round" stroke-linejoin="round"/>
<path d="M25.2694 16.949C26.0599 15.6565 26.5154 14.137 26.5154 12.511C26.5154 9.21015 24.6379 6.3478 21.8926 4.93353" stroke="white" stroke-width="1.5" stroke-miterlimit="10" stroke-linecap="round" stroke-linejoin="round"/>
<path d="M10.2783 8.90375C11.6364 6.00209 14.5823 3.99207 17.9977 3.99207" stroke="white" stroke-width="1.5" stroke-miterlimit="10" stroke-linecap="round" stroke-linejoin="round"/>
<path d="M9.479 12.5108C9.479 15.6287 11.154 18.3553 13.6532 19.8398" stroke="white" stroke-width="1.5" stroke-miterlimit="10" stroke-linecap="round" stroke-linejoin="round"/>
<path d="M7.07111 8.02453C6.50249 9.40779 6.18896 10.9228 6.18896 12.5111C6.18896 15.7269 7.47442 18.6425 9.5596 20.772" stroke="white" stroke-width="1.5" stroke-miterlimit="10" stroke-linecap="round" stroke-linejoin="round"/>
<path d="M27.7747 5.88594C25.6507 2.7576 22.0645 0.702292 17.9983 0.702292C15.3388 0.702292 12.8847 1.58148 10.9106 3.06507" stroke="white" stroke-width="1.5" stroke-miterlimit="10" stroke-linecap="round" stroke-linejoin="round"/>
<path d="M28.8198 17.2423C29.4541 15.7937 29.806 14.1933 29.806 12.5107C29.806 11.2879 29.6201 10.1086 29.2751 8.99933" stroke="white" stroke-width="1.5" stroke-miterlimit="10" stroke-linecap="round" stroke-linejoin="round"/>
<path d="M16.3105 25.8586V12.5408C16.3105 11.6088 17.0661 10.8533 17.998 10.8533C18.93 10.8533 19.6855 11.6088 19.6855 12.5408V25.619" stroke="white" stroke-width="1.5" stroke-miterlimit="10" stroke-linecap="round" stroke-linejoin="round"/>
<path d="M19.6855 25.618V23.8939C19.6855 22.962 20.4411 22.2064 21.373 22.2064C22.305 22.2064 23.0605 22.962 23.0605 23.8939V25.618" stroke="white" stroke-width="1.5" stroke-miterlimit="10" stroke-linecap="round" stroke-linejoin="round"/>
<path d="M23.0605 25.618V24.6138C23.0605 23.6818 23.8161 22.9263 24.748 22.9263C25.68 22.9263 26.4355 23.6818 26.4355 24.6138V25.618" stroke="white" stroke-width="1.5" stroke-miterlimit="10" stroke-linecap="round" stroke-linejoin="round"/>
<path d="M26.4355 25.619V25.5824C26.4355 24.6505 27.1911 23.8949 28.123 23.8949C29.055 23.8949 29.8105 24.6505 29.8105 25.5824V27.1031" stroke="white" stroke-width="1.5" stroke-miterlimit="10" stroke-linecap="round" stroke-linejoin="round"/>
<path d="M29.8105 27.1027V30.8576C29.8105 32.4944 29.2101 34.0741 28.123 35.2977" stroke="white" stroke-width="1.5" stroke-miterlimit="10" stroke-linecap="round" stroke-linejoin="round"/>
<path d="M16.3105 25.8581V30.6026C16.3105 32.3161 16.9072 33.9762 17.998 35.2977" stroke="white" stroke-width="1.5" stroke-miterlimit="10" stroke-linecap="round" stroke-linejoin="round"/>
<path d="M16.6008 32.6732L12.116 24.9053C11.6259 24.0564 11.9168 22.971 12.7657 22.4808C13.6146 21.9907 14.7001 22.2815 15.1902 23.1304L16.289 25.0336" stroke="white" stroke-width="1.5" stroke-miterlimit="10" stroke-linecap="round" stroke-linejoin="round"/>
</g>
</svg>
