<svg preserveAspectRatio="none" width="100%" height="100%" overflow="visible" style="display: block;" viewBox="0 0 50 45.3379" fill="none" xmlns="http://www.w3.org/2000/svg">
<g id="Group">
<path id="Vector" d="M25 42.3045C25.4045 42.3045 25.7324 41.9766 25.7324 41.5721C25.7324 41.1676 25.4045 40.8396 25 40.8396C24.5955 40.8396 24.2676 41.1676 24.2676 41.5721C24.2676 41.9766 24.5955 42.3045 25 42.3045Z" fill="var(--fill-0, white)"/>
<path id="Vector_2" d="M25 39.2711C25.4045 39.2711 25.7324 38.9432 25.7324 38.5387V37.022C25.7324 36.6175 25.4045 36.2895 25 36.2895C24.5955 36.2895 24.2676 36.6175 24.2676 37.022V38.5387C24.2676 38.9432 24.5955 39.2711 25 39.2711Z" fill="var(--fill-0, white)"/>
<path id="Vector_3" d="M45.6241 21.0704C45.9286 21.9521 46.7669 22.5871 47.7508 22.5871C48.991 22.5871 49.9999 21.5781 49.9999 20.338C49.9999 19.0978 48.9909 18.0889 47.7508 18.0889C46.7669 18.0889 45.9286 18.7239 45.6241 19.6056H40.8991V15.0035H44.7174C44.9116 15.0035 45.098 14.9264 45.2353 14.789L46.7651 13.2591C47.0629 13.4049 47.3975 13.4868 47.7508 13.4868C48.991 13.4868 49.9999 12.4778 49.9999 11.2377C49.9999 9.99755 48.9909 8.98856 47.7508 8.98856C46.5106 8.98856 45.5017 9.99755 45.5017 11.2377C45.5017 11.591 45.5836 11.9256 45.7294 12.2233L44.4141 13.5387H40.8992V7.67958C40.8992 6.77606 40.3576 5.97518 39.5188 5.63915L37.3393 4.76747C36.9787 4.62264 36.5665 4.70585 36.2855 4.983L32.19 9.0785C31.8923 9.37616 31.8186 9.82899 32.0068 10.2054L33.1418 12.4754L28.2964 15.3827L30.1279 11.7203C30.3142 11.3439 30.2399 10.8919 29.9436 10.5955L27.4982 8.1493L31.1113 3.63378C31.304 3.39335 31.372 3.07196 31.2932 2.77411C31.2144 2.47596 30.9961 2.23007 30.7113 2.11688L25.8161 0.157996C25.2904 -0.0525512 24.7108 -0.0527466 24.1839 0.157898L19.0679 2.20458C18.6923 2.35487 18.5097 2.78104 18.6599 3.15663C18.8101 3.53221 19.2363 3.71473 19.6119 3.56464L24.7276 1.51815C24.9034 1.44794 25.0966 1.44784 25.2716 1.51805L29.5564 3.2327L28.5329 4.5119L25.4503 3.27889C25.1601 3.16444 24.8404 3.16434 24.547 3.28016L12.9016 7.93837C12.435 8.12499 12.1335 8.57011 12.1335 9.07255V20.6175C12.1335 24.1103 13.1252 27.4532 15.0016 30.2849C16.5546 32.6274 18.6571 34.5545 21.1119 35.8922L20.3277 37.2504C14.2898 33.9499 10.5651 27.6897 10.5651 20.7658V7.67987C10.5651 7.3785 10.7459 7.11141 11.0257 6.9995L16.4286 4.83807C16.8042 4.68778 16.9868 4.26161 16.8366 3.88602C16.6864 3.51044 16.2601 3.32782 15.8846 3.47802L10.4817 5.63934C9.64258 5.97499 9.10039 6.77587 9.10039 7.67977V13.5389H5.58594L4.27061 12.2235C4.41641 11.9258 4.49834 11.5912 4.49834 11.2379C4.49834 9.99764 3.48936 8.98876 2.24922 8.98876C1.00908 8.98876 0 9.99745 0 11.2376C0 12.4777 1.00898 13.4867 2.24912 13.4867C2.60244 13.4867 2.93701 13.4048 3.23477 13.259L4.76465 14.7889C4.90195 14.9263 5.08828 15.0034 5.28252 15.0034H9.10029V19.6055H4.37588C4.07139 18.7237 3.23311 18.0888 2.24922 18.0888C1.00898 18.0888 0 19.0977 0 20.338C0 21.5782 1.00898 22.5871 2.24912 22.5871C3.23301 22.5871 4.07129 21.952 4.37578 21.0704H9.10264C9.12607 22.6299 9.32881 24.1733 9.70283 25.6725H5.28262C5.08838 25.6725 4.90205 25.7496 4.76475 25.887L3.23486 27.4169C2.93711 27.2711 2.60254 27.1891 2.24922 27.1891C1.00898 27.1891 0 28.1981 0 29.4383C0 30.6784 1.00898 31.6874 2.24912 31.6874C3.48926 31.6874 4.49824 30.6784 4.49824 29.4383C4.49824 29.0849 4.41631 28.7504 4.27051 28.4526L5.58594 27.1373H10.1275C10.6204 28.6249 11.2866 30.0572 12.118 31.4045C13.9593 34.3886 16.5349 36.8363 19.5952 38.5187L17.1382 42.7744C16.8293 43.3095 16.8293 43.9483 17.1382 44.4834C17.4471 45.0184 18.0004 45.3379 18.6182 45.3379H20.844C21.2485 45.3379 21.5765 45.0099 21.5765 44.6055C21.5765 44.201 21.2485 43.873 20.844 43.873H18.6182C18.4955 43.873 18.433 43.7966 18.4067 43.751C18.3805 43.7054 18.3454 43.613 18.4067 43.5068L24.7885 32.4533C24.8498 32.3471 24.9473 32.3312 24.9999 32.3312C25.0525 32.3312 25.15 32.3472 25.2113 32.4533L31.5931 43.5068C31.6544 43.613 31.6193 43.7054 31.5931 43.751C31.5668 43.7966 31.5043 43.873 31.3816 43.873H24.2621C23.8576 43.873 23.5297 44.201 23.5297 44.6055C23.5297 45.0099 23.8576 45.3379 24.2621 45.3379H31.3816C31.9995 45.3379 32.5527 45.0184 32.8616 44.4834C33.1706 43.9483 33.1706 43.3095 32.8616 42.7744L30.4046 38.5185C33.4633 36.837 36.0376 34.391 37.8786 31.4091C38.7113 30.0604 39.3785 28.6266 39.872 27.1372H44.4141L45.7294 28.4525C45.5836 28.7503 45.5017 29.0849 45.5017 29.4382C45.5017 30.6784 46.5106 31.6873 47.7508 31.6873C48.9909 31.6873 50 30.6785 50 29.4383C50 28.198 48.991 27.1891 47.7509 27.1891C47.3976 27.1891 47.063 27.2711 46.7652 27.4169L45.2354 25.887C45.098 25.7496 44.9117 25.6725 44.7175 25.6725H40.2968C40.6708 24.1733 40.8735 22.6299 40.897 21.0704H45.6241ZM47.7509 10.4533C48.1833 10.4533 48.5352 10.8052 48.5352 11.2376C48.5352 11.67 48.1833 12.0219 47.7509 12.0219C47.3185 12.0219 46.9666 11.67 46.9666 11.2376C46.9666 10.8052 47.3185 10.4533 47.7509 10.4533ZM1.46484 11.2376C1.46484 10.8052 1.8167 10.4533 2.24912 10.4533C2.68154 10.4533 3.0334 10.8052 3.0334 11.2376C3.0334 11.67 2.68154 12.0219 2.24912 12.0219C1.8167 12.0219 1.46484 11.67 1.46484 11.2376ZM2.24912 30.2225C1.8167 30.2225 1.46484 29.8707 1.46484 29.4383C1.46484 29.0058 1.8167 28.654 2.24912 28.654C2.68154 28.654 3.0334 29.0058 3.0334 29.4383C3.0334 29.8707 2.68154 30.2225 2.24912 30.2225ZM2.24912 21.1223C1.8167 21.1223 1.46484 20.7704 1.46484 20.338C1.46484 19.9056 1.8167 19.5537 2.24912 19.5537C2.68154 19.5537 3.0334 19.9056 3.0334 20.338C3.0334 20.7704 2.68154 21.1223 2.24912 21.1223ZM48.5352 29.4383C48.5352 29.8707 48.1833 30.2225 47.7509 30.2225C47.3185 30.2225 46.9666 29.8707 46.9666 29.4383C46.9666 29.0058 47.3185 28.654 47.7509 28.654C48.1833 28.654 48.5352 29.0058 48.5352 29.4383ZM47.7509 19.5536C48.1833 19.5536 48.5352 19.9055 48.5352 20.3379C48.5352 20.7703 48.1833 21.1222 47.7509 21.1222C47.3185 21.1222 46.9666 20.7703 46.9666 20.3379C46.9666 19.9055 47.3185 19.5536 47.7509 19.5536ZM29.6721 37.2499L28.8879 35.8917C31.3421 34.5545 33.4443 32.6276 34.9979 30.2846C36.8741 27.4545 37.8659 24.1115 37.8659 20.6172V18.4362C37.8659 18.0317 37.538 17.7038 37.1335 17.7038C36.729 17.7038 36.4011 18.0317 36.4011 18.4362V20.6172C36.4011 23.8227 35.4937 26.8857 33.777 29.4752C32.3487 31.6295 30.414 33.3989 28.1553 34.6228L26.48 31.7212C26.1711 31.1861 25.6178 30.8667 25 30.8667C24.3822 30.8667 23.8289 31.1861 23.52 31.7212L21.8447 34.6229C19.5854 33.3985 17.6505 31.629 16.2227 29.4754C14.5059 26.8846 13.5984 23.8215 13.5984 20.6173V9.237L25.0003 4.67626L27.5767 5.70682L26.0785 7.57909C25.7711 7.96815 25.8035 8.52587 26.1538 8.87616L28.6592 11.3825L26.2364 16.2271C26.0404 16.6191 26.1247 17.0826 26.4462 17.3804C26.768 17.6783 27.2369 17.7267 27.6131 17.5012L34.2861 13.4973C34.7197 13.2343 34.8809 12.6741 34.6541 12.2243L33.4748 9.86581L34.7604 8.58026L36.4014 9.2368V15.0184C36.4014 15.4229 36.7293 15.7509 37.1338 15.7509C37.5383 15.7509 37.8662 15.4229 37.8662 15.0184V9.07245C37.8662 8.56981 37.5651 8.1246 37.0992 7.93837L35.8872 7.4535L37.0936 6.24716L38.9747 6.9995C39.2541 7.11141 39.4346 7.3785 39.4346 7.67997V20.7659C39.4344 27.6902 35.7101 33.9494 29.6721 37.2499Z" fill="var(--fill-0, white)"/>
</g>
</svg>
