<svg preserveAspectRatio="none" width="100%" height="100%" overflow="visible" style="display: block;" viewBox="0 0 50 50" fill="none" xmlns="http://www.w3.org/2000/svg">
<g id="data-loss 1" clip-path="url(#clip0_0_4)">
<path id="Vector" d="M10.9375 44.5312H12.5V46.0938H10.9375V44.5312Z" fill="var(--fill-0, white)"/>
<path id="Vector_2" d="M10.9375 38.2812H12.5V42.9688H10.9375V38.2812Z" fill="var(--fill-0, white)"/>
<path id="Vector_3" d="M7.8125 16.4062V37.3883L0.907031 48.0133C0.830778 48.1312 0.787719 48.2675 0.782386 48.4078C0.777053 48.5482 0.809642 48.6873 0.876724 48.8107C0.943806 48.9341 1.0429 49.0371 1.16358 49.1089C1.28427 49.1807 1.42207 49.2186 1.5625 49.2188H21.875C22.0157 49.2188 22.1538 49.1809 22.2747 49.109C22.3956 49.0372 22.4949 48.9339 22.562 48.8103C22.6291 48.6867 22.6616 48.5473 22.6561 48.4067C22.6505 48.2661 22.6071 48.1297 22.5305 48.0117L20.7758 45.3125H25.7812C25.9884 45.3125 26.1871 45.2301 26.3336 45.0836L32.5836 38.8336C32.7301 38.6871 32.8125 38.4884 32.8125 38.2812V30.4688H34.375C34.5822 30.4688 34.7809 30.3864 34.9274 30.2399C35.0739 30.0934 35.1562 29.8947 35.1562 29.6875V23.4375C35.1562 23.2303 35.0739 23.0316 34.9274 22.8851C34.7809 22.7386 34.5822 22.6562 34.375 22.6562H32.8125V19.5312H34.375C34.5822 19.5312 34.7809 19.4489 34.9274 19.3024C35.0739 19.1559 35.1562 18.9572 35.1562 18.75V12.5C35.1562 12.2928 35.0739 12.0941 34.9274 11.9476C34.7809 11.8011 34.5822 11.7188 34.375 11.7188H28.125C27.9178 11.7188 27.7191 11.8011 27.5726 11.9476C27.4261 12.0941 27.3438 12.2928 27.3438 12.5V15.625H8.59375C8.38655 15.625 8.18784 15.7073 8.04132 15.8538C7.89481 16.0003 7.8125 16.199 7.8125 16.4062ZM3.00234 47.6562L11.7188 34.2461L20.4352 47.6562H3.00234ZM26.5625 42.6453V39.0625H30.1453L26.5625 42.6453ZM33.5938 28.9062H28.9062V24.2188H33.5938V28.9062ZM28.9062 13.2812H33.5938V17.9688H28.9062V13.2812ZM27.3438 17.1875V18.75C27.3438 18.9572 27.4261 19.1559 27.5726 19.3024C27.7191 19.4489 27.9178 19.5312 28.125 19.5312H31.25V22.6562H28.125C27.9178 22.6562 27.7191 22.7386 27.5726 22.8851C27.4261 23.0316 27.3438 23.2303 27.3438 23.4375V29.6875C27.3438 29.8947 27.4261 30.0934 27.5726 30.2399C27.7191 30.3864 27.9178 30.4688 28.125 30.4688H31.25V37.5H25.7812C25.574 37.5 25.3753 37.5823 25.2288 37.7288C25.0823 37.8753 25 38.074 25 38.2812V43.75H19.7602L12.3742 32.3867C12.2988 32.2837 12.2001 32.1999 12.0862 32.1422C11.9723 32.0844 11.8464 32.0543 11.7188 32.0543C11.5911 32.0543 11.4652 32.0844 11.3513 32.1422C11.2374 32.1999 11.1387 32.2837 11.0633 32.3867L9.375 34.9844V17.1875H27.3438Z" fill="var(--fill-0, white)"/>
<path id="Vector_4" d="M14.0625 30.4688H17.1875C17.3947 30.4688 17.5934 30.3864 17.7399 30.2399C17.8864 30.0934 17.9688 29.8947 17.9688 29.6875V26.5625C17.9688 26.3553 17.8864 26.1566 17.7399 26.0101C17.5934 25.8636 17.3947 25.7812 17.1875 25.7812H14.0625C13.8553 25.7812 13.6566 25.8636 13.5101 26.0101C13.3636 26.1566 13.2812 26.3553 13.2812 26.5625V29.6875C13.2812 29.8947 13.3636 30.0934 13.5101 30.2399C13.6566 30.3864 13.8553 30.4688 14.0625 30.4688ZM14.8438 27.3438H16.4062V28.9062H14.8438V27.3438Z" fill="var(--fill-0, white)"/>
<path id="Vector_5" d="M21.875 30.4688H25C25.2072 30.4688 25.4059 30.3864 25.5524 30.2399C25.6989 30.0934 25.7812 29.8947 25.7812 29.6875V26.5625C25.7812 26.3553 25.6989 26.1566 25.5524 26.0101C25.4059 25.8636 25.2072 25.7812 25 25.7812H21.875C21.6678 25.7812 21.4691 25.8636 21.3226 26.0101C21.1761 26.1566 21.0938 26.3553 21.0938 26.5625V29.6875C21.0938 29.8947 21.1761 30.0934 21.3226 30.2399C21.4691 30.3864 21.6678 30.4688 21.875 30.4688ZM22.6562 27.3438H24.2188V28.9062H22.6562V27.3438Z" fill="var(--fill-0, white)"/>
<path id="Vector_6" d="M21.875 22.6562H25C25.2072 22.6562 25.4059 22.5739 25.5524 22.4274C25.6989 22.2809 25.7812 22.0822 25.7812 21.875V18.75C25.7812 18.5428 25.6989 18.3441 25.5524 18.1976C25.4059 18.0511 25.2072 17.9688 25 17.9688H21.875C21.6678 17.9688 21.4691 18.0511 21.3226 18.1976C21.1761 18.3441 21.0938 18.5428 21.0938 18.75V21.875C21.0938 22.0822 21.1761 22.2809 21.3226 22.4274C21.4691 22.5739 21.6678 22.6562 21.875 22.6562ZM22.6562 19.5312H24.2188V21.0938H22.6562V19.5312Z" fill="var(--fill-0, white)"/>
<path id="Vector_7" d="M15.625 24.2188H18.75C18.9572 24.2188 19.1559 24.1364 19.3024 23.9899C19.4489 23.8434 19.5312 23.6447 19.5312 23.4375V20.3125C19.5312 20.1053 19.4489 19.9066 19.3024 19.7601C19.1559 19.6136 18.9572 19.5312 18.75 19.5312H15.625C15.4178 19.5312 15.2191 19.6136 15.0726 19.7601C14.9261 19.9066 14.8438 20.1053 14.8438 20.3125V23.4375C14.8438 23.6447 14.9261 23.8434 15.0726 23.9899C15.2191 24.1364 15.4178 24.2188 15.625 24.2188ZM16.4062 21.0938H17.9688V22.6562H16.4062V21.0938Z" fill="var(--fill-0, white)"/>
<path id="Vector_8" d="M36.7188 23.4375C36.7188 23.6447 36.8011 23.8434 36.9476 23.9899C37.0941 24.1364 37.2928 24.2188 37.5 24.2188H43.75C43.9572 24.2188 44.1559 24.1364 44.3024 23.9899C44.4489 23.8434 44.5312 23.6447 44.5312 23.4375V17.1875C44.5312 16.9803 44.4489 16.7816 44.3024 16.6351C44.1559 16.4886 43.9572 16.4062 43.75 16.4062H37.5C37.2928 16.4062 37.0941 16.4886 36.9476 16.6351C36.8011 16.7816 36.7188 16.9803 36.7188 17.1875V23.4375ZM38.2812 17.9688H42.9688V22.6562H38.2812V17.9688Z" fill="var(--fill-0, white)"/>
<path id="Vector_9" d="M37.5 14.8438H43.75C43.9572 14.8438 44.1559 14.7614 44.3024 14.6149C44.4489 14.4684 44.5312 14.2697 44.5312 14.0625V7.8125C44.5312 7.6053 44.4489 7.40659 44.3024 7.26007C44.1559 7.11356 43.9572 7.03125 43.75 7.03125H37.5C37.2928 7.03125 37.0941 7.11356 36.9476 7.26007C36.8011 7.40659 36.7188 7.6053 36.7188 7.8125V14.0625C36.7188 14.2697 36.8011 14.4684 36.9476 14.6149C37.0941 14.7614 37.2928 14.8438 37.5 14.8438ZM38.2812 8.59375H42.9688V13.2812H38.2812V8.59375Z" fill="var(--fill-0, white)"/>
<path id="Vector_10" d="M25.7812 10.9375C25.9885 10.9375 26.1872 10.8552 26.3337 10.7087C26.4802 10.5622 26.5625 10.3635 26.5625 10.1562V5.46875C26.5625 5.26155 26.4802 5.06284 26.3337 4.91632C26.1872 4.76981 25.9885 4.6875 25.7812 4.6875H21.0938C20.8865 4.6875 20.6878 4.76981 20.5413 4.91632C20.3948 5.06284 20.3125 5.26155 20.3125 5.46875V10.1562C20.3125 10.3635 20.3948 10.5622 20.5413 10.7087C20.6878 10.8552 20.8865 10.9375 21.0938 10.9375H25.7812ZM21.875 6.25H25V9.375H21.875V6.25Z" fill="var(--fill-0, white)"/>
<path id="Vector_11" d="M33.5938 7.03125C33.801 7.03125 33.9997 6.94894 34.1462 6.80243C34.2927 6.65591 34.375 6.4572 34.375 6.25V1.5625C34.375 1.3553 34.2927 1.15659 34.1462 1.01007C33.9997 0.86356 33.801 0.78125 33.5938 0.78125H28.9062C28.699 0.78125 28.5003 0.86356 28.3538 1.01007C28.2073 1.15659 28.125 1.3553 28.125 1.5625V6.25C28.125 6.4572 28.2073 6.65591 28.3538 6.80243C28.5003 6.94894 28.699 7.03125 28.9062 7.03125H33.5938ZM29.6875 2.34375H32.8125V5.46875H29.6875V2.34375Z" fill="var(--fill-0, white)"/>
<path id="Vector_12" d="M48.4375 0.78125H45.3125C45.1053 0.78125 44.9066 0.86356 44.7601 1.01007C44.6136 1.15659 44.5312 1.3553 44.5312 1.5625V4.6875C44.5312 4.8947 44.6136 5.09341 44.7601 5.23993C44.9066 5.38644 45.1053 5.46875 45.3125 5.46875H48.4375C48.6447 5.46875 48.8434 5.38644 48.9899 5.23993C49.1364 5.09341 49.2188 4.8947 49.2188 4.6875V1.5625C49.2188 1.3553 49.1364 1.15659 48.9899 1.01007C48.8434 0.86356 48.6447 0.78125 48.4375 0.78125ZM47.6562 3.90625H46.0938V2.34375H47.6562V3.90625Z" fill="var(--fill-0, white)"/>
<path id="Vector_13" d="M28.125 35.1562H29.6875V36.7188H28.125V35.1562Z" fill="var(--fill-0, white)"/>
<path id="Vector_14" d="M17.1875 35.1562H27.3438V36.7188H17.1875V35.1562Z" fill="var(--fill-0, white)"/>
<path id="Vector_15" d="M28.125 32.8125H29.6875V34.375H28.125V32.8125Z" fill="var(--fill-0, white)"/>
<path id="Vector_16" d="M17.1875 32.8125H27.3438V34.375H17.1875V32.8125Z" fill="var(--fill-0, white)"/>
</g>
<defs>
<clipPath id="clip0_0_4">
<rect width="50" height="50" fill="white"/>
</clipPath>
</defs>
</svg>
