<svg preserveAspectRatio="none" width="100%" height="100%" overflow="visible" style="display: block;" viewBox="0 0 36 36" fill="none" xmlns="http://www.w3.org/2000/svg">
<g id="document (1) 1">
<path id="Vector" d="M25.5 20.25C25.5 20.664 25.164 21 24.75 21H11.25C10.836 21 10.5 20.664 10.5 20.25C10.5 19.836 10.836 19.5 11.25 19.5H24.75C25.164 19.5 25.5 19.836 25.5 20.25ZM20.25 25.5H11.25C10.836 25.5 10.5 25.836 10.5 26.25C10.5 26.664 10.836 27 11.25 27H20.25C20.664 27 21 26.664 21 26.25C21 25.836 20.664 25.5 20.25 25.5ZM33 14.9775V29.25C33 32.9715 29.9715 36 26.25 36H9.75C6.0285 36 3 32.9715 3 29.25V6.75C3 3.0285 6.0285 0 9.75 0H18.0225C20.625 0 23.0745 1.014 24.918 2.856L30.144 8.0835C31.986 9.924 33 12.372 33 14.9775ZM23.856 3.915C23.0295 3.09 22.056 2.4765 21 2.0685V9.7485C21 10.989 22.0095 11.9985 23.25 11.9985H30.9315C30.522 10.9425 29.9085 9.9675 29.0835 9.1425L23.856 3.915ZM31.5 14.9775C31.5 14.475 31.443 13.983 31.356 13.5H23.25C21.1815 13.5 19.5 11.817 19.5 9.75V1.644C19.0155 1.557 18.5235 1.5 18.0225 1.5H9.75C6.855 1.5 4.5 3.855 4.5 6.75V29.25C4.5 32.145 6.855 34.5 9.75 34.5H26.25C29.145 34.5 31.5 32.145 31.5 29.25V14.9775Z" fill="var(--fill-0, #59C2FF)"/>
</g>
</svg>
