<svg preserveAspectRatio="none" width="100%" height="100%" overflow="visible" style="display: block;" viewBox="0 0 33.75 33.75" fill="none" xmlns="http://www.w3.org/2000/svg">
<g id="Icon">
<path id="Vector" d="M17.4375 20.25C17.4375 20.3992 17.3782 20.5423 17.2727 20.6477C17.1673 20.7532 17.0242 20.8125 16.875 20.8125H7.3125C7.16332 20.8125 7.02024 20.7532 6.91475 20.6477C6.80926 20.5423 6.75 20.3992 6.75 20.25C6.75 20.1008 6.80926 19.9577 6.91475 19.8523C7.02024 19.7468 7.16332 19.6875 7.3125 19.6875H16.875C17.0242 19.6875 17.1673 19.7468 17.2727 19.8523C17.3782 19.9577 17.4375 20.1008 17.4375 20.25ZM29.25 23.5995C29.25 24.4895 28.9861 25.3595 28.4916 26.0995C27.9971 26.8395 27.2943 27.4163 26.4721 27.7569C25.6498 28.0975 24.745 28.1866 23.8721 28.013C22.9992 27.8394 22.1974 27.4108 21.568 26.7814C20.9387 26.1521 20.5101 25.3503 20.3365 24.4774C20.1628 23.6044 20.2519 22.6996 20.5925 21.8774C20.9331 21.0551 21.5099 20.3523 22.2499 19.8578C22.99 19.3634 23.86 19.0995 24.75 19.0995C25.9431 19.1008 27.0869 19.5754 27.9305 20.419C28.7741 21.2626 29.2486 22.4064 29.25 23.5995ZM28.125 23.5995C28.125 22.9319 27.9271 22.2794 27.5562 21.7244C27.1854 21.1694 26.6583 20.7368 26.0416 20.4814C25.4249 20.2259 24.7463 20.1591 24.0916 20.2893C23.4369 20.4195 22.8355 20.741 22.3635 21.213C21.8915 21.685 21.5701 22.2863 21.4398 22.941C21.3096 23.5957 21.3765 24.2743 21.6319 24.891C21.8874 25.5077 22.3199 26.0348 22.875 26.4057C23.43 26.7765 24.0825 26.9745 24.75 26.9745C25.6448 26.9735 26.5027 26.6176 27.1354 25.9849C27.7681 25.3521 28.124 24.4943 28.125 23.5995ZM33.75 23.2913V23.9587C33.7495 24.3635 33.5885 24.7516 33.3023 25.0378C33.016 25.324 32.628 25.4851 32.2232 25.4855H31.547C31.3897 26.0536 31.1611 26.5995 30.8666 27.1101L31.35 27.5938C31.636 27.8803 31.7966 28.2686 31.7966 28.6734C31.7966 29.0781 31.636 29.4664 31.35 29.7529L30.8779 30.225C30.5915 30.5111 30.2032 30.6718 29.7983 30.6718C29.3935 30.6718 29.0052 30.5111 28.7188 30.225L28.2272 29.7334C27.7186 30.0239 27.1755 30.249 26.6105 30.4036V31.0982C26.6101 31.503 26.449 31.891 26.1628 32.1773C25.8766 32.4635 25.4885 32.6245 25.0837 32.625H24.4163C24.0115 32.6245 23.6234 32.4635 23.3372 32.1773C23.051 31.891 22.8899 31.503 22.8895 31.0982V30.4036C22.7569 30.3673 22.63 30.3142 22.5 30.2702V32.0625C22.4995 32.5099 22.3216 32.9388 22.0052 33.2552C21.6888 33.5716 21.2599 33.7495 20.8125 33.75H1.6875C1.2401 33.7495 0.811159 33.5716 0.494797 33.2552C0.178435 32.9388 0.00048836 32.5099 0 32.0625V5.0625C0.00048836 4.6151 0.178435 4.18616 0.494797 3.8698C0.811159 3.55343 1.2401 3.37549 1.6875 3.375H6.29115C6.40672 3.04691 6.621 2.76264 6.90459 2.56121C7.18817 2.35978 7.52716 2.25107 7.875 2.25H9C9 1.65326 9.23705 1.08097 9.65901 0.65901C10.081 0.237053 10.6533 0 11.25 0C11.8467 0 12.419 0.237053 12.841 0.65901C13.2629 1.08097 13.5 1.65326 13.5 2.25H14.625C14.9728 2.25107 15.3118 2.35978 15.5954 2.56121C15.879 2.76264 16.0933 3.04691 16.2088 3.375H20.8125C21.2599 3.37549 21.6888 3.55343 22.0052 3.8698C22.3216 4.18616 22.4995 4.6151 22.5 5.0625V16.9289C22.6301 16.885 22.7567 16.8315 22.8895 16.7954V16.1518C22.8899 15.7471 23.051 15.359 23.3372 15.0727C23.6234 14.7865 24.0115 14.6255 24.4163 14.625H25.0837C25.4885 14.6255 25.8766 14.7865 26.1628 15.0727C26.449 15.359 26.6101 15.747 26.6105 16.1518V16.7953C27.1879 16.9526 27.7425 17.1838 28.2607 17.4831L28.7188 17.0249C29.0052 16.7388 29.3935 16.5781 29.7984 16.5781C30.2032 16.5781 30.5915 16.7388 30.8779 17.0249L31.35 17.4971C31.636 17.7836 31.7966 18.1718 31.7966 18.5766C31.7966 18.9814 31.636 19.3697 31.35 19.6562L30.8839 20.1223C31.1784 20.6386 31.4055 21.1905 31.5599 21.7644H32.2232C32.628 21.7649 33.016 21.9259 33.3023 22.2122C33.5885 22.4984 33.7495 22.8865 33.75 23.2913ZM20.8125 4.5H16.3125V5.625H19.125C19.4233 5.62534 19.7092 5.74398 19.9201 5.95488C20.131 6.16579 20.2497 6.45174 20.25 6.75V16.6823C20.4492 16.7579 20.6302 16.8746 20.7812 17.025L21.2393 17.4831C21.2833 17.4578 21.3306 17.4403 21.375 17.416V5.0625C21.3749 4.91336 21.3155 4.77037 21.2101 4.66492C21.1046 4.55946 20.9616 4.50015 20.8125 4.5ZM18.15 17.4971C18.421 17.1692 18.7519 16.8957 19.125 16.6913V6.75H15.8736C15.7168 6.92632 15.5245 7.06756 15.3093 7.16449C15.0942 7.26142 14.861 7.31185 14.625 7.3125H7.875C7.63902 7.31185 7.40583 7.26142 7.19068 7.16449C6.97552 7.06756 6.78324 6.92632 6.6264 6.75H3.375V30.375H18.8057C18.5751 30.1807 18.3561 29.973 18.15 29.7529C17.864 29.4664 17.7034 29.0781 17.7034 28.6733C17.7034 28.2685 17.864 27.8803 18.15 27.5938L18.6334 27.1101C18.3389 26.5995 18.1103 26.0536 17.953 25.4855C17.49 25.5395 17.0208 25.4801 16.5859 25.3125H7.3125C7.16332 25.3125 7.02024 25.2532 6.91475 25.1477C6.80926 25.0423 6.75 24.8992 6.75 24.75C6.75 24.6008 6.80926 24.4577 6.91475 24.3523C7.02024 24.2468 7.16332 24.1875 7.3125 24.1875H15.7731C15.7356 23.8134 15.7356 23.4366 15.7731 23.0625H7.3125C7.16332 23.0625 7.02024 23.0032 6.91475 22.8977C6.80926 22.7923 6.75 22.6492 6.75 22.5C6.75 22.3508 6.80926 22.2077 6.91475 22.1023C7.02024 21.9968 7.16332 21.9375 7.3125 21.9375H16.5859C17.0165 21.7704 17.4813 21.711 17.9401 21.7645C18.0945 21.1905 18.3216 20.6386 18.6161 20.1223L18.15 19.6562C17.864 19.3697 17.7034 18.9815 17.7034 18.5767C17.7034 18.1719 17.864 17.7836 18.15 17.4971ZM10.125 2.25H12.375C12.375 1.95163 12.2565 1.66548 12.0455 1.4545C11.8345 1.24353 11.5484 1.125 11.25 1.125C10.9516 1.125 10.6655 1.24353 10.4545 1.4545C10.2435 1.66548 10.125 1.95163 10.125 2.25ZM7.3125 5.625C7.31265 5.77414 7.37196 5.91713 7.47742 6.02258C7.58287 6.12804 7.72586 6.18735 7.875 6.1875H14.625C14.7741 6.18735 14.9171 6.12804 15.0226 6.02258C15.128 5.91713 15.1874 5.77414 15.1875 5.625V3.9375C15.1874 3.78836 15.128 3.64537 15.0226 3.53992C14.9171 3.43446 14.7741 3.37515 14.625 3.375H7.875C7.72586 3.37515 7.58287 3.43446 7.47742 3.53992C7.37196 3.64537 7.31265 3.78836 7.3125 3.9375V5.625ZM21.375 29.7835C21.3416 29.7652 21.306 29.7523 21.2728 29.7334L20.7812 30.225C20.6249 30.3798 20.4368 30.4987 20.23 30.5734C20.1835 30.8328 20.0474 31.0677 19.8455 31.237C19.6435 31.4064 19.3885 31.4994 19.125 31.5H3.375C3.07674 31.4997 2.79079 31.381 2.57988 31.1701C2.36898 30.9592 2.25034 30.6733 2.25 30.375V6.75C2.25034 6.45174 2.36898 6.16579 2.57988 5.95488C2.79079 5.74398 3.07674 5.62534 3.375 5.625H6.1875V4.5H1.6875C1.53836 4.50015 1.39537 4.55946 1.28992 4.66492C1.18446 4.77037 1.12515 4.91336 1.125 5.0625V32.0625C1.12515 32.2116 1.18446 32.3546 1.28992 32.4601C1.39537 32.5655 1.53836 32.6249 1.6875 32.625H20.8125C20.9616 32.6249 21.1046 32.5655 21.2101 32.4601C21.3155 32.3546 21.3749 32.2116 21.375 32.0625V29.7835ZM32.625 23.2913C32.6249 23.1847 32.5825 23.0826 32.5072 23.0073C32.4319 22.9319 32.3297 22.8896 32.2232 22.8895H31.1138C30.9837 22.8895 30.8575 22.8443 30.7569 22.7617C30.6563 22.6791 30.5874 22.5642 30.562 22.4366C30.4137 21.691 30.1219 20.9814 29.7029 20.3472C29.6317 20.2391 29.6001 20.1097 29.6132 19.9809C29.6264 19.8521 29.6836 19.7318 29.7751 19.6403L30.5546 18.8608C30.6298 18.7853 30.672 18.6832 30.672 18.5766C30.672 18.4701 30.6298 18.368 30.5546 18.2925L30.0825 17.8204C30.0071 17.7451 29.9049 17.7028 29.7984 17.7028C29.6918 17.7028 29.5896 17.7451 29.5142 17.8204L28.7411 18.5935C28.6491 18.6854 28.5282 18.7426 28.3989 18.7554C28.2696 18.7683 28.1399 18.736 28.0316 18.6641C27.3967 18.2394 26.6849 17.9427 25.9363 17.7907C25.8091 17.7649 25.6947 17.6959 25.6126 17.5955C25.5304 17.495 25.4856 17.3692 25.4855 17.2395V16.1518C25.4855 16.0453 25.4431 15.9431 25.3677 15.8678C25.2924 15.7925 25.1903 15.7501 25.0837 15.75H24.4163C24.3097 15.7501 24.2076 15.7925 24.1323 15.8678C24.0569 15.9431 24.0146 16.0453 24.0145 16.1518V17.2395C24.0145 17.3693 23.9696 17.4951 23.8874 17.5955C23.8053 17.696 23.6909 17.765 23.5637 17.7907C22.8151 17.9427 22.1033 18.2394 21.4684 18.6641C21.3602 18.7361 21.2304 18.7684 21.1011 18.7555C20.9717 18.7426 20.8509 18.6854 20.7589 18.5935L19.9858 17.8204C19.9104 17.7451 19.8082 17.7028 19.7016 17.7028C19.5951 17.7028 19.4929 17.7451 19.4175 17.8204L18.9454 18.2925C18.8702 18.368 18.8279 18.4701 18.8279 18.5766C18.8279 18.6832 18.8702 18.7853 18.9454 18.8608L19.7249 19.6403C19.8164 19.7318 19.8736 19.8521 19.8867 19.9809C19.8999 20.1097 19.8682 20.2391 19.7971 20.3472C19.378 20.9814 19.0863 21.691 18.938 22.4365C18.9126 22.5642 18.8437 22.6791 18.7431 22.7617C18.6425 22.8443 18.5163 22.8894 18.3861 22.8895H17.2768C17.1703 22.8895 17.0681 22.9319 16.9928 23.0073C16.9175 23.0826 16.8751 23.1847 16.875 23.2913V23.9587C16.8751 24.0653 16.9175 24.1674 16.9928 24.2427C17.0681 24.3181 17.1703 24.3604 17.2768 24.3605H18.3955C18.5249 24.3605 18.6503 24.4051 18.7506 24.4868C18.851 24.5685 18.92 24.6823 18.9462 24.8091C19.0996 25.5491 19.3944 26.2527 19.8144 26.8811C19.8865 26.9892 19.9189 27.119 19.9061 27.2484C19.8933 27.3777 19.836 27.4986 19.7441 27.5905L18.9454 28.3892C18.8702 28.4647 18.8279 28.5668 18.8279 28.6734C18.8279 28.7799 18.8702 28.882 18.9454 28.9575L19.4175 29.4296C19.493 29.5047 19.5952 29.5468 19.7016 29.5468C19.8081 29.5468 19.9103 29.5047 19.9858 29.4296L20.7908 28.6246C20.8823 28.5331 21.0027 28.4759 21.1314 28.4627C21.2602 28.4496 21.3896 28.4812 21.4978 28.5524C22.1252 28.9676 22.8267 29.2581 23.564 29.4082C23.6911 29.4341 23.8054 29.5031 23.8875 29.6035C23.9696 29.704 24.0145 29.8297 24.0145 29.9595V31.0982C24.0146 31.2047 24.0569 31.3069 24.1323 31.3822C24.2076 31.4575 24.3097 31.4999 24.4163 31.5H25.0837C25.1903 31.4999 25.2924 31.4575 25.3677 31.3822C25.4431 31.3069 25.4854 31.2047 25.4855 31.0982V29.9594C25.4855 29.8297 25.5304 29.704 25.6125 29.6035C25.6946 29.503 25.8088 29.434 25.936 29.4082C26.6733 29.2581 27.3748 28.9676 28.0022 28.5524C28.1103 28.4811 28.2398 28.4494 28.3686 28.4625C28.4974 28.4757 28.6177 28.5329 28.7092 28.6246L29.5142 29.4296C29.5897 29.5047 29.6919 29.5468 29.7984 29.5468C29.9048 29.5468 30.007 29.5047 30.0825 29.4296L30.5546 28.9575C30.6298 28.882 30.672 28.7799 30.672 28.6733C30.672 28.5668 30.6298 28.4647 30.5546 28.3892L29.7559 27.5905C29.664 27.4986 29.6067 27.3777 29.5939 27.2484C29.5811 27.119 29.6135 26.9892 29.6856 26.8811C30.1056 26.2527 30.4004 25.5492 30.5538 24.8091C30.58 24.6823 30.649 24.5685 30.7494 24.4868C30.8497 24.4051 30.9751 24.3605 31.1045 24.3605H32.2232C32.3297 24.3605 32.4319 24.3181 32.5072 24.2427C32.5825 24.1674 32.6249 24.0653 32.625 23.9587V23.2913ZM17.5881 12.2244C17.8309 12.4662 17.9768 12.7886 17.9983 13.1306C18.0199 13.4726 17.9155 13.8107 17.7049 14.0811C17.4943 14.3515 17.1921 14.5355 16.8552 14.5984C16.5184 14.6613 16.1701 14.5988 15.8761 14.4226L14.0299 15.7414C14.0771 15.9608 14.071 16.1883 14.0121 16.4049C13.9532 16.6214 13.8433 16.8207 13.6915 16.986C13.5397 17.1513 13.3505 17.2777 13.1397 17.3548C12.929 17.4319 12.7028 17.4573 12.4802 17.4289C12.2576 17.4005 12.045 17.3192 11.8604 17.1917C11.6757 17.0642 11.5243 16.8943 11.4188 16.6962C11.3134 16.4981 11.2569 16.2776 11.2543 16.0532C11.2516 15.8288 11.3028 15.6071 11.4036 15.4065L10.2321 14.0008C10.0251 14.0607 9.80705 14.0721 9.59495 14.0339C9.38284 13.9958 9.1824 13.9093 9.0092 13.7811L7.29773 14.759C7.33167 15.0795 7.25423 15.402 7.07843 15.6722C6.90263 15.9424 6.63917 16.1439 6.33234 16.2427C6.02551 16.3415 5.69401 16.3318 5.39354 16.215C5.09308 16.0982 4.84197 15.8816 4.6824 15.6015C4.52284 15.3214 4.46456 14.9949 4.51735 14.6769C4.57014 14.3589 4.73078 14.0687 4.97229 13.8552C5.21379 13.6417 5.52143 13.5178 5.84351 13.5044C6.16558 13.491 6.48247 13.5888 6.7409 13.7815L8.4523 12.8036C8.42848 12.5868 8.45557 12.3675 8.53142 12.1631C8.60726 11.9587 8.72976 11.7748 8.88918 11.6261C9.04859 11.4773 9.24052 11.3678 9.44969 11.3063C9.65887 11.2448 9.87951 11.2329 10.0941 11.2716C10.3086 11.3104 10.5112 11.3987 10.6857 11.5294C10.8601 11.6602 11.0016 11.8299 11.0989 12.0251C11.1963 12.2202 11.2467 12.4353 11.2463 12.6533C11.2459 12.8714 11.1945 13.0863 11.0964 13.281L12.2678 14.6868C12.452 14.6334 12.6452 14.6183 12.8354 14.6425C13.0257 14.6667 13.2089 14.7296 13.3739 14.8274L15.2201 13.5086C15.157 13.2122 15.1915 12.9033 15.3184 12.6281C15.4453 12.3529 15.6578 12.1261 15.9242 11.9816C16.1906 11.8371 16.4966 11.7827 16.7965 11.8265C17.0964 11.8702 17.3741 12.0098 17.5881 12.2244ZM6.10514 14.7074C6.06581 14.668 6.01569 14.6412 5.96113 14.6304C5.90658 14.6195 5.85003 14.6251 5.79863 14.6464C5.74724 14.6677 5.70332 14.7037 5.67241 14.75C5.64151 14.7962 5.62501 14.8506 5.62501 14.9062C5.62501 14.9619 5.64151 15.0162 5.67241 15.0625C5.70332 15.1087 5.74724 15.1448 5.79863 15.1661C5.85003 15.1874 5.90658 15.1929 5.96113 15.1821C6.01569 15.1712 6.06581 15.1444 6.10514 15.1051C6.15783 15.0523 6.18742 14.9808 6.18742 14.9062C6.18742 14.8317 6.15783 14.7601 6.10514 14.7074ZM9.64486 12.8551C9.68419 12.8944 9.73431 12.9212 9.78887 12.9321C9.84342 12.9429 9.89997 12.9374 9.95137 12.9161C10.0028 12.8948 10.0467 12.8587 10.0776 12.8125C10.1085 12.7662 10.125 12.7119 10.125 12.6562C10.125 12.6006 10.1085 12.5462 10.0776 12.5C10.0467 12.4537 10.0028 12.4177 9.95137 12.3964C9.89997 12.3751 9.84342 12.3695 9.78887 12.3804C9.73431 12.3912 9.68419 12.418 9.64486 12.4574C9.59218 12.5101 9.56259 12.5817 9.56259 12.6562C9.56259 12.7308 9.59218 12.8023 9.64486 12.8551ZM12.8551 15.8324C12.8158 15.793 12.7657 15.7662 12.7111 15.7554C12.6566 15.7445 12.6 15.7501 12.5486 15.7714C12.4972 15.7927 12.4533 15.8287 12.4224 15.875C12.3915 15.9212 12.375 15.9756 12.375 16.0312C12.375 16.0869 12.3915 16.1412 12.4224 16.1875C12.4533 16.2337 12.4972 16.2698 12.5486 16.2911C12.6 16.3124 12.6566 16.3179 12.7111 16.3071C12.7657 16.2962 12.8158 16.2694 12.8551 16.2301C12.9078 16.1773 12.9374 16.1058 12.9374 16.0312C12.9374 15.9567 12.9078 15.8851 12.8551 15.8324ZM16.7926 13.0199C16.7533 12.9805 16.7032 12.9537 16.6486 12.9429C16.5941 12.932 16.5375 12.9376 16.4861 12.9589C16.4347 12.9802 16.3908 13.0162 16.3599 13.0625C16.329 13.1087 16.3125 13.1631 16.3125 13.2187C16.3125 13.2744 16.329 13.3287 16.3599 13.375C16.3908 13.4212 16.4347 13.4573 16.4861 13.4786C16.5375 13.4999 16.5941 13.5054 16.6486 13.4946C16.7032 13.4837 16.7533 13.4569 16.7926 13.4176C16.8453 13.3648 16.8749 13.2933 16.8749 13.2187C16.8749 13.1442 16.8453 13.0726 16.7926 13.0199ZM5.625 19.6875C5.51375 19.6875 5.40499 19.7205 5.31249 19.7823C5.21999 19.8441 5.14789 19.932 5.10532 20.0347C5.06274 20.1375 5.0516 20.2506 5.07331 20.3597C5.09501 20.4689 5.14859 20.5691 5.22725 20.6477C5.30592 20.7264 5.40615 20.78 5.51526 20.8017C5.62438 20.8234 5.73748 20.8123 5.84026 20.7697C5.94304 20.7271 6.03089 20.655 6.0927 20.5625C6.15451 20.47 6.1875 20.3613 6.1875 20.25C6.1875 20.1008 6.12824 19.9577 6.02275 19.8523C5.91726 19.7468 5.77418 19.6875 5.625 19.6875ZM5.625 21.9375C5.51375 21.9375 5.40499 21.9705 5.31249 22.0323C5.21999 22.0941 5.14789 22.182 5.10532 22.2847C5.06274 22.3875 5.0516 22.5006 5.07331 22.6097C5.09501 22.7189 5.14859 22.8191 5.22725 22.8977C5.30592 22.9764 5.40615 23.03 5.51526 23.0517C5.62438 23.0734 5.73748 23.0623 5.84026 23.0197C5.94304 22.9771 6.03089 22.905 6.0927 22.8125C6.15451 22.72 6.1875 22.6113 6.1875 22.5C6.1875 22.3508 6.12824 22.2077 6.02275 22.1023C5.91726 21.9968 5.77418 21.9375 5.625 21.9375ZM5.625 24.1875C5.51375 24.1875 5.40499 24.2205 5.31249 24.2823C5.21999 24.3441 5.14789 24.432 5.10532 24.5347C5.06274 24.6375 5.0516 24.7506 5.07331 24.8597C5.09501 24.9689 5.14859 25.0691 5.22725 25.1477C5.30592 25.2264 5.40615 25.28 5.51526 25.3017C5.62438 25.3234 5.73748 25.3123 5.84026 25.2697C5.94304 25.2271 6.03089 25.155 6.0927 25.0625C6.15451 24.97 6.1875 24.8613 6.1875 24.75C6.1875 24.6008 6.12824 24.4577 6.02275 24.3523C5.91726 24.2468 5.77418 24.1875 5.625 24.1875Z" fill="var(--fill-0, white)"/>
</g>
</svg>
