<svg width="563" height="72" viewBox="0 0 563 72" fill="none" xmlns="http://www.w3.org/2000/svg">
<g clip-path="url(#clip0_64_4640)">
<path d="M114.414 15.1616V31.1137H160.05V44.6946H114.414V70.4191H98.625V1.58081H168.557V15.1616H114.414Z" fill="#EC1E24"/>
<path d="M196.17 15.1616V31.1137H241.806V44.6946H196.17V70.4191H180.381V1.58081H250.313V15.1616H196.17Z" fill="#EC1E24"/>
<path d="M358.097 25.6529C358.097 18.3235 352.257 14.9463 343.534 14.9463H314.047V36.2876H343.534C352.329 36.2876 358.097 32.9822 358.097 25.6529Z" fill="white"/>
<path d="M471.142 14.9463H451.748V56.9822H471.142C486.57 56.9822 497.528 49.7966 497.528 35.9283C497.528 22.0601 486.57 14.9463 471.142 14.9463Z" fill="white"/>
<path d="M273.24 1.58081V70.4191H540.063L564.503 1.58081H273.24ZM357.952 63.0898L339.928 42.3952H314.118V63.0898H307.557V8.91015H344.037C356.149 8.91015 364.801 14.9461 364.801 25.5808C364.801 34.994 357.952 40.8862 347.93 42.0359L366.459 63.0179H357.952V63.0898ZM431.849 63.0898H379.292V8.91015H431.056V14.9461H385.852V32.479H424.207V38.5149H385.852V56.982H431.849V63.0898ZM471.645 63.0898H445.259V8.91015H471.645C491.471 8.91015 504.232 19.3293 504.232 36C504.232 52.6706 491.471 63.0898 471.645 63.0898Z" fill="white"/>
<path d="M54.936 2.22754C50.3219 0.790419 45.059 0 39.3635 0C33.668 0 28.4051 0.790419 23.791 2.22754L35.9029 14.3713L39.2193 17.6766L39.3635 17.8204L42.8241 14.3713L54.936 2.22754Z" fill="#EC1E24"/>
<path d="M65.2458 7.25757L54.4316 18.036C60.1271 21.6288 63.3714 27.7366 63.3714 36.0001C63.3714 49.9402 54.0711 57.7725 39.3638 57.7725C24.5843 57.7725 15.3562 49.9402 15.3562 36.0001C15.3562 27.7366 18.6005 21.6288 24.296 18.036L13.4817 7.25757C4.83035 13.3654 0 23.2097 0 36.0001C0 58.6348 15.212 72.0001 39.3638 72.0001C63.5155 72.0001 78.7276 58.6348 78.7276 36.0001C78.7276 23.2097 73.8251 13.3654 65.2458 7.25757Z" fill="#EC1E24"/>
</g>
<defs>
<clipPath id="clip0_64_4640">
<rect width="563" height="72" fill="white"/>
</clipPath>
</defs>
</svg>
