<svg preserveAspectRatio="none" width="100%" height="100%" overflow="visible" style="display: block;" viewBox="0 0 210 23.5955" fill="none" xmlns="http://www.w3.org/2000/svg">
<g id="Group">
<path id="Vector" d="M37.3537 4.96871V10.1965H52.2529V14.6471H37.3537V23.0774H32.1991V0.518065H55.0303V4.96871H37.3537Z" fill="var(--fill-0, #EC1E24)"/>
<path id="Vector_2" d="M64.045 4.96871V10.1965H78.9442V14.6471H64.045V23.0774H58.8904V0.518065H81.7216V4.96871H64.045Z" fill="var(--fill-0, #EC1E24)"/>
<g id="Group_2">
<path id="Vector_3" d="M126.042 0.518175L117.757 23.0775H114.886L107.636 3.76785L100.34 23.0775H97.468L89.2064 0.518175H92.1721L98.9744 19.8043L106.295 0.518175H109.025L116.298 19.8043L123.124 0.518175H126.042Z" fill="var(--fill-0, white)"/>
<path id="Vector_4" d="M147.744 17.0255H132.539L129.243 23.0774H126.254L138.658 0.494512H141.695L154.099 23.0774H151.039L147.744 17.0255ZM146.426 14.5765L140.141 2.99064L133.857 14.5765H146.426Z" fill="var(--fill-0, white)"/>
<path id="Vector_5" d="M179.307 23.0774L171.822 14.4352H161.089V23.0774H158.359V0.518062H173.517C178.554 0.518062 182.155 3.03774 182.155 7.48839C182.155 11.421 179.307 13.87 175.165 14.3645L182.838 23.0774H179.307ZM173.305 11.939C176.954 11.939 179.354 10.5497 179.354 7.48839C179.354 4.4271 176.93 3.03774 173.305 3.03774H161.066V11.939H173.305Z" fill="var(--fill-0, white)"/>
<path id="Vector_6" d="M210 20.5813V23.0774H188.181V0.518062H209.67V3.03774H190.888V10.3613H206.822V12.881H190.888V20.5813H210Z" fill="var(--fill-0, white)"/>
</g>
<g id="Group_3">
<path id="Vector_7" d="M17.9354 0.730001C16.429 0.259032 14.7108 0 12.8514 0C10.9919 0 9.2737 0.259032 7.76731 0.730001L11.7216 4.70968L12.8043 5.79291L12.8514 5.84001L13.9812 4.70968L17.9354 0.730001Z" fill="var(--fill-0, #EC1E24)"/>
<path id="Vector_8" d="M21.3013 2.37839L17.7707 5.91065C19.6301 7.08807 20.6893 9.08968 20.6893 11.7978C20.6893 16.3661 17.653 18.9329 12.8514 18.9329C8.02623 18.9329 5.01345 16.3661 5.01345 11.7978C5.01345 9.08968 6.07263 7.08807 7.93208 5.91065L4.40148 2.37839C1.577 4.38 0 7.60614 0 11.7978C0 19.2155 4.96638 23.5955 12.8514 23.5955C20.7364 23.5955 25.7028 19.2155 25.7028 11.7978C25.7028 7.60614 24.1022 4.38 21.3013 2.37839Z" fill="var(--fill-0, #EC1E24)"/>
</g>
</g>
</svg>
