<svg width="200" height="24" viewBox="0 0 200 24" fill="none" xmlns="http://www.w3.org/2000/svg">
<g clip-path="url(#clip0_6_296)">
<path d="M38.0895 5.05392V10.3713H53.2821V14.8982H38.0895V23.4731H32.8333V0.526978H56.1142V5.05392H38.0895Z" fill="white"/>
<path d="M65.3067 5.05392V10.3713H80.4994V14.8982H65.3067V23.4731H60.0505V0.526978H83.3315V5.05392H65.3067Z" fill="white"/>
<path d="M90.9636 0.527004V23.4731H191.864L200 0.503052H90.9636V0.527004ZM118.421 4.93419H109.876V21.03H107.716V4.93419H99.196V2.97012H118.445V4.93419H118.421ZM139.47 21.03H121.973V2.97012H139.206V4.98209H124.157V10.8264H136.925V12.8384H124.157V18.9941H139.47V21.03ZM152.67 21.5569C148.71 21.5569 144.918 20.3114 142.11 17.8444L143.622 16.2156C146.262 18.539 149.166 19.545 152.79 19.545C157.158 19.545 159.702 18.1797 159.702 15.9282C159.702 13.7486 157.038 13.1977 152.166 12.7905C147.342 12.3833 142.71 11.3294 142.71 7.76054C142.71 4.35934 147.006 2.41922 151.83 2.41922C155.766 2.41922 158.982 3.78449 161.07 5.65275L159.366 7.08988C157.614 5.36533 154.95 4.45515 151.926 4.4312C148.686 4.40724 144.918 5.31742 144.918 7.68868C144.918 9.94018 148.326 10.3953 152.598 10.7306C158.094 11.1617 161.91 12.2156 161.91 15.7845C161.934 19.1138 158.55 21.5569 152.67 21.5569ZM182.503 4.93419H173.959V21.03H171.799V4.93419H163.279V2.97012H182.527V4.93419H182.503Z" fill="white"/>
<path d="M18.2888 0.742515C16.7528 0.263473 15.0007 0 13.1046 0C11.2085 0 9.45647 0.263473 7.92041 0.742515L11.9526 4.79042L13.0566 5.89222L13.1046 5.94012L14.2567 4.79042L18.2888 0.742515Z" fill="white"/>
<path d="M21.7209 2.41919L18.1207 6.012C20.0168 7.20961 21.0968 9.24554 21.0968 12C21.0968 16.6467 18.0007 19.2575 13.1045 19.2575C8.18433 19.2575 5.1122 16.6467 5.1122 12C5.1122 9.24554 6.19225 7.20961 8.08832 6.012L4.48818 2.41919C1.60806 4.45512 0 7.73656 0 12C0 19.5449 5.0642 24 13.1045 24C21.1448 24 26.209 19.5449 26.209 12C26.209 7.73656 24.577 4.45512 21.7209 2.41919Z" fill="white"/>
</g>
<defs>
<clipPath id="clip0_6_296">
<rect width="200" height="24" fill="white"/>
</clipPath>
</defs>
</svg>
