<svg preserveAspectRatio="xMidYMid meet" width="528" height="72" overflow="visible" style="display: block;" viewBox="0 0 528 72" fill="none" xmlns="http://www.w3.org/2000/svg">
<g id="Group">
<path id="Vector" d="M114.067 15.1617V31.1138H159.564V44.6946H114.067V70.4192H98.3262V1.58084H168.046V15.1617H114.067Z" fill="var(--fill-0, #EC1E24)"/>
<path id="Vector_2" d="M195.574 15.1617V31.1138H241.072V44.6946H195.574V70.4192H179.833V1.58084H249.553V15.1617H195.574Z" fill="var(--fill-0, #EC1E24)"/>
<g id="Group_2">
<path id="Vector_3" d="M272.409 1.58084V70.4192H503.634L528 1.50898H272.409V1.58084ZM329.048 63.0898H322.579V14.8024H297.063V8.91018H354.707V14.8024H329.12V63.0898H329.048ZM408.183 63.0898L400.277 48.5749H363.764L355.857 63.0898H348.67L378.426 8.98204H385.686L415.442 63.0898H408.183ZM451.452 58.6347C460.868 58.6347 468.702 55.5449 472.871 48.2874L479.053 51.3773C473.949 59.497 464.534 64.6707 451.308 64.6707C431.111 64.6707 418.749 53.5329 418.749 36C418.749 18.4671 431.111 7.32934 451.524 7.32934C464.534 7.32934 473.949 12.5749 479.053 20.6228L472.871 23.7126C468.631 16.5269 460.868 13.3653 451.452 13.3653C435.783 13.3653 425.361 21.1258 425.361 36C425.433 50.9461 435.783 58.6347 451.452 58.6347Z" fill="var(--fill-0, white)"/>
<path id="Vector_4" d="M366.926 42.6826H397.114L382.02 14.8743L366.926 42.6826Z" fill="var(--fill-0, white)"/>
</g>
<g id="Group_3">
<path id="Vector_5" d="M54.7694 2.22754C50.1693 0.790419 44.9224 0 39.2442 0C33.566 0 28.3191 0.790419 23.719 2.22754L35.7942 14.3713L39.1005 17.6766L39.2442 17.8204L42.6943 14.3713L54.7694 2.22754Z" fill="var(--fill-0, #EC1E24)"/>
<path id="Vector_6" d="M65.0477 7.25748L54.2663 18.0359C59.9445 21.6287 63.1789 27.7365 63.1789 36C63.1789 49.9401 53.9069 57.7725 39.2442 57.7725C24.5097 57.7725 15.3096 49.9401 15.3096 36C15.3096 27.7365 18.544 21.6287 24.2222 18.0359L13.4408 7.25748C4.81568 13.3653 0 23.2096 0 36C0 58.6347 15.1658 72 39.2442 72C63.3226 72 78.4884 58.6347 78.4884 36C78.4884 23.2096 73.6009 13.3653 65.0477 7.25748Z" fill="var(--fill-0, #EC1E24)"/>
</g>
</g>
</svg>
