<svg width="176" height="24" viewBox="0 0 176 24" fill="none" xmlns="http://www.w3.org/2000/svg">
<g clip-path="url(#clip0_6_273)">
<path d="M38.0223 5.05392V10.3713H53.1881V14.8982H38.0223V23.4731H32.7754V0.526978H56.0153V5.05392H38.0223Z" fill="white"/>
<path d="M65.1915 5.05392V10.3713H80.3573V14.8982H65.1915V23.4731H59.9446V0.526978H83.1844V5.05392H65.1915Z" fill="white"/>
<path d="M90.8032 0.527004V23.4731H167.878L176 0.503052H90.8032V0.527004ZM109.683 21.03H107.526V4.93419H99.021V2.97012H118.236V4.93419H109.707V21.03H109.683ZM136.061 21.03L133.426 16.1917H121.255L118.619 21.03H116.223L126.142 2.99407H128.562L138.481 21.03H136.061ZM150.484 19.545C153.623 19.545 156.234 18.515 157.624 16.0959L159.684 17.1258C157.983 19.8324 154.845 21.5569 150.436 21.5569C143.704 21.5569 139.583 17.8444 139.583 12.0001C139.583 6.15575 143.704 2.44317 150.508 2.44317C154.845 2.44317 157.983 4.19167 159.684 6.87431L157.624 7.90425C156.21 5.50904 153.623 4.45515 150.484 4.45515C145.261 4.45515 141.787 7.04197 141.787 12.0001C141.811 16.9821 145.261 19.545 150.484 19.545Z" fill="white"/>
<path d="M122.309 14.2276H132.371L127.34 4.95813L122.309 14.2276Z" fill="white"/>
<path d="M18.2564 0.742515C16.723 0.263473 14.974 0 13.0813 0C11.1886 0 9.4396 0.263473 7.90625 0.742515L11.9313 4.79042L13.0334 5.89222L13.0813 5.94012L14.2313 4.79042L18.2564 0.742515Z" fill="white"/>
<path d="M21.6825 2.41919L18.0888 6.012C19.9815 7.20961 21.0596 9.24554 21.0596 12C21.0596 16.6467 17.969 19.2575 13.0814 19.2575C8.16989 19.2575 5.10319 16.6467 5.10319 12C5.10319 9.24554 6.18132 7.20961 8.07405 6.012L4.48026 2.41919C1.60523 4.45512 0 7.73656 0 12C0 19.5449 5.05527 24 13.0814 24C21.1075 24 26.1628 19.5449 26.1628 12C26.1628 7.73656 24.5336 4.45512 21.6825 2.41919Z" fill="white"/>
</g>
<defs>
<clipPath id="clip0_6_273">
<rect width="176" height="24" fill="white"/>
</clipPath>
</defs>
</svg>
