<svg preserveAspectRatio="none" width="100%" height="100%" overflow="visible" style="display: block;" viewBox="0 0 45.3128 46.875" fill="none" xmlns="http://www.w3.org/2000/svg">
<g id="server-data base-file-chart-search">
<path id="Vector" d="M3.90625 25H5.46875V26.5625H3.90625V25Z" fill="var(--fill-0, white)"/>
<path id="Vector_2" d="M7.03125 25H8.59375V26.5625H7.03125V25Z" fill="var(--fill-0, white)"/>
<path id="Vector_3" d="M10.1563 25H11.7188V26.5625H10.1563V25Z" fill="var(--fill-0, white)"/>
<path id="Vector_4" d="M3.90625 33.5938H5.46875V35.1563H3.90625V33.5938Z" fill="var(--fill-0, white)"/>
<path id="Vector_5" d="M7.03125 33.5938H8.59375V35.1563H7.03125V33.5938Z" fill="var(--fill-0, white)"/>
<path id="Vector_6" d="M10.1563 33.5938H11.7188V35.1563H10.1563V33.5938Z" fill="var(--fill-0, white)"/>
<path id="Vector_7" d="M3.90625 42.1875H5.46875V43.75H3.90625V42.1875Z" fill="var(--fill-0, white)"/>
<path id="Vector_8" d="M7.03125 42.1875H8.59375V43.75H7.03125V42.1875Z" fill="var(--fill-0, white)"/>
<path id="Vector_9" d="M10.1563 42.1875H11.7188V43.75H10.1563V42.1875Z" fill="var(--fill-0, white)"/>
<path id="Vector_10" d="M36.4391 15.7641L37.6055 16.6711L34.9555 20.0781L30.0781 17.2906C29.9204 17.2006 29.7362 17.1684 29.5573 17.1995C29.3783 17.2306 29.2158 17.323 29.0977 17.461L24.4102 22.9297L25.5969 23.9453L29.8641 18.9672L34.7727 21.7719C34.936 21.8653 35.1275 21.8967 35.3121 21.8602C35.4966 21.8238 35.6618 21.722 35.7773 21.5735L38.8438 17.6313L40.0102 18.5383L40.625 14.0625L36.4391 15.7641Z" fill="var(--fill-0, white)"/>
<path id="Vector_11" d="M7.8125 11.7188H12.5V13.2813H7.8125V11.7188Z" fill="var(--fill-0, white)"/>
<path id="Vector_12" d="M14.8438 11.7188H19.5313V13.2813H14.8438V11.7188Z" fill="var(--fill-0, white)"/>
<path id="Vector_13" d="M7.8125 14.8438H14.8438V16.4063H7.8125V14.8438Z" fill="var(--fill-0, white)"/>
<path id="Vector_14" d="M16.4063 14.8438H19.5313V16.4063H16.4063V14.8438Z" fill="var(--fill-0, white)"/>
<path id="Vector_15" d="M39.8437 8.42187V0.78125C39.8437 0.57405 39.7614 0.375336 39.6149 0.228823C39.4684 0.08231 39.2697 0 39.0625 0H12.5C12.2929 0.00154241 12.0943 0.0826595 11.9453 0.226562L4.13281 8.03906C3.98891 8.18803 3.90779 8.38663 3.90625 8.59375V21.875H0.78125C0.57405 21.875 0.375336 21.9573 0.228823 22.1038C0.08231 22.2503 0 22.449 0 22.6562V28.9062C0 29.1135 0.08231 29.3122 0.228823 29.4587C0.375336 29.6052 0.57405 29.6875 0.78125 29.6875H1.5625V30.4688H0.78125C0.57405 30.4688 0.375336 30.5511 0.228823 30.6976C0.08231 30.8441 0 31.0428 0 31.25V37.5C0 37.7072 0.08231 37.9059 0.228823 38.0524C0.375336 38.1989 0.57405 38.2812 0.78125 38.2812H1.5625V39.0625H0.78125C0.57405 39.0625 0.375336 39.1448 0.228823 39.2913C0.08231 39.4378 0 39.6365 0 39.8438V46.0938C0 46.301 0.08231 46.4997 0.228823 46.6462C0.375336 46.7927 0.57405 46.875 0.78125 46.875H24.2187C24.4259 46.875 24.6247 46.7927 24.7712 46.6462C24.9177 46.4997 25 46.301 25 46.0938V43.75H29.6875C29.6875 44.5788 30.0167 45.3737 30.6028 45.9597C31.1888 46.5458 31.9837 46.875 32.8125 46.875C33.6413 46.875 34.4362 46.5458 35.0222 45.9597C35.6083 45.3737 35.9375 44.5788 35.9375 43.75H39.0625C39.2697 43.75 39.4684 43.6677 39.6149 43.5212C39.7614 43.3747 39.8437 43.176 39.8437 42.9688V29.0781C41.5286 27.9333 42.9079 26.3936 43.8611 24.5934C44.8144 22.7932 45.3128 20.787 45.3128 18.75C45.3128 16.713 44.8144 14.7068 43.8611 12.9066C42.9079 11.1064 41.5286 9.56672 39.8437 8.42187ZM11.7187 2.66406V7.8125H6.57031L11.7187 2.66406ZM5.46875 9.375H12.5C12.7072 9.375 12.9059 9.29269 13.0524 9.14618C13.1989 8.99966 13.2812 8.80095 13.2812 8.59375V1.5625H38.2812V7.52344C36.3773 6.59023 34.2669 6.15763 32.1493 6.26649C30.0317 6.37534 27.9768 7.02206 26.1785 8.14558C24.3802 9.2691 22.898 10.8324 21.8716 12.6878C20.8452 14.5432 20.3087 16.6296 20.3125 18.75C20.3143 19.8052 20.4535 20.8557 20.7266 21.875H5.46875V9.375ZM1.5625 23.4375H21.2344C21.7629 24.7382 22.5078 25.9401 23.4375 26.9922V28.125H1.5625V23.4375ZM21.875 29.6875V30.4688H3.125V29.6875H21.875ZM1.5625 32.0312H23.4375V36.7188H1.5625V32.0312ZM21.875 38.2812V39.0625H3.125V38.2812H21.875ZM23.4375 45.3125H1.5625V40.625H23.4375V45.3125ZM30.4687 32.8125C30.2615 32.8125 30.0628 32.8948 29.9163 33.0413C29.7698 33.1878 29.6875 33.3865 29.6875 33.5938V42.1875H25V39.8438C25 39.6365 24.9177 39.4378 24.7712 39.2913C24.6247 39.1448 24.4259 39.0625 24.2187 39.0625H23.4375V38.2812H24.2187C24.4259 38.2812 24.6247 38.1989 24.7712 38.0524C24.9177 37.9059 25 37.7072 25 37.5V31.25C25 31.0428 24.9177 30.8441 24.7712 30.6976C24.6247 30.5511 24.4259 30.4688 24.2187 30.4688H23.4375V29.6875H24.2187C24.4259 29.6875 24.6247 29.6052 24.7712 29.4587C24.9177 29.3122 25 29.1135 25 28.9062V28.4922C26.5881 29.7711 28.466 30.6404 30.4687 31.0234V32.8125ZM34.375 43.75C34.375 44.1644 34.2104 44.5618 33.9174 44.8549C33.6243 45.1479 33.2269 45.3125 32.8125 45.3125C32.3981 45.3125 32.0007 45.1479 31.7076 44.8549C31.4146 44.5618 31.25 44.1644 31.25 43.75V39.8438H34.375V43.75ZM34.375 38.2812H31.25V37.5H34.375V38.2812ZM34.375 35.9375H31.25V34.375H34.375V35.9375ZM32.0312 32.8125V31.2109C32.2891 31.2266 32.5469 31.25 32.8125 31.25C33.0781 31.25 33.3359 31.2266 33.5937 31.2109V32.8125H32.0312ZM38.2812 42.1875H35.9375V33.5938C35.9375 33.3865 35.8552 33.1878 35.7087 33.0413C35.5622 32.8948 35.3634 32.8125 35.1562 32.8125V31.0234C36.2396 30.8143 37.2905 30.4622 38.2812 29.9766V42.1875ZM32.8125 29.6875C30.6493 29.6875 28.5346 29.046 26.7359 27.8442C24.9373 26.6424 23.5354 24.9342 22.7076 22.9356C21.8797 20.937 21.6631 18.7379 22.0852 16.6162C22.5072 14.4945 23.5489 12.5457 25.0785 11.016C26.6082 9.48638 28.557 8.44469 30.6787 8.02266C32.8004 7.60063 34.9995 7.81723 36.9981 8.64507C38.9967 9.4729 40.7049 10.8748 41.9067 12.6735C43.1085 14.4721 43.75 16.5868 43.75 18.75C43.7469 21.6499 42.5936 24.43 40.5431 26.4806C38.4925 28.5311 35.7124 29.6844 32.8125 29.6875Z" fill="var(--fill-0, white)"/>
</g>
</svg>
