<svg preserveAspectRatio="none" width="100%" height="100%" overflow="visible" style="display: block;" viewBox="0 0 24 24" fill="none" xmlns="http://www.w3.org/2000/svg">
<g id="Group">
<path id="Vector" d="M22.2 9H21.54C21.2918 9.00045 21.0697 8.84558 20.9844 8.6124C20.9112 8.4204 20.8326 8.2326 20.748 8.0466C20.6429 7.8204 20.6909 7.55257 20.868 7.377L21.3384 6.906C22.0367 6.20153 22.0354 5.06543 21.3354 4.3626L19.6398 2.667C18.9361 1.9674 17.7995 1.9674 17.0958 2.667L16.6254 3.1368C16.4495 3.31328 16.1821 3.3612 15.9558 3.2568C15.7698 3.1722 15.582 3.0936 15.3894 3.0168C15.155 2.93213 14.9991 2.70923 15 2.46V1.8C15 0.805875 14.1941 0 13.2 0H10.8C9.80588 0 9 0.805875 9 1.8V2.46C9.00045 2.70825 8.84558 2.93032 8.6124 3.0156C8.4204 3.0888 8.2326 3.1674 8.0466 3.252C7.82033 3.35663 7.55288 3.3087 7.377 3.132L6.906 2.6616C6.20235 1.96245 5.06625 1.96245 4.3626 2.6616L2.667 4.3626C1.9674 5.06633 1.9674 6.20288 2.667 6.9066L3.1368 7.377C3.31395 7.55257 3.36195 7.8204 3.2568 8.0466C3.1722 8.2326 3.0936 8.4204 3.0198 8.613C2.93393 8.84753 2.70975 9.00255 2.46 9H1.8C0.805875 9 0 9.80588 0 10.8V13.2C0 14.1941 0.805875 15 1.8 15H2.46C2.70825 14.9996 2.93033 15.1544 3.0156 15.3876C3.0888 15.5796 3.1674 15.7674 3.252 15.9534C3.35715 16.1796 3.30915 16.4474 3.132 16.623L2.6616 17.094C1.96245 17.7977 1.96245 18.9338 2.6616 19.6374L4.3572 21.333C5.06093 22.0326 6.19748 22.0326 6.9012 21.333L7.3716 20.8632C7.54755 20.6867 7.81493 20.6388 8.0412 20.7432C8.2272 20.8278 8.415 20.9064 8.6076 20.9832C8.84318 21.0669 9.00045 21.29 9 21.54V22.2C9 23.1941 9.80588 24 10.8 24H13.2C14.1941 24 15 23.1941 15 22.2V21.54C14.9996 21.2918 15.1544 21.0697 15.3876 20.9844C15.5796 20.9112 15.7674 20.8326 15.9534 20.748C16.1797 20.6434 16.4471 20.6913 16.623 20.868L17.094 21.3384C17.7986 22.0364 18.9344 22.0351 19.6374 21.3354L21.333 19.6398C22.0326 18.9361 22.0326 17.7995 21.333 17.0958L20.8632 16.6254C20.6861 16.4498 20.638 16.182 20.7432 15.9558C20.8278 15.7698 20.9064 15.582 20.9832 15.3894C21.0679 15.155 21.2908 14.9991 21.54 15H22.2C23.1941 15 24 14.1941 24 13.2V10.8C24 9.80588 23.1941 9 22.2 9ZM22.8 13.2C22.8 13.5314 22.5314 13.8 22.2 13.8H21.54C20.7941 13.8028 20.1266 14.2638 19.86 14.9604C19.7964 15.1284 19.7276 15.2938 19.6536 15.4566C19.3451 16.1376 19.4882 16.9383 20.0136 17.4702L20.4828 17.94C20.7173 18.1742 20.7175 18.5541 20.4832 18.7886C20.4831 18.7887 20.483 18.7888 20.4828 18.789L18.7872 20.4846C18.5529 20.7188 18.1731 20.7188 17.9388 20.4846L17.4684 20.0148C16.9367 19.489 16.1357 19.3458 15.4548 19.6548C15.2922 19.7286 15.1266 19.7976 14.9598 19.8612C14.2637 20.1278 13.803 20.7947 13.8 21.54V22.2C13.8 22.5314 13.5314 22.8 13.2 22.8H10.8C10.4687 22.8 10.2 22.5314 10.2 22.2V21.54C10.1972 20.7941 9.7362 20.1266 9.0396 19.86C8.8716 19.7964 8.70623 19.7276 8.5434 19.6536C7.8624 19.3453 7.06178 19.4885 6.5298 20.0136L6.06 20.4828C5.82585 20.7173 5.4459 20.7175 5.21145 20.4832C5.2113 20.4831 5.21115 20.483 5.211 20.4828L3.5154 18.789C3.28118 18.5547 3.28118 18.1749 3.5154 17.9406L3.9852 17.4702C4.51058 16.9383 4.65368 16.1376 4.3452 15.4566C4.2714 15.294 4.2024 15.1284 4.1388 14.9616C3.87285 14.2648 3.2058 13.8033 2.46 13.8H1.8C1.46865 13.8 1.2 13.5314 1.2 13.2V10.8C1.2 10.4687 1.46865 10.2 1.8 10.2H2.46C3.20588 10.1972 3.87338 9.7362 4.14 9.0396C4.2036 8.8716 4.27238 8.70622 4.3464 8.5434C4.65488 7.8624 4.5117 7.0617 3.9864 6.5298L3.5148 6.06C3.28035 5.82585 3.28013 5.4459 3.51435 5.21145C3.5145 5.2113 3.51465 5.21115 3.5148 5.211L5.2104 3.5154C5.4447 3.28117 5.8245 3.28117 6.0588 3.5154L6.5292 3.9852C7.06088 4.51103 7.86188 4.6542 8.5428 4.3452C8.7054 4.2714 8.871 4.2024 9.0378 4.1388C9.73485 3.87308 10.1966 3.20595 10.2 2.46V1.8C10.2 1.46865 10.4687 1.2 10.8 1.2H13.2C13.5314 1.2 13.8 1.46865 13.8 1.8V2.46C13.8028 3.20588 14.2638 3.87337 14.9604 4.14C15.1284 4.2036 15.2938 4.27237 15.4566 4.3464C16.1375 4.6554 16.9385 4.51222 17.4702 3.9864L17.94 3.5172C18.1752 3.28455 18.5538 3.28455 18.789 3.5172L20.4846 5.2128C20.7188 5.4471 20.7188 5.8269 20.4846 6.0612L20.0148 6.5316C19.4895 7.0635 19.3463 7.8642 19.6548 8.5452C19.7286 8.7078 19.7976 8.8734 19.8612 9.0402C20.1278 9.73628 20.7947 10.197 21.54 10.2H22.2C22.5314 10.2 22.8 10.4687 22.8 10.8V13.2Z" fill="var(--fill-0, white)"/>
</g>
</svg>
