<svg preserveAspectRatio="none" width="100%" height="100%" overflow="visible" style="display: block;" viewBox="0 0 564.503 72.0001" fill="none" xmlns="http://www.w3.org/2000/svg">
<g id="Group">
<path id="Vector" d="M114.414 15.1617V31.1138H160.051V44.6946H114.414V70.4192H98.6257V1.58083H168.558V15.1617H114.414Z" fill="var(--fill-0, #EC1E24)"/>
<path id="Vector_2" d="M196.17 15.1617V31.1138H241.806V44.6946H196.17V70.4192H180.381V1.58083H250.313V15.1617H196.17Z" fill="var(--fill-0, #EC1E24)"/>
<g id="Group_2">
<path id="Vector_3" d="M358.095 25.6528C358.095 18.3235 352.255 14.9462 343.532 14.9462H314.045V36.2876H343.532C352.328 36.2876 358.095 32.9822 358.095 25.6528Z" fill="var(--fill-0, white)"/>
<path id="Vector_4" d="M471.14 14.9462H451.747V56.9822H471.14C486.568 56.9822 497.527 49.7965 497.527 35.9283C497.527 22.06 486.568 14.9462 471.14 14.9462Z" fill="var(--fill-0, white)"/>
<path id="Vector_5" d="M273.239 1.58087V70.4192H540.062L564.503 1.58087H273.239ZM357.951 63.0899L339.927 42.3952H314.117V63.0899H307.557V8.91021H344.037C356.148 8.91021 364.8 14.9461 364.8 25.5809C364.8 34.994 357.951 40.8863 347.93 42.036L366.458 63.018H357.951V63.0899ZM431.848 63.0899H379.291V8.91021H431.055V14.9461H385.852V32.4791H424.206V38.515H385.852V56.9821H431.848V63.0899ZM471.644 63.0899H445.258V8.91021H471.644C491.47 8.91021 504.231 19.3294 504.231 36C504.231 52.6707 491.47 63.0899 471.644 63.0899Z" fill="var(--fill-0, white)"/>
</g>
<g id="Group_3">
<path id="Vector_6" d="M54.9364 2.22754C50.3223 0.790419 45.0594 0 39.3639 0C33.6684 0 28.4055 0.790419 23.7914 2.22754L35.9034 14.3713L39.2197 17.6766L39.3639 17.8204L42.8245 14.3713L54.9364 2.22754Z" fill="var(--fill-0, #EC1E24)"/>
<path id="Vector_7" d="M65.2458 7.25757L54.4316 18.036C60.1271 21.6288 63.3714 27.7366 63.3714 36.0001C63.3714 49.9402 54.0711 57.7725 39.3638 57.7725C24.5843 57.7725 15.3562 49.9402 15.3562 36.0001C15.3562 27.7366 18.6005 21.6288 24.296 18.036L13.4817 7.25757C4.83035 13.3654 0 23.2097 0 36.0001C0 58.6348 15.212 72.0001 39.3638 72.0001C63.5155 72.0001 78.7276 58.6348 78.7276 36.0001C78.7276 23.2097 73.8251 13.3654 65.2458 7.25757Z" fill="var(--fill-0, #EC1E24)"/>
</g>
</g>
</svg>
